if (_typeface_js && _typeface_js.loadFace) _typeface_js.loadFace({"glyphs":{"\u0000":{"x_min":0,"x_max":0,"ha":695},"":{"x_min":161.125,"x_max":533.375,"ha":695,"o":"m 161 779 q 210 964 161 900 q 347 1028 259 1028 q 484 964 434 1028 q 533 779 533 900 q 484 593 533 657 q 347 529 434 529 q 210 593 259 529 q 161 779 161 657 m 441 779 q 437 846 441 814 q 422 901 433 878 q 393 937 411 924 q 347 951 375 951 q 301 937 319 951 q 272 901 283 924 q 256 846 261 878 q 251 779 251 814 q 256 712 251 743 q 272 658 261 680 q 301 621 283 635 q 347 607 319 607 q 393 621 375 607 q 422 658 411 635 q 437 712 433 680 q 441 779 441 743 m 400 782 q 385 745 400 761 q 347 729 370 729 q 309 745 323 729 q 295 782 295 761 q 309 820 295 804 q 347 836 323 836 q 385 820 370 836 q 400 782 400 804 "},"₅":{"x_min":176.40625,"x_max":520.875,"ha":695,"o":"m 520 142 q 471 33 520 76 q 318 -8 422 -8 q 237 0 277 -8 q 176 20 197 9 l 194 94 q 245 78 213 87 q 315 69 276 69 q 406 90 381 69 q 431 140 431 112 q 421 178 431 161 q 385 207 411 195 q 317 226 359 219 q 211 233 275 233 q 225 358 219 295 q 233 480 230 422 l 501 480 l 501 402 l 306 402 q 303 352 304 377 q 297 301 302 327 q 468 254 415 294 q 520 142 520 215 "},"Ҿ":{"x_min":25,"x_max":659.78125,"ha":695,"o":"m 329 401 q 370 159 334 241 q 498 77 405 77 q 578 94 545 77 q 620 122 611 111 l 651 31 q 609 6 643 20 q 527 -15 576 -8 l 527 -229 l 419 -229 l 419 -9 q 326 38 365 2 q 263 129 287 75 q 227 252 238 183 q 215 402 216 322 q 141 418 176 406 q 81 452 106 430 q 40 507 55 473 q 25 590 25 541 q 28 625 25 608 q 34 651 31 643 l 127 640 q 122 594 122 616 q 147 525 122 550 q 216 498 172 500 q 287 784 227 688 q 443 879 347 879 q 604 768 548 879 q 659 448 659 658 q 658 422 659 437 q 655 401 657 408 l 329 401 m 551 498 q 522 709 551 637 q 444 782 494 782 q 394 756 415 782 q 360 690 373 730 q 340 599 347 650 q 331 498 333 548 l 551 498 "},"ǻ":{"x_min":80.5625,"x_max":600.046875,"ha":695,"o":"m 354 81 q 431 84 397 81 q 487 91 465 87 l 487 283 q 434 294 465 290 q 368 298 402 298 q 305 293 336 298 q 251 276 275 288 q 212 243 227 263 q 197 193 197 223 q 239 106 197 130 q 354 81 281 81 m 343 659 q 464 641 415 659 q 544 591 513 623 q 587 513 575 559 q 600 413 600 468 l 600 11 q 493 -5 559 4 q 358 -15 427 -15 q 255 -6 305 -15 q 166 25 205 2 q 104 88 127 48 q 80 191 80 129 q 104 285 80 247 q 167 347 129 323 q 254 381 205 370 q 354 391 304 391 q 487 376 422 391 l 487 408 q 481 464 487 437 q 457 513 475 491 q 410 549 440 536 q 333 562 380 562 q 229 554 273 562 q 161 537 184 545 l 147 632 q 225 651 170 643 q 343 659 280 659 m 462 1037 l 266 963 l 240 1032 l 427 1129 l 462 1037 m 462 827 q 427 743 462 775 q 347 712 393 712 q 265 743 298 712 q 231 827 231 775 q 265 911 231 880 q 347 941 298 941 q 427 911 393 941 q 462 827 462 880 m 406 827 q 389 871 406 855 q 347 887 372 887 q 304 871 322 887 q 287 827 287 855 q 304 782 287 798 q 347 765 322 765 q 389 782 372 765 q 406 827 406 798 "},"ȋ":{"x_min":75,"x_max":625.046875,"ha":695,"o":"m 261 548 l 75 548 l 75 644 l 375 644 l 375 248 q 401 120 375 152 q 480 87 427 87 q 554 97 520 87 q 608 118 588 106 l 625 20 q 601 10 616 16 q 566 -1 586 4 q 521 -11 545 -6 q 470 -15 497 -15 q 369 1 409 -15 q 304 51 329 18 q 270 134 280 84 q 261 248 261 183 l 261 548 m 298 929 q 363 917 332 929 q 417 883 394 905 q 452 829 439 861 q 463 757 464 797 l 388 757 q 382 786 387 770 q 369 816 378 802 q 342 837 359 829 q 298 845 324 845 q 255 837 271 845 q 228 816 238 829 q 213 786 217 802 q 207 757 209 770 l 132 757 q 144 829 131 797 q 179 883 156 861 q 232 917 202 905 q 298 929 263 929 "},"`":{"x_min":211.125,"x_max":481.984375,"ha":695,"o":"m 276 962 l 481 783 l 433 719 l 211 876 l 276 962 "},"ǆ":{"x_min":6.9375,"x_max":707,"ha":695,"o":"m 573 727 l 438 851 l 480 901 l 573 826 l 665 901 l 707 851 l 573 727 m 261 522 q 231 552 251 540 q 191 563 212 563 q 158 552 173 563 q 131 513 143 541 q 113 439 119 486 q 106 322 106 393 q 135 127 106 187 q 202 68 163 68 q 261 77 241 68 l 261 522 m 261 943 l 361 962 l 361 18 q 297 -4 337 6 q 202 -15 256 -15 q 115 9 152 -15 q 54 78 79 33 q 18 185 30 123 q 6 322 6 247 q 21 484 6 419 q 59 587 36 548 q 113 643 83 626 q 176 659 144 659 q 227 647 204 659 q 261 620 250 634 l 261 943 m 682 558 q 650 472 669 525 q 611 356 632 419 q 570 227 590 294 q 537 97 551 159 l 682 97 l 682 0 l 443 0 l 443 76 q 476 197 456 131 q 516 328 495 263 q 556 451 536 393 q 591 548 576 509 l 455 548 l 455 644 l 682 644 l 682 558 "},"Ƹ":{"x_min":93.0625,"x_max":641.71875,"ha":695,"o":"m 469 412 l 445 412 q 355 404 398 412 q 279 377 312 397 q 226 324 245 356 q 206 241 206 291 q 263 118 206 156 q 411 80 319 80 q 470 84 440 80 q 525 95 500 88 q 572 111 551 102 q 605 126 593 119 l 641 31 q 605 15 629 25 q 551 0 581 6 q 484 -13 520 -8 q 409 -18 447 -18 q 280 -2 338 -18 q 180 43 222 12 q 115 123 138 75 q 93 238 93 172 q 113 345 93 301 q 166 420 133 390 q 243 468 200 451 q 334 493 287 486 q 272 570 304 530 q 209 650 240 611 q 154 724 179 688 q 112 787 129 759 l 112 859 l 613 859 l 613 762 l 258 762 q 300 702 275 737 q 354 629 325 668 q 413 553 383 591 q 469 484 443 515 l 469 412 "},"ƃ":{"x_min":98.625,"x_max":638.9375,"ha":695,"o":"m 213 859 l 213 620 q 274 646 234 633 q 362 659 313 659 q 479 634 427 659 q 566 565 530 609 q 620 459 601 520 q 638 322 638 397 q 616 181 638 244 q 554 75 594 119 q 456 8 513 31 q 330 -15 400 -15 q 194 -4 254 -15 q 98 18 134 6 l 98 957 l 569 957 l 569 859 l 213 859 m 213 100 q 266 89 240 93 q 316 86 293 86 q 466 145 412 86 q 520 322 520 204 q 511 416 520 372 q 480 491 501 459 q 427 540 459 522 q 348 558 394 558 q 270 542 308 558 q 213 508 233 526 l 213 100 "},"ἂ":{"x_min":68.0625,"x_max":654.21875,"ha":695,"o":"m 373 658 q 500 645 440 658 q 593 620 561 632 l 593 204 q 595 153 593 173 q 603 120 597 133 q 622 98 609 106 q 654 84 634 90 l 636 -12 q 570 8 595 -4 q 522 51 545 20 q 449 6 494 27 q 341 -13 404 -13 q 223 11 275 -13 q 138 80 172 36 q 86 186 104 125 q 68 320 68 247 q 89 461 68 398 q 150 567 111 523 q 247 634 190 611 q 373 658 304 658 m 351 86 q 431 102 395 86 q 486 133 468 118 q 480 170 481 151 q 479 209 479 188 l 479 544 q 440 554 469 548 q 377 559 411 559 q 238 496 290 559 q 186 320 186 433 q 195 228 186 270 q 224 154 204 186 q 275 104 244 122 q 351 86 306 86 m 133 755 q 177 795 159 776 q 209 838 195 815 q 176 863 187 847 q 165 901 165 880 q 184 949 165 930 q 234 968 202 968 q 285 948 263 968 q 306 891 306 929 q 295 847 306 870 q 267 800 284 823 q 227 753 250 776 q 179 712 204 730 l 133 755 m 425 970 l 561 759 l 495 712 l 340 909 l 425 970 "},"ᾉ":{"x_min":-122.03125,"x_max":694.5,"ha":695,"o":"m 330 225 l 147 225 l 116 0 l 12 0 q 45 198 27 91 q 81 418 62 305 q 124 643 101 530 q 172 859 147 757 l 313 859 q 361 643 338 757 q 402 418 383 530 q 438 198 422 305 q 470 0 455 91 l 362 0 l 330 225 m 679 -12 q 599 5 630 -8 q 550 42 568 19 q 527 97 533 65 q 520 170 520 129 l 520 644 l 622 644 l 622 190 q 625 146 622 163 q 636 116 627 129 q 658 97 644 104 q 694 84 672 90 l 679 -12 m 238 759 q 224 689 231 727 q 207 599 216 651 q 186 479 198 547 q 161 319 175 411 l 316 319 q 290 481 302 412 q 270 601 279 550 q 252 691 261 652 q 238 759 244 729 m 12 625 q -39 665 -15 643 q -81 712 -63 688 q -110 760 -99 736 q -122 804 -122 783 q -99 861 -122 842 q -45 881 -77 881 q 6 862 -13 881 q 26 814 26 843 q -20 751 26 770 q 12 708 -6 728 q 57 668 32 689 l 12 625 "},"ў":{"x_min":50,"x_max":640.328125,"ha":695,"o":"m 70 -120 q 106 -131 83 -127 q 148 -136 129 -136 q 254 -106 216 -136 q 325 -8 293 -76 q 179 307 247 138 q 66 644 111 476 l 191 644 q 224 524 205 588 q 266 391 243 459 q 317 254 290 323 q 375 123 344 186 q 416 250 397 187 q 452 375 436 312 q 486 504 469 438 q 520 644 502 570 l 640 644 q 541 294 595 463 q 423 -19 486 125 q 372 -115 400 -75 q 313 -181 345 -155 q 241 -220 281 -208 q 150 -233 201 -233 q 92 -226 123 -233 q 50 -213 61 -219 l 70 -120 m 372 748 q 245 788 294 748 q 186 898 197 827 l 273 922 q 308 857 284 882 q 372 833 331 833 q 436 857 412 833 q 470 922 459 882 l 556 898 q 497 788 545 827 q 372 748 450 748 "},"ţ":{"x_min":87.5,"x_max":625.046875,"ha":695,"o":"m 452 -45 q 504 -83 488 -62 q 520 -144 520 -104 q 514 -174 520 -158 q 493 -203 508 -190 q 454 -225 479 -216 q 394 -234 430 -234 q 334 -229 362 -234 q 291 -218 306 -225 l 305 -147 q 337 -156 320 -152 q 375 -159 354 -159 q 419 -131 419 -159 q 368 -88 419 -104 l 358 -86 q 372 -50 363 -70 q 391 -11 381 -29 q 307 15 340 -4 q 256 68 275 36 q 230 146 237 101 q 223 248 223 191 l 223 548 l 87 548 l 87 644 l 223 644 l 223 825 l 337 844 l 337 644 l 609 644 l 609 548 l 337 548 l 337 248 q 344 169 337 200 q 367 120 351 138 q 408 94 383 101 q 469 87 433 87 q 550 95 519 87 q 608 118 580 104 l 625 20 q 566 0 607 12 q 468 -15 526 -12 l 452 -45 "},"ȡ":{"x_min":34.71875,"x_max":694.5,"ha":695,"o":"m 333 511 q 294 545 319 529 q 238 561 269 561 q 197 543 213 561 q 169 492 180 525 q 153 416 158 459 q 148 322 148 372 q 178 148 148 209 q 259 87 208 87 q 304 94 287 87 q 333 106 322 101 l 333 511 m 334 12 q 297 -4 318 1 q 258 -11 277 -11 q 93 77 152 -11 q 34 322 34 165 q 46 459 34 397 q 82 565 58 520 q 142 634 106 609 q 225 659 177 659 q 289 645 261 659 q 333 616 318 630 l 333 943 l 447 962 l 447 88 q 494 115 470 106 q 547 125 518 125 q 607 110 580 125 q 654 72 634 95 q 684 15 673 48 q 694 -51 694 -16 q 684 -113 694 -81 q 654 -171 675 -145 q 602 -213 634 -197 q 527 -229 570 -229 q 421 -200 462 -229 q 358 -120 380 -172 l 265 -233 l 205 -180 l 336 -25 q 334 -5 334 -12 q 334 12 334 1 m 529 38 q 484 25 502 38 q 447 -11 466 11 l 447 -41 q 469 -113 447 -86 q 527 -141 491 -141 q 581 -114 563 -141 q 600 -51 600 -87 q 582 12 600 -13 q 529 38 565 38 "},"í":{"x_min":75,"x_max":625.046875,"ha":695,"o":"m 261 548 l 75 548 l 75 644 l 375 644 l 375 248 q 401 120 375 152 q 480 87 427 87 q 554 97 520 87 q 608 118 588 106 l 625 20 q 601 10 616 16 q 566 -1 586 4 q 521 -11 545 -6 q 470 -15 497 -15 q 369 1 409 -15 q 304 51 329 18 q 270 134 280 84 q 261 248 261 183 l 261 548 m 433 888 l 258 719 l 200 770 l 358 962 l 433 888 "},"ң":{"x_min":98.625,"x_max":644.5,"ha":695,"o":"m 590 97 l 644 97 l 644 -179 l 536 -179 l 536 0 l 476 0 l 476 284 l 213 284 l 213 0 l 98 0 l 98 644 l 213 644 l 213 381 l 476 381 l 476 644 l 590 644 l 590 97 "},"ņ":{"x_min":98.625,"x_max":600.046875,"ha":695,"o":"m 98 626 q 222 650 161 641 q 338 658 284 658 q 534 591 468 658 q 600 377 600 525 l 600 0 l 486 0 l 486 356 q 475 458 486 419 q 443 518 463 497 q 395 548 423 540 q 333 556 366 556 q 274 553 305 556 q 213 544 243 550 l 213 0 l 98 0 l 98 626 m 306 -62 l 417 -62 q 419 -77 419 -69 q 420 -90 420 -84 q 378 -202 420 -169 q 271 -236 335 -236 q 213 -227 244 -236 l 213 -161 l 234 -161 q 293 -140 280 -161 q 306 -80 306 -120 l 306 -62 "},"ǜ":{"x_min":94.453125,"x_max":595.875,"ha":695,"o":"m 595 18 q 496 -2 558 8 q 351 -13 434 -13 q 229 7 277 -13 q 150 68 180 29 q 106 162 119 108 q 94 281 94 216 l 94 644 l 208 644 l 208 306 q 243 137 208 187 q 362 87 279 87 q 399 88 380 87 q 434 92 418 90 q 463 96 451 94 q 480 100 476 98 l 480 644 l 595 644 l 595 18 m 215 727 q 168 746 187 727 q 148 795 148 765 q 168 845 148 827 q 215 863 187 863 q 263 845 244 863 q 283 795 283 827 q 263 746 283 765 q 215 727 244 727 m 479 727 q 430 746 450 727 q 411 795 411 765 q 430 845 411 827 q 479 863 450 863 q 526 845 506 863 q 545 795 545 827 q 526 746 545 765 q 479 727 506 727 m 281 1059 l 400 884 l 344 837 l 206 994 l 281 1059 "},"ỳ":{"x_min":50,"x_max":640.328125,"ha":695,"o":"m 70 -120 q 106 -131 83 -127 q 148 -136 129 -136 q 254 -106 216 -136 q 325 -8 293 -76 q 179 307 247 138 q 66 644 111 476 l 191 644 q 224 524 205 588 q 266 391 243 459 q 317 254 290 323 q 375 123 344 186 q 416 250 397 187 q 452 375 436 312 q 486 504 469 438 q 520 644 502 570 l 640 644 q 541 294 595 463 q 423 -19 486 125 q 372 -115 400 -75 q 313 -181 345 -155 q 241 -220 281 -208 q 150 -233 201 -233 q 92 -226 123 -233 q 50 -213 61 -219 l 70 -120 m 300 962 l 458 770 l 400 719 l 226 888 l 300 962 "},"Ҫ":{"x_min":63.890625,"x_max":638.9375,"ha":695,"o":"m 440 -45 q 492 -83 476 -62 q 508 -144 508 -104 q 502 -174 508 -158 q 481 -203 495 -190 q 442 -225 466 -216 q 381 -234 418 -234 q 322 -229 350 -234 q 279 -218 294 -225 l 293 -147 q 325 -156 308 -152 q 362 -159 341 -159 q 406 -131 406 -159 q 355 -88 406 -104 l 345 -86 q 359 -52 351 -70 q 376 -15 368 -33 q 250 21 308 -8 q 151 106 193 51 q 86 243 109 162 q 63 430 63 323 q 92 623 63 540 q 169 763 120 707 q 283 850 218 820 q 422 879 348 879 q 527 865 473 879 q 632 819 580 851 l 598 725 q 426 777 506 777 q 324 753 369 777 q 247 683 279 729 q 197 573 215 637 q 180 430 180 509 q 199 276 180 341 q 251 168 218 211 q 331 104 284 125 q 431 83 377 83 q 516 93 472 83 q 608 130 561 104 l 638 36 q 455 -16 558 -9 l 440 -45 "},"қ":{"x_min":98.625,"x_max":644.5,"ha":695,"o":"m 330 354 q 390 304 356 333 q 457 242 423 276 q 525 170 491 208 q 588 97 559 133 l 644 97 l 644 -179 l 536 -179 l 536 0 l 523 0 q 458 88 497 43 q 377 175 419 133 q 291 251 334 216 q 213 309 248 286 l 213 0 l 98 0 l 98 644 l 213 644 l 213 375 q 366 507 290 441 q 504 644 443 573 l 638 644 q 495 498 579 573 q 330 354 411 423 "},"Ύ":{"x_min":-180.859375,"x_max":677.828125,"ha":695,"o":"m -11 851 l -96 609 l -180 630 l -123 879 l -11 851 m 291 0 l 291 319 q 138 590 206 458 q 18 859 69 722 l 145 859 q 238 636 186 743 q 350 418 290 530 q 463 642 413 536 q 552 859 512 748 l 677 859 q 556 594 625 723 q 405 322 488 465 l 405 0 l 291 0 "},"ѕ":{"x_min":91.671875,"x_max":602.828125,"ha":695,"o":"m 487 161 q 459 218 487 195 q 388 256 430 240 q 295 289 345 273 q 203 329 245 305 q 132 387 161 352 q 104 477 104 422 q 167 607 104 555 q 365 659 230 659 q 474 652 418 659 q 570 632 530 644 l 550 529 q 519 541 538 534 q 475 552 500 547 q 421 559 450 556 q 366 562 393 562 q 216 480 216 562 q 245 431 216 451 q 316 394 273 411 q 409 360 359 377 q 502 318 459 343 q 574 257 545 293 q 602 168 602 222 q 534 32 602 80 q 319 -15 466 -15 q 197 -4 252 -15 q 91 29 141 6 l 113 133 q 215 96 162 111 q 330 81 269 81 q 487 161 487 81 "},"Ш":{"x_min":62.5,"x_max":632,"ha":695,"o":"m 62 859 l 166 859 l 166 97 l 295 97 l 295 533 l 400 533 l 400 97 l 527 97 l 527 859 l 632 859 l 632 0 l 62 0 l 62 859 "},"╗":{"x_min":0,"x_max":513.9375,"ha":695,"o":"m 0 402 l 291 402 l 291 -236 l 180 -236 l 180 291 l 0 291 l 0 402 m 0 625 l 513 625 l 513 -236 l 402 -236 l 402 513 l 0 513 l 0 625 "},"Ψ":{"x_min":59.734375,"x_max":634.765625,"ha":695,"o":"m 398 0 l 295 0 l 295 219 q 185 244 230 219 q 112 315 140 269 q 72 425 84 361 q 59 569 59 490 l 59 859 l 173 859 l 173 573 q 200 375 173 433 q 295 316 227 316 l 295 659 l 398 659 l 398 316 q 493 375 466 316 q 520 573 520 433 l 520 859 l 634 859 l 634 569 q 622 425 634 490 q 581 315 609 361 q 509 244 554 269 q 398 219 463 219 l 398 0 "},"ӊ":{"x_min":98.625,"x_max":668.296875,"ha":695,"o":"m 613 95 l 668 95 q 633 -72 670 8 q 538 -205 595 -152 l 458 -156 q 479 -131 466 -148 q 506 -93 493 -115 q 531 -47 519 -72 q 550 0 543 -23 l 500 0 l 500 284 l 213 284 l 213 0 l 98 0 l 98 644 l 213 644 l 213 381 l 500 381 l 500 644 l 613 644 l 613 95 "},"Ἴ":{"x_min":-320.765625,"x_max":570.875,"ha":695,"o":"m 404 762 l 404 97 l 570 97 l 570 0 l 123 0 l 123 97 l 290 97 l 290 762 l 123 762 l 123 859 l 570 859 l 570 762 l 404 762 m -320 668 q -277 708 -295 689 q -244 751 -259 728 q -277 776 -266 760 q -288 814 -288 793 q -270 862 -288 843 q -219 881 -251 881 q -169 861 -190 881 q -148 804 -148 842 q -158 760 -148 783 q -187 713 -169 736 q -228 666 -205 689 q -276 625 -251 643 l -320 668 m 79 822 l -77 625 l -141 672 l -6 883 l 79 822 "},"ŭ":{"x_min":94.453125,"x_max":595.875,"ha":695,"o":"m 595 18 q 496 -2 558 8 q 351 -13 434 -13 q 229 7 277 -13 q 150 68 180 29 q 106 162 119 108 q 94 281 94 216 l 94 644 l 208 644 l 208 306 q 243 137 208 187 q 362 87 279 87 q 399 88 380 87 q 434 92 418 90 q 463 96 451 94 q 480 100 476 98 l 480 644 l 595 644 l 595 18 m 347 757 q 281 768 312 757 q 228 802 251 780 q 193 855 205 823 q 181 929 180 887 l 256 929 q 262 899 258 915 q 277 870 266 883 q 304 848 287 857 q 347 840 320 840 q 391 848 373 840 q 418 870 408 857 q 431 899 427 883 q 437 929 436 915 l 512 929 q 501 855 513 887 q 466 802 488 823 q 412 768 443 780 q 347 757 381 757 "},"―":{"x_min":0,"x_max":694.5,"ha":695,"o":"m 0 425 l 694 425 l 694 327 l 0 327 l 0 425 "},"{":{"x_min":109.734375,"x_max":593.109375,"ha":695,"o":"m 109 415 l 165 415 q 206 425 188 415 q 236 453 225 436 q 254 492 248 470 q 261 536 261 513 l 261 759 q 271 850 261 811 q 306 916 281 888 q 374 957 331 943 q 480 970 416 970 l 593 970 l 593 880 l 475 880 q 392 854 416 880 q 368 758 368 827 l 368 566 q 340 429 368 473 q 276 370 312 386 q 340 308 312 354 q 368 175 368 262 l 368 -16 q 393 -112 368 -86 q 476 -138 418 -138 l 593 -138 l 593 -229 l 480 -229 q 374 -215 416 -229 q 306 -174 331 -201 q 271 -108 281 -147 q 261 -18 261 -69 l 261 205 q 254 247 261 226 q 236 286 248 269 q 207 315 225 304 q 166 326 190 326 l 109 326 l 109 415 "},"Ӄ":{"x_min":63.890625,"x_max":655.609375,"ha":695,"o":"m 177 859 l 177 466 q 266 560 219 508 q 357 666 312 612 q 443 769 402 719 q 513 859 484 819 l 655 859 q 581 766 620 813 q 501 668 543 718 q 416 571 459 619 q 329 480 372 523 q 452 454 395 475 q 552 392 509 433 q 620 288 595 351 q 644 133 644 225 q 626 -10 644 55 q 572 -125 608 -76 q 482 -201 536 -173 q 356 -229 429 -229 q 320 -229 338 -229 q 286 -226 301 -229 l 290 -133 q 307 -135 297 -134 q 336 -136 318 -136 q 473 -69 419 -136 q 527 133 527 -2 q 499 274 527 222 q 427 352 470 326 q 336 386 384 379 q 248 394 287 394 q 213 393 231 394 q 177 391 195 393 l 177 0 l 63 0 l 63 859 l 177 859 "},"Ĳ":{"x_min":58.34375,"x_max":654.21875,"ha":695,"o":"m 172 0 l 58 0 l 58 859 l 172 859 l 172 0 m 654 859 l 654 237 q 593 41 654 101 q 429 -18 533 -18 q 331 0 380 -18 q 245 51 283 16 l 291 144 q 347 99 315 118 q 427 80 380 80 q 510 115 481 80 q 538 238 538 151 l 538 859 l 654 859 "},"ǭ":{"x_min":55.5625,"x_max":638.9375,"ha":695,"o":"m 386 -231 q 281 -206 315 -231 q 248 -137 248 -181 q 264 -82 248 -108 q 302 -33 280 -56 q 325 -13 313 -22 q 217 16 266 -9 q 131 86 168 43 q 75 190 95 130 q 55 322 55 250 q 77 461 55 398 q 137 567 98 523 q 229 635 176 611 q 345 659 283 659 q 463 635 409 659 q 556 567 518 611 q 617 461 595 523 q 638 322 638 398 q 602 147 638 222 q 504 30 566 73 q 446 -5 472 11 q 395 -48 420 -22 q 368 -82 377 -68 q 358 -115 358 -97 q 408 -151 358 -151 q 430 -149 416 -151 q 458 -143 444 -147 l 468 -218 q 386 -231 436 -231 m 520 322 q 473 495 520 431 q 345 558 426 558 q 220 495 266 558 q 173 322 173 431 q 220 150 173 213 q 345 87 266 87 q 473 150 426 87 q 520 322 520 213 m 170 882 l 523 882 l 523 793 l 170 793 l 170 882 "},"ἣ":{"x_min":98.625,"x_max":600.046875,"ha":695,"o":"m 98 626 q 222 650 161 641 q 338 658 284 658 q 534 591 468 658 q 600 377 600 525 l 600 -229 l 486 -229 l 486 356 q 475 458 486 419 q 443 518 463 497 q 395 548 423 540 q 333 556 366 556 q 274 553 305 556 q 213 544 243 550 l 213 0 l 98 0 l 98 626 m 273 712 q 184 800 223 751 q 145 891 145 848 q 167 948 145 929 q 218 968 188 968 q 268 949 250 968 q 287 901 287 930 q 276 863 287 880 q 243 838 265 847 q 275 795 256 815 q 319 755 293 776 l 273 712 m 412 970 l 548 759 l 483 712 l 327 909 l 412 970 "},"ᾨ":{"x_min":-147.03125,"x_max":694.5,"ha":695,"o":"m 213 0 l 25 0 l 25 97 l 118 97 q 84 172 100 127 q 57 270 69 218 q 39 379 45 323 q 33 490 33 436 q 45 640 33 569 q 81 763 56 711 q 144 847 105 816 q 237 879 183 879 q 329 847 291 879 q 392 763 368 816 q 428 641 416 711 q 440 491 440 570 q 433 380 440 437 q 415 270 426 323 q 388 172 404 218 q 355 97 373 127 l 445 97 l 445 0 l 259 0 l 259 83 q 290 156 276 112 q 316 253 305 201 q 332 361 326 305 q 338 469 338 416 q 334 591 338 534 q 318 690 329 648 q 287 756 306 732 q 237 780 268 780 q 187 756 206 780 q 156 690 168 732 q 139 591 144 648 q 134 469 134 534 q 140 361 134 416 q 157 253 147 305 q 182 156 168 201 q 213 83 197 112 l 213 0 m 679 -12 q 599 5 630 -8 q 550 42 568 19 q 527 97 533 65 q 520 170 520 129 l 520 644 l 622 644 l 622 190 q 625 146 622 163 q 636 116 627 129 q 658 97 644 104 q 694 84 672 90 l 679 -12 m -147 668 q -102 708 -122 689 q -69 751 -83 728 q -103 776 -90 760 q -116 814 -116 793 q -95 862 -116 843 q -44 881 -74 881 q 9 861 -12 881 q 32 804 32 842 q 21 760 32 783 q -8 712 9 736 q -51 665 -26 688 q -102 625 -76 643 l -147 668 "},"Я":{"x_min":79.171875,"x_max":636.15625,"ha":695,"o":"m 79 0 q 125 101 100 50 q 175 200 150 152 q 224 288 200 247 q 269 362 248 330 q 155 456 197 397 q 113 597 113 516 q 193 800 113 732 q 426 868 272 868 q 476 866 448 868 q 532 863 504 865 q 588 857 561 861 q 636 847 615 852 l 636 0 l 522 0 l 522 337 l 423 337 q 405 337 419 337 q 381 338 391 337 q 339 270 362 309 q 293 185 316 230 q 245 93 269 140 q 201 0 222 45 l 79 0 m 418 770 q 346 762 380 770 q 286 734 312 754 q 245 680 261 713 q 230 597 230 647 q 245 512 230 544 q 289 462 261 480 q 358 438 318 444 q 447 431 398 431 l 522 431 l 522 763 q 479 768 508 766 q 418 770 450 770 "},"Ɲ":{"x_min":-68.0625,"x_max":618.109375,"ha":695,"o":"m 76 859 l 193 859 q 281 699 236 780 q 368 538 326 618 q 447 381 409 458 q 513 236 484 304 l 513 859 l 618 859 l 618 0 l 513 0 q 456 147 493 63 q 373 320 419 230 q 277 504 327 411 q 180 686 227 598 l 180 0 q 172 -97 180 -54 q 145 -170 165 -140 q 90 -215 125 -200 q 2 -231 56 -231 q -34 -229 -15 -231 q -68 -225 -54 -227 l -47 -133 q -22 -136 -33 -136 q 0 -137 -11 -137 q 61 -107 45 -137 q 76 -20 76 -77 l 76 859 "},"ὤ":{"x_min":50,"x_max":647.28125,"ha":695,"o":"m 475 -12 q 404 11 437 -12 q 348 86 370 34 q 292 11 326 34 q 222 -12 258 -12 q 140 9 173 -12 q 88 67 108 30 q 59 153 68 104 q 50 256 50 202 q 59 368 50 311 q 84 479 68 426 q 122 579 100 533 q 172 658 144 625 l 275 622 q 227 537 247 584 q 192 439 206 490 q 170 337 177 388 q 163 241 163 286 q 177 131 163 175 q 225 87 190 87 q 277 132 256 87 q 297 265 297 177 l 297 386 l 400 386 l 400 265 q 420 132 400 177 q 472 87 440 87 q 520 131 506 87 q 533 241 533 175 q 526 337 533 286 q 504 439 519 388 q 469 537 490 490 q 422 622 448 584 l 525 658 q 574 579 551 625 q 613 479 597 533 q 638 368 629 426 q 647 256 647 311 q 638 153 647 202 q 609 67 629 104 q 555 9 588 30 q 475 -12 522 -12 m 147 755 q 190 795 172 776 q 223 838 208 815 q 190 863 201 847 q 179 901 179 880 q 197 949 179 930 q 248 968 216 968 q 298 948 277 968 q 319 891 319 929 q 309 847 319 870 q 280 800 298 823 q 239 753 262 776 q 191 712 216 730 l 147 755 m 547 909 l 390 712 l 326 759 l 461 970 l 547 909 "},"Ȓ":{"x_min":76.390625,"x_max":643.109375,"ha":695,"o":"m 598 597 q 556 457 598 518 q 444 363 515 397 q 491 288 465 330 q 543 197 516 245 q 595 99 569 150 q 643 0 620 48 l 520 0 q 429 191 479 100 q 334 340 380 283 q 310 338 326 338 q 288 338 294 338 l 191 338 l 191 0 l 76 0 l 76 847 q 124 857 97 852 q 179 863 151 861 q 236 866 208 865 q 286 868 263 868 q 520 800 441 868 q 598 597 598 732 m 295 769 q 234 768 263 769 q 191 765 204 768 l 191 433 l 265 433 q 354 440 315 433 q 422 466 394 447 q 466 517 451 484 q 481 602 481 550 q 466 684 481 652 q 426 735 451 716 q 367 761 401 754 q 295 769 333 769 m 311 1122 q 376 1110 345 1122 q 430 1076 407 1098 q 465 1022 452 1054 q 476 950 477 990 l 401 950 q 395 979 400 963 q 382 1009 391 995 q 355 1030 372 1022 q 311 1038 337 1038 q 268 1030 284 1038 q 241 1009 251 1022 q 226 979 230 995 q 220 950 222 963 l 145 950 q 157 1022 144 990 q 192 1076 169 1054 q 245 1110 215 1098 q 311 1122 276 1122 "},"ɏ":{"x_min":58.34375,"x_max":662.546875,"ha":695,"o":"m 79 -120 q 115 -131 93 -127 q 156 -136 137 -136 q 264 -106 226 -136 q 333 -8 302 -76 q 257 143 294 63 q 188 306 220 223 l 63 306 l 63 390 l 156 390 q 113 518 133 454 q 75 644 93 581 l 197 644 q 229 525 211 590 q 272 390 248 459 l 468 390 q 499 512 483 450 q 531 644 515 575 l 648 644 q 615 516 632 579 q 579 390 598 452 l 662 390 l 662 306 l 552 306 q 495 137 525 219 q 433 -19 465 55 q 322 -181 384 -130 q 158 -233 261 -233 q 100 -226 131 -233 q 58 -213 69 -219 l 79 -120 m 383 119 q 414 213 400 166 q 444 306 429 259 l 304 306 q 341 211 322 258 q 383 119 361 163 "},"⁸":{"x_min":165.296875,"x_max":529.203125,"ha":695,"o":"m 529 520 q 482 419 529 458 q 345 380 436 380 q 258 393 293 380 q 202 427 223 406 q 173 470 181 447 q 165 516 165 494 q 187 581 165 551 q 238 632 209 612 q 194 682 211 652 q 177 743 177 711 q 222 838 177 798 q 345 879 268 879 q 423 866 391 879 q 475 835 455 854 q 505 793 495 816 q 515 748 515 770 q 497 686 515 713 q 450 638 479 658 q 510 588 494 616 q 529 520 526 561 m 251 516 q 256 495 251 506 q 272 475 261 484 q 301 460 283 466 q 345 454 319 454 q 418 472 397 454 q 440 516 440 491 q 404 570 440 551 q 306 605 369 590 q 265 565 280 586 q 251 516 251 544 m 429 750 q 410 785 429 765 q 345 805 391 805 q 281 786 300 805 q 262 747 262 766 q 288 699 262 722 q 373 665 315 676 q 413 702 398 683 q 429 750 429 722 "},"k":{"x_min":98.625,"x_max":663.9375,"ha":695,"o":"m 330 354 q 415 284 368 326 q 509 193 462 241 q 597 93 555 144 q 663 0 638 43 l 527 0 q 462 88 501 43 q 379 175 423 133 q 292 251 336 216 q 213 309 248 286 l 213 0 l 98 0 l 98 943 l 213 962 l 213 375 q 366 507 290 441 q 504 644 443 573 l 638 644 q 495 498 579 573 q 330 354 411 423 "},"Ά":{"x_min":-41.875,"x_max":682,"ha":695,"o":"m 561 0 l 509 225 l 179 225 l 129 0 l 12 0 q 65 198 36 91 q 128 418 94 305 q 200 643 162 530 q 279 859 237 757 l 420 859 q 497 643 461 757 q 567 418 534 530 q 629 198 600 305 q 682 0 658 91 l 561 0 m 345 759 q 276 556 313 672 q 205 319 238 441 l 483 319 q 414 560 451 444 q 345 759 377 676 m 191 801 l 16 632 l -41 683 l 116 875 l 191 801 "},"ȇ":{"x_min":55.5625,"x_max":632,"ha":695,"o":"m 359 659 q 561 578 490 659 q 632 331 632 497 l 632 291 l 170 291 q 236 139 177 191 q 402 87 295 87 q 506 97 463 87 q 572 118 550 106 l 587 20 q 512 -2 566 9 q 390 -15 458 -15 q 243 10 306 -15 q 138 80 180 36 q 76 186 97 125 q 55 320 55 248 q 81 470 55 406 q 151 576 108 534 q 248 638 194 618 q 359 659 302 659 m 515 384 q 472 514 515 466 q 358 562 429 562 q 285 547 318 562 q 229 506 252 531 q 191 450 205 481 q 173 384 177 418 l 515 384 m 372 929 q 437 917 406 929 q 491 883 468 905 q 526 829 513 861 q 537 757 538 797 l 462 757 q 456 786 461 770 q 443 816 452 802 q 416 837 433 829 q 372 845 398 845 q 329 837 345 845 q 302 816 312 829 q 287 786 291 802 q 281 757 283 770 l 206 757 q 218 829 205 797 q 253 883 230 861 q 306 917 276 905 q 372 929 337 929 "},"ί":{"x_min":75,"x_max":625.046875,"ha":695,"o":"m 625 20 q 544 -6 586 1 q 463 -15 502 -15 q 369 -2 408 -15 q 306 40 330 11 q 272 118 283 70 q 261 233 261 165 l 261 548 l 75 548 l 75 644 l 375 644 l 375 251 q 380 169 375 201 q 398 119 386 137 q 431 94 411 101 q 484 87 452 87 q 540 94 504 87 q 608 118 576 101 l 625 20 m 470 876 l 250 719 l 200 783 l 405 962 l 470 876 "},"Ù":{"x_min":66.671875,"x_max":627.828125,"ha":695,"o":"m 347 -18 q 217 4 270 -18 q 130 66 163 26 q 81 165 97 106 q 66 295 66 223 l 66 859 l 180 859 l 180 308 q 192 199 180 243 q 225 129 204 155 q 277 91 247 102 q 347 80 308 80 q 416 91 386 80 q 468 129 447 102 q 502 199 490 155 q 513 308 513 243 l 513 859 l 627 859 l 627 295 q 612 165 627 223 q 563 66 597 106 q 477 4 530 26 q 347 -18 423 -18 m 300 1152 l 458 960 l 400 909 l 226 1078 l 300 1152 "},"ὓ":{"x_min":98.625,"x_max":593.109375,"ha":695,"o":"m 345 -13 q 222 11 270 -13 q 147 77 175 36 q 109 172 119 119 q 98 279 98 225 l 98 644 l 213 644 l 213 284 q 247 131 213 176 q 345 86 280 86 q 445 131 412 86 q 479 284 479 176 l 479 644 l 593 644 l 593 279 q 582 172 593 225 q 544 77 572 119 q 468 11 516 36 q 345 -13 420 -13 m 273 712 q 184 800 223 751 q 145 891 145 848 q 167 948 145 929 q 218 968 188 968 q 268 949 250 968 q 287 901 287 930 q 276 863 287 880 q 243 838 265 847 q 275 795 256 815 q 319 755 293 776 l 273 712 m 412 970 l 548 759 l 483 712 l 327 909 l 412 970 "},"Ҷ":{"x_min":75,"x_max":657,"ha":695,"o":"m 190 611 q 195 518 190 558 q 218 452 201 479 q 267 413 236 426 q 348 401 298 401 q 431 408 393 401 q 488 420 469 415 l 488 859 l 602 859 l 602 97 l 657 97 l 657 -229 l 548 -229 l 548 0 l 488 0 l 488 322 q 424 309 466 315 q 333 302 381 302 q 199 324 250 302 q 120 386 148 345 q 84 483 93 426 q 75 611 75 540 l 75 859 l 190 859 l 190 611 "},"В":{"x_min":75,"x_max":626.4375,"ha":695,"o":"m 283 -6 q 234 -5 262 -6 q 179 -2 206 -4 q 123 4 151 0 q 75 13 95 8 l 75 847 q 122 857 95 852 q 178 863 150 861 q 234 866 206 865 q 283 868 261 868 q 402 857 347 868 q 499 819 458 845 q 563 750 540 793 q 586 643 586 707 q 576 584 586 612 q 549 530 566 555 q 509 486 531 505 q 459 458 486 468 q 578 386 530 438 q 626 251 626 334 q 544 58 626 123 q 283 -6 462 -6 m 188 401 l 188 94 q 220 90 191 93 q 291 88 248 88 q 374 95 334 88 q 444 121 413 102 q 493 170 475 140 q 512 250 512 201 q 495 322 512 293 q 449 368 477 351 q 383 393 420 386 q 305 401 345 401 l 188 401 m 188 495 l 279 495 q 348 502 313 495 q 411 525 383 509 q 455 566 438 540 q 472 633 472 593 q 456 697 472 670 q 416 740 441 723 q 359 763 391 757 q 290 770 326 770 q 227 770 254 770 q 188 766 200 769 l 188 495 "},"ᾗ":{"x_min":98.625,"x_max":600.046875,"ha":695,"o":"m 98 626 q 222 650 161 641 q 338 658 284 658 q 534 591 468 658 q 600 377 600 525 l 600 -229 l 486 -229 l 486 356 q 475 458 486 419 q 443 518 463 497 q 395 548 423 540 q 333 556 366 556 q 274 553 305 556 q 213 544 243 550 l 213 0 l 98 0 l 98 626 m 411 712 q 365 741 388 725 q 322 775 341 757 q 290 816 302 794 q 277 861 277 837 q 297 915 277 897 q 344 933 316 933 q 395 914 379 933 q 411 873 411 895 q 401 843 411 857 q 376 818 391 829 q 445 755 395 791 l 411 712 m 347 1093 q 409 1083 379 1093 q 461 1054 438 1073 q 498 1006 484 1034 q 512 940 512 977 l 512 937 l 445 937 q 419 991 443 966 q 347 1016 395 1016 q 275 991 298 1016 q 248 937 251 966 l 181 937 l 181 940 q 195 1006 181 977 q 232 1054 209 1034 q 285 1083 255 1073 q 347 1093 315 1093 m 213 -80 q 226 -140 213 -120 q 285 -161 239 -161 l 306 -161 l 306 -227 q 248 -236 274 -236 q 141 -202 184 -236 q 99 -90 99 -169 q 100 -77 99 -84 q 102 -62 101 -69 l 213 -62 l 213 -80 "},"β":{"x_min":98.625,"x_max":638.9375,"ha":695,"o":"m 213 -229 l 98 -229 l 98 691 q 118 810 98 759 q 172 895 138 861 q 252 945 206 929 q 347 962 297 962 q 437 947 395 962 q 510 901 479 932 q 559 826 541 870 q 577 722 577 782 q 544 613 577 665 q 447 534 511 561 q 535 493 498 520 q 595 432 572 466 q 628 358 618 398 q 638 277 638 318 q 614 145 638 200 q 551 56 590 90 q 463 6 512 22 q 363 -9 413 -9 q 213 29 279 -9 l 213 -229 m 213 133 q 275 99 241 109 q 344 88 309 88 q 411 100 379 88 q 467 133 443 111 q 506 190 491 155 q 520 272 520 225 q 471 422 520 368 q 313 477 422 477 l 305 477 l 305 572 l 315 572 q 420 609 377 572 q 462 720 462 645 q 431 827 462 791 q 347 863 400 863 q 250 820 286 863 q 213 686 213 776 l 213 133 "},"Ό":{"x_min":-138.875,"x_max":655.609375,"ha":695,"o":"m 94 801 l -80 632 l -138 683 l 19 875 l 94 801 m 40 430 q 62 630 40 545 q 125 770 84 715 q 221 852 165 825 q 347 879 277 879 q 472 852 415 879 q 569 770 529 825 q 632 630 609 715 q 655 430 655 545 q 632 230 655 315 q 569 90 609 145 q 472 8 529 34 q 347 -18 415 -18 q 221 8 277 -18 q 125 90 165 34 q 62 230 84 145 q 40 430 40 315 m 156 430 q 202 170 156 261 q 344 80 248 80 q 490 170 441 80 q 538 430 538 261 q 490 690 538 600 q 344 780 441 780 q 202 690 248 780 q 156 430 156 600 "},"≠":{"x_min":63.890625,"x_max":632,"ha":695,"o":"m 63 280 l 252 280 l 337 445 l 63 445 l 63 544 l 387 544 l 469 707 l 550 662 l 491 544 l 632 544 l 632 445 l 441 445 l 356 280 l 632 280 l 632 181 l 306 181 l 226 19 l 144 63 l 202 181 l 63 181 l 63 280 "},"Ғ":{"x_min":75,"x_max":638.9375,"ha":695,"o":"m 198 97 l 198 394 l 75 394 l 75 487 l 198 487 l 198 859 l 638 859 l 638 762 l 312 762 l 312 487 l 498 487 l 498 394 l 312 394 l 312 97 l 498 97 l 498 0 l 75 0 l 75 97 l 198 97 "},"ƀ":{"x_min":27.78125,"x_max":638.9375,"ha":695,"o":"m 233 847 l 458 847 l 458 761 l 233 761 l 233 620 q 291 646 254 633 q 376 659 329 659 q 487 634 438 659 q 569 565 536 609 q 620 459 602 520 q 638 322 638 397 q 618 181 638 244 q 558 75 597 119 q 465 8 519 31 q 344 -15 411 -15 q 212 -4 269 -15 q 119 18 155 6 l 119 761 l 27 761 l 27 847 l 119 847 l 119 943 l 233 962 l 233 847 m 233 100 q 283 89 258 93 q 330 86 308 86 q 470 145 419 86 q 520 322 520 204 q 511 416 520 372 q 484 491 502 459 q 434 540 465 522 q 362 558 404 558 q 288 542 323 558 q 233 508 252 526 l 233 100 "},"Ĥ":{"x_min":62.5,"x_max":632,"ha":695,"o":"m 518 859 l 632 859 l 632 0 l 518 0 l 518 400 l 176 400 l 176 0 l 62 0 l 62 859 l 176 859 l 176 497 l 518 497 l 518 859 m 347 1147 l 515 969 l 468 915 l 347 1023 l 226 915 l 179 969 l 347 1147 "},"U":{"x_min":66.671875,"x_max":627.828125,"ha":695,"o":"m 347 -18 q 217 4 270 -18 q 130 66 163 26 q 81 165 97 106 q 66 295 66 223 l 66 859 l 180 859 l 180 308 q 192 199 180 243 q 225 129 204 155 q 277 91 247 102 q 347 80 308 80 q 416 91 386 80 q 468 129 447 102 q 502 199 490 155 q 513 308 513 243 l 513 859 l 627 859 l 627 295 q 612 165 627 223 q 563 66 597 106 q 477 4 530 26 q 347 -18 423 -18 "},"╤":{"x_min":0,"x_max":694.5,"ha":695,"o":"m 694 402 l 694 291 l 402 291 l 402 -236 l 291 -236 l 291 291 l 0 291 l 0 402 l 694 402 m 0 513 l 0 625 l 694 625 l 694 513 l 0 513 "},"ᾞ":{"x_min":-319.046875,"x_max":694.5,"ha":695,"o":"m 679 -12 q 599 5 630 -8 q 550 42 568 19 q 527 97 533 65 q 520 170 520 129 l 520 644 l 622 644 l 622 190 q 625 146 622 163 q 636 116 627 129 q 658 97 644 104 q 694 84 672 90 l 679 -12 m 331 859 l 434 859 l 434 0 l 331 0 l 331 400 l 163 400 l 163 0 l 62 0 l 62 859 l 163 859 l 163 497 l 331 497 l 331 859 m -252 623 q -182 686 -202 659 q -207 711 -198 697 q -217 741 -217 725 q -201 782 -217 763 q -150 801 -185 801 q -103 783 -121 801 q -84 729 -84 765 q -96 684 -84 705 q -128 643 -109 662 q -171 609 -148 625 q -217 580 -195 593 l -252 623 m -153 961 q -91 951 -121 961 q -39 922 -62 941 q -2 874 -16 902 q 11 808 11 845 l 11 805 l -55 805 q -81 859 -57 834 q -153 884 -105 884 q -225 859 -202 884 q -252 805 -249 834 l -319 805 l -319 808 q -305 874 -319 845 q -268 922 -291 902 q -215 951 -245 941 q -153 961 -185 961 "},"∕":{"x_min":34.71875,"x_max":658.390625,"ha":695,"o":"m 131 0 l 34 0 l 561 859 l 658 859 l 131 0 "},"Ᾰ":{"x_min":12.5,"x_max":682,"ha":695,"o":"m 561 0 l 509 225 l 179 225 l 129 0 l 12 0 q 65 198 36 91 q 128 418 94 305 q 200 643 162 530 q 279 859 237 757 l 420 859 q 497 643 461 757 q 567 418 534 530 q 629 198 600 305 q 682 0 658 91 l 561 0 m 345 759 q 276 556 313 672 q 205 319 238 441 l 483 319 q 414 560 451 444 q 345 759 377 676 m 347 950 q 281 961 312 950 q 228 995 251 973 q 193 1048 205 1016 q 181 1122 180 1080 l 256 1122 q 262 1092 258 1108 q 277 1063 266 1076 q 304 1041 287 1050 q 347 1033 320 1033 q 391 1041 373 1033 q 418 1063 408 1050 q 431 1092 427 1076 q 437 1122 436 1108 l 512 1122 q 501 1048 513 1080 q 466 995 488 1016 q 412 961 443 973 q 347 950 381 950 "},"Ϋ":{"x_min":18.0625,"x_max":677.828125,"ha":695,"o":"m 291 0 l 291 319 q 138 590 206 458 q 18 859 69 722 l 145 859 q 238 636 186 743 q 350 418 290 530 q 463 642 413 536 q 552 859 512 748 l 677 859 q 556 594 625 723 q 405 322 488 465 l 405 0 l 291 0 m 229 956 q 179 977 201 956 q 156 1030 156 998 q 179 1082 156 1062 q 229 1102 201 1102 q 279 1082 258 1102 q 301 1030 301 1062 q 279 977 301 998 q 229 956 258 956 m 465 956 q 414 977 436 956 q 393 1030 393 998 q 414 1082 393 1062 q 465 1102 436 1102 q 516 1082 494 1102 q 537 1030 537 1062 q 516 977 537 998 q 465 956 494 956 "},"ɋ":{"x_min":55.5625,"x_max":691.71875,"ha":695,"o":"m 456 25 q 400 -2 437 11 q 319 -15 363 -15 q 209 9 258 -15 q 125 79 159 34 q 73 185 91 123 q 55 320 55 247 q 77 461 55 398 q 136 567 98 523 q 229 634 175 611 q 350 658 283 658 q 478 646 422 658 q 572 623 534 634 l 572 -20 q 586 -107 572 -77 q 636 -137 600 -137 q 658 -136 644 -137 q 680 -131 672 -134 l 691 -222 q 659 -228 680 -225 q 623 -231 638 -231 q 540 -217 572 -231 q 489 -173 508 -202 q 463 -100 470 -144 q 456 0 456 -56 l 456 25 m 173 320 q 182 228 173 270 q 211 154 191 186 q 260 105 230 123 q 331 87 290 87 q 405 102 370 87 q 458 136 440 118 l 458 543 q 418 552 443 548 q 350 556 394 556 q 222 495 272 556 q 173 320 173 433 "},"ō":{"x_min":55.5625,"x_max":638.9375,"ha":695,"o":"m 638 322 q 617 184 638 245 q 556 77 595 122 q 463 9 518 33 q 345 -15 409 -15 q 229 9 283 -15 q 137 77 176 33 q 77 184 98 122 q 55 322 55 245 q 77 461 55 398 q 137 567 98 523 q 229 635 176 611 q 345 659 283 659 q 463 635 409 659 q 556 567 518 611 q 617 461 595 523 q 638 322 638 398 m 520 322 q 473 495 520 431 q 345 558 426 558 q 220 495 266 558 q 173 322 173 431 q 220 150 173 213 q 345 87 266 87 q 473 150 426 87 q 520 322 520 213 m 170 882 l 523 882 l 523 793 l 170 793 l 170 882 "},"Ӕ":{"x_min":37.5,"x_max":669.5,"ha":695,"o":"m 365 0 l 365 225 l 201 225 l 150 0 l 37 0 q 163 453 100 241 q 304 859 227 665 l 651 859 l 651 762 l 473 762 l 473 498 l 619 498 l 619 401 l 473 401 l 473 97 l 669 97 l 669 0 l 365 0 m 365 786 q 291 543 326 663 q 226 319 255 422 l 365 319 l 365 786 "},"ö":{"x_min":55.5625,"x_max":638.9375,"ha":695,"o":"m 638 322 q 617 184 638 245 q 556 77 595 122 q 463 9 518 33 q 345 -15 409 -15 q 229 9 283 -15 q 137 77 176 33 q 77 184 98 122 q 55 322 55 245 q 77 461 55 398 q 137 567 98 523 q 229 635 176 611 q 345 659 283 659 q 463 635 409 659 q 556 567 518 611 q 617 461 595 523 q 638 322 638 398 m 520 322 q 473 495 520 431 q 345 558 426 558 q 220 495 266 558 q 173 322 173 431 q 220 150 173 213 q 345 87 266 87 q 473 150 426 87 q 520 322 520 213 m 229 763 q 179 784 201 763 q 156 837 156 805 q 179 889 156 869 q 229 909 201 909 q 279 889 258 909 q 301 837 301 869 q 279 784 301 805 q 229 763 258 763 m 465 763 q 414 784 436 763 q 393 837 393 805 q 414 889 393 869 q 465 909 436 909 q 516 889 494 909 q 537 837 537 869 q 516 784 537 805 q 465 763 494 763 "},"╧":{"x_min":0,"x_max":694.5,"ha":695,"o":"m 0 513 l 0 625 l 291 625 l 291 1152 l 402 1152 l 402 625 l 694 625 l 694 513 l 0 513 m 694 402 l 694 291 l 0 291 l 0 402 l 694 402 "},"Ȧ":{"x_min":12.5,"x_max":682,"ha":695,"o":"m 561 0 l 509 225 l 179 225 l 129 0 l 12 0 q 65 198 36 91 q 128 418 94 305 q 200 643 162 530 q 279 859 237 757 l 420 859 q 497 643 461 757 q 567 418 534 530 q 629 198 600 305 q 682 0 658 91 l 561 0 m 345 759 q 276 556 313 672 q 205 319 238 441 l 483 319 q 414 560 451 444 q 345 759 377 676 m 350 966 q 291 989 315 966 q 266 1051 266 1012 q 291 1111 266 1089 q 350 1134 315 1134 q 409 1111 384 1134 q 433 1051 433 1089 q 409 989 433 1012 q 350 966 384 966 "},"А":{"x_min":12.5,"x_max":682,"ha":695,"o":"m 561 0 l 509 225 l 179 225 l 129 0 l 12 0 q 65 198 36 91 q 128 418 94 305 q 200 643 162 530 q 279 859 237 757 l 420 859 q 497 643 461 757 q 567 418 534 530 q 629 198 600 305 q 682 0 658 91 l 561 0 m 345 759 q 276 556 313 672 q 205 319 238 441 l 483 319 q 414 560 451 444 q 345 759 377 676 "},"ĭ":{"x_min":75,"x_max":625.046875,"ha":695,"o":"m 261 548 l 75 548 l 75 644 l 375 644 l 375 248 q 401 120 375 152 q 480 87 427 87 q 554 97 520 87 q 608 118 588 106 l 625 20 q 601 10 616 16 q 566 -1 586 4 q 521 -11 545 -6 q 470 -15 497 -15 q 369 1 409 -15 q 304 51 329 18 q 270 134 280 84 q 261 248 261 183 l 261 548 m 298 757 q 232 768 263 757 q 179 802 202 780 q 144 855 156 823 q 132 929 131 887 l 207 929 q 213 899 209 915 q 228 870 217 883 q 255 848 238 857 q 298 840 271 840 q 342 848 324 840 q 369 870 359 857 q 382 899 378 883 q 388 929 387 915 l 463 929 q 452 855 464 887 q 417 802 439 823 q 363 768 394 780 q 298 757 332 757 "},"8":{"x_min":70.84375,"x_max":623.65625,"ha":695,"o":"m 623 223 q 554 48 623 115 q 345 -18 486 -18 q 212 3 265 -18 q 128 59 159 25 q 84 134 97 93 q 70 216 70 176 q 111 347 70 290 q 206 438 151 404 q 88 643 88 505 q 106 733 88 690 q 158 808 125 776 q 239 859 191 840 q 347 879 287 879 q 466 858 416 879 q 545 804 515 837 q 590 732 576 772 q 604 655 604 693 q 566 528 604 581 q 480 443 529 475 q 623 223 623 375 m 181 215 q 190 168 181 193 q 218 123 198 144 q 269 89 237 102 q 347 76 301 76 q 421 88 390 76 q 472 120 452 100 q 502 165 493 140 q 512 215 512 190 q 455 336 512 294 q 298 401 398 379 q 212 325 243 370 q 181 215 181 279 m 493 655 q 484 696 493 673 q 459 738 476 719 q 413 770 441 757 q 347 783 386 783 q 279 770 306 783 q 234 739 252 758 q 209 697 216 720 q 201 652 201 675 q 242 546 201 595 q 377 475 283 497 q 461 547 430 505 q 493 655 493 588 "},"ƿ":{"x_min":98.625,"x_max":641.71875,"ha":695,"o":"m 523 372 q 475 507 523 458 q 340 556 427 556 q 259 550 287 556 q 213 536 231 543 l 213 41 q 323 87 268 62 q 423 150 379 112 q 495 240 468 187 q 523 372 523 294 m 641 369 q 607 200 641 270 q 515 79 573 130 q 379 -6 456 29 q 213 -69 301 -41 l 213 -229 l 98 -229 l 98 608 q 199 641 138 623 q 341 658 259 658 q 561 581 481 658 q 641 369 641 504 "},"R":{"x_min":76.390625,"x_max":643.109375,"ha":695,"o":"m 598 597 q 556 457 598 518 q 444 363 515 397 q 491 288 465 330 q 543 197 516 245 q 595 99 569 150 q 643 0 620 48 l 520 0 q 429 191 479 100 q 334 340 380 283 q 310 338 326 338 q 288 338 294 338 l 191 338 l 191 0 l 76 0 l 76 847 q 124 857 97 852 q 179 863 151 861 q 236 866 208 865 q 286 868 263 868 q 520 800 441 868 q 598 597 598 732 m 295 769 q 234 768 263 769 q 191 765 204 768 l 191 433 l 265 433 q 354 440 315 433 q 422 466 394 447 q 466 517 451 484 q 481 602 481 550 q 466 684 481 652 q 426 735 451 716 q 367 761 401 754 q 295 769 333 769 "},"Ὗ":{"x_min":-357.046875,"x_max":677.828125,"ha":695,"o":"m 291 0 l 291 319 q 138 590 206 458 q 18 859 69 722 l 145 859 q 238 636 186 743 q 350 418 290 530 q 463 642 413 536 q 552 859 512 748 l 677 859 q 556 594 625 723 q 405 322 488 465 l 405 0 l 291 0 m -127 580 q -173 609 -150 593 q -216 643 -197 625 q -248 684 -236 662 q -261 729 -261 705 q -241 783 -261 765 q -194 801 -222 801 q -143 782 -159 801 q -127 741 -127 763 q -137 711 -127 725 q -162 686 -147 697 q -93 623 -143 659 l -127 580 m -191 961 q -129 951 -159 961 q -77 922 -100 941 q -40 874 -54 902 q -26 808 -26 845 l -26 805 l -93 805 q -119 859 -95 834 q -191 884 -143 884 q -263 859 -240 884 q -290 805 -287 834 l -357 805 l -357 808 q -343 874 -357 845 q -306 922 -329 902 q -253 951 -283 941 q -191 961 -223 961 "},"Ż":{"x_min":75,"x_max":632,"ha":695,"o":"m 620 770 q 521 625 576 709 q 409 450 466 541 q 299 265 352 358 q 205 97 245 173 l 632 97 l 632 0 l 75 0 l 75 75 q 170 254 118 162 q 276 436 222 347 q 384 608 330 525 q 488 762 438 691 l 95 762 l 95 859 l 620 859 l 620 770 m 347 945 q 288 968 312 945 q 263 1030 263 991 q 288 1090 263 1068 q 347 1113 312 1113 q 406 1090 381 1113 q 430 1030 430 1068 q 406 968 430 991 q 347 945 381 945 "},"⅙":{"x_min":-1.390625,"x_max":622.265625,"ha":695,"o":"m 588 290 q 482 270 523 287 q 423 216 441 254 q 480 234 455 234 q 578 198 547 234 q 609 113 609 162 q 601 67 609 90 q 576 26 593 44 q 535 -2 559 8 q 479 -12 511 -12 q 368 29 402 -12 q 334 138 334 72 q 349 222 334 181 q 394 293 363 262 q 471 341 425 323 q 581 359 518 359 l 588 290 m 22 779 q 103 818 70 798 q 169 869 136 837 l 226 869 l 226 522 l 144 522 l 144 755 q 93 730 116 740 q 45 712 70 720 l 22 779 m 473 165 q 411 145 441 165 q 428 77 411 98 q 476 56 445 56 q 518 74 504 56 q 533 111 533 91 q 518 149 533 133 q 473 165 504 165 m 95 0 l -1 0 l 525 859 l 622 859 l 95 0 "},"ħ":{"x_min":27.78125,"x_max":600.046875,"ha":695,"o":"m 27 847 l 119 847 l 119 943 l 233 962 l 233 847 l 458 847 l 458 761 l 233 761 l 233 634 q 293 652 259 645 q 358 658 327 658 q 472 636 426 658 q 547 576 519 615 q 587 483 575 537 q 600 363 600 429 l 600 0 l 486 0 l 486 338 q 454 507 486 458 q 347 556 423 556 q 281 549 315 556 q 233 534 247 541 l 233 0 l 119 0 l 119 761 l 27 761 l 27 847 "},"─":{"x_min":0,"x_max":694.5,"ha":695,"o":"m 0 402 l 0 513 l 694 513 l 694 402 l 0 402 "},"ἵ":{"x_min":75,"x_max":625.046875,"ha":695,"o":"m 625 20 q 544 -6 586 1 q 463 -15 502 -15 q 369 -2 408 -15 q 306 40 330 11 q 272 118 283 70 q 261 233 261 165 l 261 548 l 75 548 l 75 644 l 375 644 l 375 251 q 380 169 375 201 q 398 119 386 137 q 431 94 411 101 q 484 87 452 87 q 540 94 504 87 q 608 118 576 101 l 625 20 m 237 712 q 148 800 187 751 q 109 891 109 848 q 130 948 109 929 q 181 968 152 968 q 232 949 213 968 q 251 901 251 930 q 239 863 251 880 q 206 838 228 847 q 238 795 220 815 q 282 755 256 776 l 237 712 m 537 909 l 380 712 l 316 759 l 451 970 l 537 909 "},"Ⱦ":{"x_min":25,"x_max":697.28125,"ha":695,"o":"m 379 393 l 379 0 l 265 0 l 265 213 l 98 -48 l 25 -1 l 265 377 l 265 762 l 29 762 l 29 859 l 570 859 l 622 940 l 697 893 l 379 393 m 379 556 l 508 762 l 379 762 l 379 556 "},"˙":{"x_min":263.90625,"x_max":430.59375,"ha":695,"o":"m 347 752 q 288 775 312 752 q 263 837 263 798 q 288 897 263 875 q 347 920 312 920 q 406 897 381 920 q 430 837 430 875 q 406 775 430 798 q 347 752 381 752 "},"":{"x_min":178.015625,"x_max":522.484375,"ha":695,"o":"m 316 -144 q 407 -124 383 -144 q 432 -72 432 -104 q 421 -36 432 -51 q 391 -12 409 -22 q 347 1 372 -2 q 296 5 322 5 l 272 5 l 272 76 l 303 76 q 339 79 321 76 q 373 90 358 83 q 399 110 389 98 q 409 142 409 123 q 387 186 409 173 q 328 199 364 199 q 266 188 294 199 q 216 166 237 176 l 184 234 q 246 262 204 248 q 330 276 289 276 q 458 240 421 276 q 496 145 496 204 q 428 47 496 85 q 497 1 472 33 q 522 -73 522 -29 q 475 -179 522 -136 q 318 -222 428 -222 q 239 -213 279 -222 q 178 -193 200 -204 l 196 -119 q 254 -137 223 -130 q 316 -144 284 -144 "},"„":{"x_min":58.34375,"x_max":636.15625,"ha":695,"o":"m 58 -102 q 145 -77 105 -93 q 202 -13 184 -62 q 142 17 162 -9 q 122 76 122 44 q 145 139 122 111 q 213 168 168 168 q 284 140 254 168 q 313 52 313 113 q 302 -25 313 12 q 263 -95 290 -63 q 190 -151 236 -127 q 77 -183 145 -175 l 58 -102 m 380 -102 q 426 -92 404 -97 q 468 -77 448 -87 q 502 -53 487 -68 q 526 -13 518 -38 q 466 17 486 -9 q 445 76 445 44 q 468 139 445 111 q 537 168 490 168 q 606 140 577 168 q 636 52 636 113 q 624 -25 636 12 q 585 -95 612 -63 q 513 -151 558 -127 q 400 -183 468 -175 l 380 -102 "},"ӷ":{"x_min":148.625,"x_max":611.15625,"ha":695,"o":"m 226 0 l 148 0 l 148 644 l 611 644 l 611 548 l 262 548 l 262 97 l 336 97 l 336 -179 l 226 -179 l 226 0 "},"δ":{"x_min":54.171875,"x_max":638.9375,"ha":695,"o":"m 354 566 q 218 474 265 541 q 170 313 170 406 q 180 226 170 268 q 211 152 190 184 q 265 102 231 120 q 347 83 298 83 q 425 100 391 83 q 479 148 458 118 q 511 220 501 179 q 522 306 522 261 q 506 404 522 363 q 467 476 491 445 q 413 528 443 506 q 354 566 383 550 m 263 625 q 187 700 216 658 q 158 788 158 741 q 220 919 158 876 q 391 962 283 962 q 510 945 459 962 q 584 918 561 929 l 559 829 q 538 839 552 833 q 502 852 523 845 q 454 864 480 859 q 397 869 427 869 q 359 867 380 869 q 317 857 337 865 q 284 835 297 850 q 270 795 270 820 q 303 736 270 762 q 391 672 336 711 q 486 604 441 638 q 564 528 530 570 q 618 431 598 486 q 638 301 638 376 q 622 186 638 243 q 572 84 607 129 q 481 11 537 38 q 345 -16 426 -16 q 215 9 270 -16 q 124 80 159 36 q 71 184 88 125 q 54 311 54 244 q 111 507 54 427 q 263 625 169 587 "},"Â":{"x_min":12.5,"x_max":682,"ha":695,"o":"m 561 0 l 509 225 l 179 225 l 129 0 l 12 0 q 65 198 36 91 q 128 418 94 305 q 200 643 162 530 q 279 859 237 757 l 420 859 q 497 643 461 757 q 567 418 534 530 q 629 198 600 305 q 682 0 658 91 l 561 0 m 345 759 q 276 556 313 672 q 205 319 238 441 l 483 319 q 414 560 451 444 q 345 759 377 676 m 347 1147 l 515 969 l 468 915 l 347 1023 l 226 915 l 179 969 l 347 1147 "},"Į":{"x_min":123.625,"x_max":570.875,"ha":695,"o":"m 404 762 l 404 97 l 570 97 l 570 0 l 405 0 q 351 -48 383 -16 q 322 -82 333 -68 q 311 -115 311 -97 q 361 -151 311 -151 q 383 -149 369 -151 q 411 -143 397 -147 l 420 -218 q 338 -231 388 -231 q 235 -206 268 -231 q 202 -137 202 -181 q 218 -82 202 -108 q 255 -33 233 -56 q 288 0 273 -11 l 123 0 l 123 97 l 290 97 l 290 762 l 123 762 l 123 859 l 570 859 l 570 762 l 404 762 "},"ω":{"x_min":50,"x_max":647.28125,"ha":695,"o":"m 475 -12 q 404 11 437 -12 q 348 86 370 34 q 292 11 326 34 q 222 -12 258 -12 q 140 9 173 -12 q 88 67 108 30 q 59 153 68 104 q 50 256 50 202 q 59 368 50 311 q 84 479 68 426 q 122 579 100 533 q 172 658 144 625 l 275 622 q 227 537 247 584 q 192 439 206 490 q 170 337 177 388 q 163 241 163 286 q 177 131 163 175 q 225 87 190 87 q 277 132 256 87 q 297 265 297 177 l 297 386 l 400 386 l 400 265 q 420 132 400 177 q 472 87 440 87 q 520 131 506 87 q 533 241 533 175 q 526 337 533 286 q 504 439 519 388 q 469 537 490 490 q 422 622 448 584 l 525 658 q 574 579 551 625 q 613 479 597 533 q 638 368 629 426 q 647 256 647 311 q 638 153 647 202 q 609 67 629 104 q 555 9 588 30 q 475 -12 522 -12 "},"´":{"x_min":236.125,"x_max":469.484375,"ha":695,"o":"m 469 888 l 294 719 l 236 770 l 394 962 l 469 888 "},"ǥ":{"x_min":55.5625,"x_max":669.5,"ha":695,"o":"m 456 59 q 401 36 438 48 q 315 23 363 23 q 213 42 261 23 q 131 99 166 61 q 75 196 95 137 q 55 336 55 255 q 74 466 55 406 q 129 568 93 525 q 219 635 166 611 q 341 659 272 659 q 476 647 420 659 q 570 625 531 636 l 570 381 l 669 381 l 669 297 l 570 297 l 570 50 q 498 -166 570 -100 q 279 -233 426 -233 q 172 -223 220 -233 q 88 -200 125 -213 l 109 -98 q 187 -123 144 -113 q 281 -133 230 -133 q 416 -93 375 -133 q 456 37 456 -52 l 456 59 m 456 297 l 331 297 l 331 381 l 456 381 l 456 543 q 413 553 440 548 q 343 558 387 558 q 216 497 259 558 q 173 334 173 436 q 186 239 173 279 q 219 174 198 200 q 267 136 240 148 q 325 125 294 125 q 399 137 363 125 q 456 166 434 150 l 456 297 "},"Ɛ":{"x_min":55.5625,"x_max":650.046875,"ha":695,"o":"m 505 405 l 447 405 q 339 398 390 405 q 251 373 288 391 q 191 322 213 355 q 169 240 169 290 q 229 117 169 154 q 388 80 290 80 q 526 100 468 80 q 615 136 584 120 l 650 44 q 609 27 634 37 q 551 6 584 16 q 477 -9 518 -2 q 388 -16 436 -16 q 252 -2 313 -16 q 146 41 190 11 q 79 120 102 72 q 55 237 55 168 q 70 325 55 287 q 112 390 86 362 q 173 436 138 418 q 245 463 208 454 q 132 540 170 487 q 94 652 94 593 q 115 752 94 709 q 173 821 136 794 q 263 861 211 848 q 376 875 315 875 q 452 870 415 875 q 520 859 488 866 q 577 843 552 852 q 619 823 602 833 l 581 733 q 498 763 554 748 q 376 777 443 777 q 254 742 301 777 q 208 650 208 707 q 231 577 208 605 q 292 531 255 548 q 373 509 329 515 q 459 502 418 502 l 505 502 l 505 405 "},"Ƈ":{"x_min":63.890625,"x_max":682,"ha":695,"o":"m 538 736 q 467 768 500 758 q 402 777 434 777 q 311 752 352 777 q 241 680 270 726 q 196 570 212 634 q 180 430 180 506 q 197 276 180 341 q 243 168 213 211 q 312 104 272 125 q 401 83 352 83 q 477 93 437 83 q 559 130 518 104 l 588 36 q 495 -4 544 8 q 388 -18 445 -18 q 259 9 319 -18 q 156 90 200 36 q 88 230 112 145 q 63 430 63 315 q 90 619 63 536 q 163 760 118 702 q 267 848 208 818 q 388 879 326 879 q 479 863 438 879 q 529 953 497 932 q 619 975 561 975 q 652 970 633 975 q 682 959 670 966 l 663 875 q 644 882 657 879 q 625 884 632 884 q 591 871 604 884 q 568 836 577 858 q 551 788 558 815 q 538 736 544 762 "},"Ĉ":{"x_min":63.890625,"x_max":638.9375,"ha":695,"o":"m 638 36 q 535 -4 590 8 q 418 -18 480 -18 q 277 9 341 -18 q 165 90 212 36 q 90 230 118 145 q 63 430 63 315 q 92 623 63 540 q 169 763 120 707 q 283 850 218 820 q 422 879 348 879 q 527 865 473 879 q 632 819 580 851 l 598 725 q 426 777 506 777 q 324 753 369 777 q 247 683 279 729 q 197 573 215 637 q 180 430 180 509 q 199 276 180 341 q 251 168 218 211 q 331 104 284 125 q 431 83 377 83 q 516 93 472 83 q 608 130 561 104 l 638 36 m 422 1147 l 590 969 l 543 915 l 422 1023 l 301 915 l 254 969 l 422 1147 "},"Љ":{"x_min":12.5,"x_max":663.9375,"ha":695,"o":"m 468 550 q 613 480 563 550 q 663 276 663 411 q 613 67 663 144 q 455 -9 562 -9 q 390 -4 423 -9 q 320 12 356 1 l 320 762 l 226 762 q 222 398 226 540 q 200 172 219 256 q 140 47 181 87 q 25 -12 100 6 l 12 88 q 59 113 40 97 q 90 163 77 130 q 109 248 102 195 q 119 384 116 301 q 122 583 122 466 q 123 859 123 700 l 423 859 l 423 547 q 445 549 434 548 q 468 550 456 550 m 465 87 q 535 129 513 87 q 556 276 556 170 q 531 408 556 363 q 458 452 505 452 q 423 448 440 452 l 423 94 q 445 88 434 90 q 465 87 456 87 "},"":{"x_min":145.84375,"x_max":533.375,"ha":695,"o":"m 470 266 l 470 -22 l 533 -22 l 533 -96 l 470 -96 l 470 -212 l 387 -212 l 387 -96 l 145 -96 l 145 -39 q 189 31 162 -8 q 250 113 216 72 q 319 195 283 155 q 391 266 355 235 l 470 266 m 387 163 q 308 74 348 123 q 238 -22 268 24 l 387 -22 l 387 163 "},"р":{"x_min":98.625,"x_max":638.9375,"ha":695,"o":"m 520 320 q 468 495 520 433 q 330 556 415 556 q 256 552 283 556 q 213 543 229 548 l 213 136 q 270 102 233 118 q 348 87 308 87 q 427 105 394 87 q 480 154 459 123 q 511 228 501 186 q 520 320 520 270 m 638 320 q 620 185 638 247 q 566 79 601 123 q 479 9 530 34 q 362 -15 427 -15 q 272 -2 311 -15 q 213 25 233 9 l 213 -229 l 98 -229 l 98 625 q 195 647 136 636 q 330 658 254 658 q 456 634 400 658 q 554 567 513 611 q 616 461 594 523 q 638 320 638 398 "},"т":{"x_min":80.5625,"x_max":613.9375,"ha":695,"o":"m 613 644 l 613 548 l 404 548 l 404 0 l 290 0 l 290 548 l 80 548 l 80 644 l 613 644 "},"П":{"x_min":62.5,"x_max":632,"ha":695,"o":"m 518 0 l 518 762 l 176 762 l 176 0 l 62 0 l 62 859 l 632 859 l 632 0 l 518 0 "},"Ö":{"x_min":40.28125,"x_max":655.609375,"ha":695,"o":"m 40 430 q 62 630 40 545 q 125 770 84 715 q 221 852 165 825 q 347 879 277 879 q 472 852 415 879 q 569 770 529 825 q 632 630 609 715 q 655 430 655 545 q 632 230 655 315 q 569 90 609 145 q 472 8 529 34 q 347 -18 415 -18 q 221 8 277 -18 q 125 90 165 34 q 62 230 84 145 q 40 430 40 315 m 156 430 q 202 170 156 261 q 344 80 248 80 q 490 170 441 80 q 538 430 538 261 q 490 690 538 600 q 344 780 441 780 q 202 690 248 780 q 156 430 156 600 m 229 956 q 179 977 201 956 q 156 1030 156 998 q 179 1082 156 1062 q 229 1102 201 1102 q 279 1082 258 1102 q 301 1030 301 1062 q 279 977 301 998 q 229 956 258 956 m 465 956 q 414 977 436 956 q 393 1030 393 998 q 414 1082 393 1062 q 465 1102 436 1102 q 516 1082 494 1102 q 537 1030 537 1062 q 516 977 537 998 q 465 956 494 956 "},"Θ":{"x_min":40.28125,"x_max":655.609375,"ha":695,"o":"m 243 481 l 454 481 l 454 383 l 243 383 l 243 481 m 40 430 q 62 630 40 545 q 125 770 84 715 q 221 852 165 825 q 347 879 277 879 q 472 852 415 879 q 569 770 529 825 q 632 630 609 715 q 655 430 655 545 q 632 230 655 315 q 569 90 609 145 q 472 8 529 34 q 347 -18 415 -18 q 221 8 277 -18 q 125 90 165 34 q 62 230 84 145 q 40 430 40 315 m 156 430 q 202 170 156 261 q 344 80 248 80 q 490 170 441 80 q 538 430 538 261 q 490 690 538 600 q 344 780 441 780 q 202 690 248 780 q 156 430 156 600 "},"Ř":{"x_min":76.390625,"x_max":643.109375,"ha":695,"o":"m 598 597 q 556 457 598 518 q 444 363 515 397 q 491 288 465 330 q 543 197 516 245 q 595 99 569 150 q 643 0 620 48 l 520 0 q 429 191 479 100 q 334 340 380 283 q 310 338 326 338 q 288 338 294 338 l 191 338 l 191 0 l 76 0 l 76 847 q 124 857 97 852 q 179 863 151 861 q 236 866 208 865 q 286 868 263 868 q 520 800 441 868 q 598 597 598 732 m 295 769 q 234 768 263 769 q 191 765 204 768 l 191 433 l 265 433 q 354 440 315 433 q 422 466 394 447 q 466 517 451 484 q 481 602 481 550 q 466 684 481 652 q 426 735 451 716 q 367 761 401 754 q 295 769 333 769 m 143 1097 l 190 1151 l 311 1043 l 432 1151 l 479 1097 l 311 919 l 143 1097 "},"ᾝ":{"x_min":-409.65625,"x_max":694.5,"ha":695,"o":"m 679 -12 q 599 5 630 -8 q 550 42 568 19 q 527 97 533 65 q 520 170 520 129 l 520 644 l 622 644 l 622 190 q 625 146 622 163 q 636 116 627 129 q 658 97 644 104 q 694 84 672 90 l 679 -12 m 331 859 l 434 859 l 434 0 l 331 0 l 331 400 l 163 400 l 163 0 l 62 0 l 62 859 l 163 859 l 163 497 l 331 497 l 331 859 m -281 625 q -370 713 -331 664 q -409 804 -409 761 q -388 861 -409 842 q -337 881 -366 881 q -286 862 -305 881 q -267 814 -267 843 q -279 776 -267 793 q -312 751 -290 760 q -280 708 -298 728 q -236 668 -262 689 l -281 625 m 18 822 l -138 625 l -202 672 l -67 883 l 18 822 "},"ƴ":{"x_min":26.390625,"x_max":677.828125,"ha":695,"o":"m 607 563 q 561 545 576 563 q 538 488 547 526 q 467 216 504 341 q 384 -19 430 91 q 336 -115 361 -75 q 280 -181 311 -155 q 212 -220 250 -208 q 126 -233 175 -233 q 68 -226 100 -233 q 26 -213 37 -219 l 47 -120 q 82 -131 61 -127 q 125 -136 104 -136 q 221 -106 186 -136 q 284 -8 256 -76 q 147 306 211 140 q 43 644 84 473 l 168 644 q 197 524 180 588 q 235 391 213 459 q 282 254 256 323 q 336 122 308 186 q 388 312 366 219 q 436 515 411 405 q 484 622 451 584 q 587 661 516 661 q 632 656 611 661 q 677 643 654 651 l 658 552 q 607 563 641 563 "},"É":{"x_min":126.40625,"x_max":638.9375,"ha":695,"o":"m 126 0 l 126 859 l 608 859 l 608 762 l 240 762 l 240 498 l 562 498 l 562 401 l 240 401 l 240 97 l 638 97 l 638 0 l 126 0 m 505 1078 l 330 909 l 272 960 l 430 1152 l 505 1078 "},"ұ":{"x_min":41.671875,"x_max":652.828125,"ha":695,"o":"m 652 644 q 550 347 608 488 q 436 84 493 206 l 573 84 l 573 0 l 402 0 l 402 -229 l 288 -229 l 288 0 l 119 0 l 119 84 l 256 84 q 142 348 198 206 q 41 644 86 490 l 166 644 q 204 514 183 583 q 250 378 226 445 q 300 247 275 311 q 350 134 326 184 q 397 247 372 184 q 448 378 423 311 q 495 514 473 445 q 533 644 516 583 l 652 644 "},"и":{"x_min":87.5,"x_max":608.375,"ha":695,"o":"m 608 644 l 608 0 l 495 0 l 495 491 q 417 380 458 444 q 335 249 376 316 q 256 116 294 181 q 190 0 219 51 l 87 0 l 87 644 l 198 644 l 198 180 q 268 297 230 234 q 345 424 305 361 q 426 545 386 487 q 505 644 466 602 l 608 644 "},"³":{"x_min":175.015625,"x_max":519.484375,"ha":695,"o":"m 313 458 q 404 478 380 458 q 429 530 429 498 q 418 566 429 551 q 388 590 406 580 q 344 604 369 600 q 293 608 319 608 l 269 608 l 269 679 l 300 679 q 336 682 318 679 q 370 693 355 686 q 396 713 386 701 q 406 745 406 726 q 384 789 406 776 q 325 802 361 802 q 263 791 291 802 q 213 769 234 779 l 181 837 q 243 865 201 851 q 327 879 286 879 q 455 843 418 879 q 493 748 493 807 q 425 650 493 688 q 494 604 469 636 q 519 529 519 573 q 472 423 519 466 q 315 380 425 380 q 236 389 276 380 q 175 409 197 398 l 193 483 q 251 465 220 472 q 313 458 281 458 "},"Ӫ":{"x_min":40.28125,"x_max":655.609375,"ha":695,"o":"m 40 430 q 62 630 40 545 q 125 770 84 715 q 222 852 166 825 q 348 879 279 879 q 472 852 416 879 q 570 770 529 825 q 633 630 611 715 q 655 430 655 545 q 633 230 655 315 q 570 90 611 145 q 472 8 529 34 q 348 -18 416 -18 q 222 8 279 -18 q 125 90 166 34 q 62 230 84 145 q 40 430 40 315 m 345 80 q 484 159 437 80 q 538 387 531 238 l 156 387 q 209 159 163 238 q 345 80 255 80 m 345 780 q 210 703 256 780 q 156 480 163 626 l 538 480 q 483 703 530 626 q 345 780 436 780 m 229 956 q 179 977 201 956 q 156 1030 156 998 q 179 1082 156 1062 q 229 1102 201 1102 q 279 1082 258 1102 q 301 1030 301 1062 q 279 977 301 998 q 229 956 258 956 m 465 956 q 414 977 436 956 q 393 1030 393 998 q 414 1082 393 1062 q 465 1102 436 1102 q 516 1082 494 1102 q 537 1030 537 1062 q 516 977 537 998 q 465 956 494 956 "},"[":{"x_min":198.625,"x_max":530.59375,"ha":695,"o":"m 198 970 l 530 970 l 530 880 l 306 880 l 306 -138 l 530 -138 l 530 -229 l 198 -229 l 198 970 "},"ζ":{"x_min":87.5,"x_max":620.890625,"ha":695,"o":"m 620 -65 q 602 -157 620 -113 q 561 -233 583 -201 l 461 -202 q 474 -179 466 -194 q 489 -147 481 -165 q 502 -111 497 -130 q 508 -76 508 -93 q 498 -41 508 -55 q 468 -18 488 -27 q 417 0 448 -8 q 341 13 386 6 q 226 45 275 25 q 147 100 177 66 q 102 180 116 133 q 87 291 87 227 q 106 411 87 352 q 156 525 125 470 q 226 629 187 580 q 305 721 265 679 q 384 797 345 763 q 450 857 422 832 l 123 857 l 123 954 l 598 954 l 598 863 q 528 803 569 838 q 443 725 487 768 q 357 631 400 682 q 281 525 315 580 q 226 412 247 470 q 205 295 205 354 q 251 164 205 205 q 400 108 297 123 q 503 84 461 98 q 571 48 545 69 q 609 0 597 27 q 620 -65 620 -27 "},"":{"x_min":18.0625,"x_max":651.4375,"ha":695,"o":"m 397 56 q 501 75 461 59 q 559 127 541 91 q 504 112 529 112 q 407 148 438 112 q 376 233 376 184 q 384 279 376 256 q 409 320 393 302 q 450 348 426 337 q 506 359 475 359 q 617 317 583 359 q 651 208 651 275 q 636 125 651 165 q 591 54 622 84 q 514 5 561 23 q 404 -12 468 -12 l 397 56 m 141 748 q 256 716 219 745 q 294 632 294 686 q 254 543 294 576 q 131 509 213 509 q 66 518 98 509 q 18 538 34 527 l 37 605 q 75 588 51 598 q 129 579 100 579 q 188 590 165 579 q 212 627 212 601 q 179 672 212 659 q 58 686 147 686 q 64 739 62 718 q 68 780 66 761 q 72 820 70 800 q 75 869 73 840 l 279 869 l 279 800 l 145 800 l 141 748 m 512 181 q 573 200 540 181 q 509 290 572 290 q 467 272 481 290 q 452 236 452 255 q 467 197 452 213 q 512 181 481 181 m 118 0 l 20 0 l 547 859 l 644 859 l 118 0 "},"ῇ":{"x_min":98.625,"x_max":600.046875,"ha":695,"o":"m 98 626 q 222 650 161 641 q 338 658 284 658 q 534 591 468 658 q 600 377 600 525 l 600 -229 l 486 -229 l 486 356 q 475 458 486 419 q 443 518 463 497 q 395 548 423 540 q 333 556 366 556 q 274 553 305 556 q 213 544 243 550 l 213 0 l 98 0 l 98 626 m 347 929 q 412 917 381 929 q 466 883 443 905 q 501 829 488 861 q 512 757 513 797 l 437 757 q 431 786 436 770 q 418 816 427 802 q 391 837 408 829 q 347 845 373 845 q 304 837 320 845 q 277 816 287 829 q 262 786 266 802 q 256 757 258 770 l 181 757 q 193 829 180 797 q 228 883 205 861 q 281 917 251 905 q 347 929 312 929 m 213 -80 q 226 -140 213 -120 q 285 -161 239 -161 l 306 -161 l 306 -227 q 248 -236 274 -236 q 141 -202 184 -236 q 99 -90 99 -169 q 100 -77 99 -84 q 102 -62 101 -69 l 213 -62 l 213 -80 "},"Ἅ":{"x_min":-219.65625,"x_max":682,"ha":695,"o":"m 561 0 l 509 225 l 179 225 l 129 0 l 12 0 q 65 198 36 91 q 128 418 94 305 q 200 643 162 530 q 279 859 237 757 l 420 859 q 497 643 461 757 q 567 418 534 530 q 629 198 600 305 q 682 0 658 91 l 561 0 m 345 759 q 276 556 313 672 q 205 319 238 441 l 483 319 q 414 560 451 444 q 345 759 377 676 m -91 625 q -180 713 -141 664 q -219 804 -219 761 q -198 861 -219 842 q -147 881 -176 881 q -96 862 -115 881 q -77 814 -77 843 q -89 776 -77 793 q -122 751 -100 760 q -90 708 -108 728 q -46 668 -72 689 l -91 625 m 208 822 l 51 625 l -12 672 l 122 883 l 208 822 "},"Ρ":{"x_min":101.390625,"x_max":632,"ha":695,"o":"m 326 868 q 552 799 473 868 q 632 594 632 730 q 547 382 632 445 q 315 319 462 319 l 215 319 l 215 0 l 101 0 l 101 845 q 156 856 126 851 q 215 863 186 861 q 274 866 245 865 q 326 868 302 868 m 334 769 q 265 768 298 769 q 215 763 231 766 l 215 416 l 309 416 q 393 425 355 416 q 457 454 430 433 q 500 509 484 475 q 515 595 515 543 q 500 679 515 645 q 459 733 484 713 q 402 761 434 752 q 334 769 369 769 "},"ῌ":{"x_min":62.5,"x_max":694.5,"ha":695,"o":"m 679 -12 q 599 5 630 -8 q 550 42 568 19 q 527 97 533 65 q 520 170 520 129 l 520 644 l 622 644 l 622 190 q 625 146 622 163 q 636 116 627 129 q 658 97 644 104 q 694 84 672 90 l 679 -12 m 331 859 l 434 859 l 434 0 l 331 0 l 331 400 l 163 400 l 163 0 l 62 0 l 62 859 l 163 859 l 163 497 l 331 497 l 331 859 "},"ᾎ":{"x_min":-222.046875,"x_max":694.5,"ha":695,"o":"m 330 225 l 147 225 l 116 0 l 12 0 q 45 198 27 91 q 81 418 62 305 q 124 643 101 530 q 172 859 147 757 l 313 859 q 361 643 338 757 q 402 418 383 530 q 438 198 422 305 q 470 0 455 91 l 362 0 l 330 225 m 679 -12 q 599 5 630 -8 q 550 42 568 19 q 527 97 533 65 q 520 170 520 129 l 520 644 l 622 644 l 622 190 q 625 146 622 163 q 636 116 627 129 q 658 97 644 104 q 694 84 672 90 l 679 -12 m 238 759 q 224 689 231 727 q 207 599 216 651 q 186 479 198 547 q 161 319 175 411 l 316 319 q 290 481 302 412 q 270 601 279 550 q 252 691 261 652 q 238 759 244 729 m -155 623 q -85 686 -105 659 q -110 711 -101 697 q -120 741 -120 725 q -104 782 -120 763 q -53 801 -88 801 q -6 783 -24 801 q 12 729 12 765 q 0 684 12 705 q -31 643 -12 662 q -74 609 -51 625 q -120 580 -98 593 l -155 623 m -56 961 q 5 951 -24 961 q 57 922 34 941 q 94 874 80 902 q 108 808 108 845 l 108 805 l 41 805 q 15 859 39 834 q -56 884 -8 884 q -128 859 -105 884 q -155 805 -152 834 l -222 805 l -222 808 q -208 874 -222 845 q -171 922 -194 902 q -118 951 -148 941 q -56 961 -88 961 "},"ª":{"x_min":163.90625,"x_max":533.375,"ha":695,"o":"m 359 484 q 413 486 387 484 q 447 490 440 487 l 447 613 q 412 618 433 616 q 372 619 391 619 q 329 616 351 619 q 290 606 308 613 q 261 586 272 600 q 250 552 250 573 q 279 500 250 516 q 359 484 308 484 m 351 875 q 493 827 452 875 q 533 702 533 780 l 533 425 q 452 413 502 418 q 351 408 402 408 q 216 441 269 408 q 163 552 163 475 q 179 618 163 591 q 223 662 195 645 q 286 686 251 679 q 362 694 322 694 q 400 693 380 694 q 447 688 420 691 l 447 691 q 443 728 447 709 q 429 761 440 747 q 397 785 418 776 q 345 794 377 794 q 283 791 316 794 q 225 779 250 787 l 212 857 q 273 869 236 863 q 351 875 311 875 "},"Ἓ":{"x_min":-321.15625,"x_max":638.9375,"ha":695,"o":"m 126 0 l 126 859 l 608 859 l 608 762 l 240 762 l 240 498 l 562 498 l 562 401 l 240 401 l 240 97 l 638 97 l 638 0 l 126 0 m -193 625 q -282 713 -243 664 q -321 804 -321 761 q -299 861 -321 842 q -248 881 -278 881 q -198 862 -216 881 q -179 814 -179 843 q -190 776 -179 793 q -223 751 -201 760 q -191 708 -210 728 q -147 668 -173 689 l -193 625 m -54 883 l 81 672 l 16 625 l -139 822 l -54 883 "},"ї":{"x_min":75,"x_max":625.046875,"ha":695,"o":"m 261 548 l 75 548 l 75 644 l 375 644 l 375 248 q 401 120 375 152 q 480 87 427 87 q 554 97 520 87 q 608 118 588 106 l 625 20 q 601 10 616 16 q 566 -1 586 4 q 521 -11 545 -6 q 470 -15 497 -15 q 369 1 409 -15 q 304 51 329 18 q 270 134 280 84 q 261 248 261 183 l 261 548 m 179 763 q 129 784 151 763 q 106 837 106 805 q 129 889 106 869 q 179 909 151 909 q 229 889 208 909 q 251 837 251 869 q 229 784 251 805 q 179 763 208 763 m 415 763 q 364 784 386 763 q 343 837 343 805 q 364 889 343 869 q 415 909 386 909 q 466 889 444 909 q 487 837 487 869 q 466 784 487 805 q 415 763 444 763 "},"š":{"x_min":91.671875,"x_max":602.828125,"ha":695,"o":"m 487 161 q 459 218 487 195 q 388 256 430 240 q 295 289 345 273 q 203 329 245 305 q 132 387 161 352 q 104 477 104 422 q 167 607 104 555 q 365 659 230 659 q 474 652 418 659 q 570 632 530 644 l 550 529 q 519 541 538 534 q 475 552 500 547 q 421 559 450 556 q 366 562 393 562 q 216 480 216 562 q 245 431 216 451 q 316 394 273 411 q 409 360 359 377 q 502 318 459 343 q 574 257 545 293 q 602 168 602 222 q 534 32 602 80 q 319 -15 466 -15 q 197 -4 252 -15 q 91 29 141 6 l 113 133 q 215 96 162 111 q 330 81 269 81 q 487 161 487 81 m 193 904 l 240 958 l 361 850 l 482 958 l 529 904 l 361 726 l 193 904 "},"₮":{"x_min":45.84375,"x_max":647.28125,"ha":695,"o":"m 647 859 l 647 759 l 402 759 l 402 570 l 547 638 l 584 561 l 402 475 l 402 331 l 547 400 l 584 322 l 402 237 l 402 0 l 290 0 l 290 190 l 145 122 l 109 201 l 290 284 l 290 427 l 145 361 l 109 438 l 290 523 l 290 759 l 45 759 l 45 859 l 647 859 "},"Ƕ":{"x_min":50,"x_max":647.28125,"ha":695,"o":"m 300 859 l 409 859 l 409 272 q 413 174 409 212 q 424 114 416 136 q 443 85 431 93 q 472 77 455 77 q 501 85 488 77 q 522 114 513 93 q 534 174 530 136 q 538 272 538 212 l 538 644 l 647 644 l 647 272 q 639 149 647 202 q 612 58 632 95 q 559 1 593 20 q 472 -18 525 -18 q 386 1 419 -18 q 333 58 352 20 q 306 149 313 95 q 300 272 300 202 l 300 400 l 158 400 l 158 0 l 50 0 l 50 859 l 158 859 l 158 497 l 300 497 l 300 859 "},"1":{"x_min":104.171875,"x_max":608.375,"ha":695,"o":"m 104 682 q 241 752 175 709 q 365 859 308 794 l 445 859 l 445 97 l 608 97 l 608 0 l 145 0 l 145 97 l 331 97 l 331 700 q 295 671 316 686 q 247 643 273 657 q 194 616 222 629 q 140 595 166 604 l 104 682 "},"ҍ":{"x_min":25,"x_max":638.9375,"ha":695,"o":"m 25 591 l 125 591 l 125 677 l 238 677 l 238 591 l 458 591 l 458 511 l 238 511 l 238 398 q 265 402 248 400 q 304 407 283 405 q 346 411 325 409 q 384 412 368 412 q 480 400 434 412 q 561 363 526 388 q 618 298 597 338 q 638 202 638 258 q 618 103 638 144 q 561 36 598 62 q 475 -2 525 9 q 365 -13 425 -13 q 241 -7 304 -13 q 125 13 179 -1 l 125 511 l 25 511 l 25 591 m 370 80 q 481 109 437 80 q 525 201 525 137 q 511 254 525 231 q 477 290 498 276 q 427 312 455 305 q 370 319 400 319 q 301 317 340 319 q 238 308 262 315 l 238 87 q 262 84 247 86 q 296 82 277 83 q 335 81 315 81 q 370 80 355 80 "},"ℓ":{"x_min":73.609375,"x_max":595.875,"ha":695,"o":"m 200 316 l 200 675 q 216 816 200 759 q 261 904 233 872 q 326 949 288 936 q 404 962 363 962 q 489 943 456 962 q 541 892 522 923 q 566 823 559 861 q 572 750 572 786 q 501 509 572 618 q 313 302 430 400 l 313 248 q 343 121 313 161 q 434 81 372 81 q 501 97 475 81 q 550 127 527 112 l 595 41 q 519 -2 563 13 q 415 -18 475 -18 q 312 0 354 -18 q 245 49 270 18 q 210 121 220 80 q 200 206 200 162 l 200 216 l 118 158 l 73 225 l 200 316 m 313 405 q 437 561 393 477 q 481 751 481 645 q 479 793 481 772 q 468 830 476 813 q 445 857 459 847 q 406 868 430 868 q 370 861 387 868 q 341 833 354 854 q 321 775 329 812 q 313 679 313 738 l 313 405 "},"Ǜ":{"x_min":66.671875,"x_max":627.828125,"ha":695,"o":"m 347 -18 q 217 4 270 -18 q 130 66 163 26 q 81 165 97 106 q 66 295 66 223 l 66 859 l 180 859 l 180 308 q 192 199 180 243 q 225 129 204 155 q 277 91 247 102 q 347 80 308 80 q 416 91 386 80 q 468 129 447 102 q 502 199 490 155 q 513 308 513 243 l 513 859 l 627 859 l 627 295 q 612 165 627 223 q 563 66 597 106 q 477 4 530 26 q 347 -18 423 -18 m 313 1152 l 411 1004 l 355 957 l 238 1088 l 313 1152 m 179 912 q 130 931 150 912 q 111 980 111 950 q 130 1030 111 1012 q 179 1048 150 1048 q 226 1030 206 1048 q 245 980 245 1012 q 226 931 245 950 q 179 912 206 912 m 515 912 q 468 931 487 912 q 448 980 448 950 q 468 1030 448 1012 q 515 1048 487 1048 q 563 1030 543 1048 q 583 980 583 1012 q 563 931 583 950 q 515 912 543 912 "},"ǒ":{"x_min":55.5625,"x_max":638.9375,"ha":695,"o":"m 638 322 q 617 184 638 245 q 556 77 595 122 q 463 9 518 33 q 345 -15 409 -15 q 229 9 283 -15 q 137 77 176 33 q 77 184 98 122 q 55 322 55 245 q 77 461 55 398 q 137 567 98 523 q 229 635 176 611 q 345 659 283 659 q 463 635 409 659 q 556 567 518 611 q 617 461 595 523 q 638 322 638 398 m 520 322 q 473 495 520 431 q 345 558 426 558 q 220 495 266 558 q 173 322 173 431 q 220 150 173 213 q 345 87 266 87 q 473 150 426 87 q 520 322 520 213 m 179 904 l 226 958 l 347 850 l 468 958 l 515 904 l 347 726 l 179 904 "},"ἥ":{"x_min":98.625,"x_max":600.046875,"ha":695,"o":"m 98 626 q 222 650 161 641 q 338 658 284 658 q 534 591 468 658 q 600 377 600 525 l 600 -229 l 486 -229 l 486 356 q 475 458 486 419 q 443 518 463 497 q 395 548 423 540 q 333 556 366 556 q 274 553 305 556 q 213 544 243 550 l 213 0 l 98 0 l 98 626 m 286 712 q 197 800 236 751 q 158 891 158 848 q 179 948 158 929 q 230 968 201 968 q 281 949 262 968 q 300 901 300 930 q 288 863 300 880 q 255 838 277 847 q 287 795 269 815 q 331 755 305 776 l 286 712 m 586 909 l 429 712 l 365 759 l 500 970 l 586 909 "},"ӡ":{"x_min":61.109375,"x_max":598.65625,"ha":695,"o":"m 213 272 q 270 341 240 302 q 330 416 301 379 q 385 488 359 454 q 427 548 411 523 l 88 548 l 88 644 l 570 644 l 570 577 q 528 513 554 550 q 472 436 502 476 q 409 355 441 395 q 345 280 376 315 q 444 257 398 273 q 525 213 490 241 q 579 142 559 184 q 598 38 598 100 q 575 -78 598 -27 q 509 -162 552 -129 q 406 -212 466 -195 q 275 -229 347 -229 q 149 -218 206 -229 q 61 -191 91 -206 l 86 -94 q 164 -119 113 -108 q 273 -130 215 -130 q 427 -85 375 -130 q 480 40 480 -40 q 459 119 480 88 q 404 167 438 150 q 325 190 369 184 q 234 197 281 197 l 213 197 l 213 272 "},"ī":{"x_min":75,"x_max":625.046875,"ha":695,"o":"m 261 548 l 75 548 l 75 644 l 375 644 l 375 248 q 401 120 375 152 q 480 87 427 87 q 554 97 520 87 q 608 118 588 106 l 625 20 q 601 10 616 16 q 566 -1 586 4 q 521 -11 545 -6 q 470 -15 497 -15 q 369 1 409 -15 q 304 51 329 18 q 270 134 280 84 q 261 248 261 183 l 261 548 m 121 882 l 474 882 l 474 793 l 121 793 l 121 882 "},"ӹ":{"x_min":62.5,"x_max":632,"ha":695,"o":"m 250 319 q 207 317 227 319 q 170 308 187 315 l 170 87 q 205 82 181 84 q 247 80 229 80 q 321 109 293 80 q 350 201 350 137 q 318 291 350 263 q 250 319 286 319 m 62 644 l 170 644 l 170 398 q 211 407 186 402 q 265 412 237 412 q 339 400 304 412 q 402 363 375 388 q 445 298 429 338 q 461 202 461 258 q 400 36 461 86 q 244 -13 340 -13 q 152 -7 195 -13 q 62 13 108 -1 l 62 644 m 632 0 l 523 0 l 523 644 l 632 644 l 632 0 m 229 763 q 179 784 201 763 q 156 837 156 805 q 179 889 156 869 q 229 909 201 909 q 279 889 258 909 q 301 837 301 869 q 279 784 301 805 q 229 763 258 763 m 465 763 q 414 784 436 763 q 393 837 393 805 q 414 889 393 869 q 465 909 436 909 q 516 889 494 909 q 537 837 537 869 q 516 784 537 805 q 465 763 494 763 "},"G":{"x_min":63.890625,"x_max":632,"ha":695,"o":"m 518 423 l 632 423 l 632 20 q 547 -3 605 11 q 409 -18 488 -18 q 268 11 331 -18 q 159 98 204 41 q 88 239 113 155 q 63 430 63 323 q 91 622 63 538 q 167 762 119 705 q 279 849 215 819 q 416 879 343 879 q 500 872 463 879 q 561 855 536 865 q 604 835 587 845 q 629 819 620 825 l 591 723 q 516 764 559 748 q 423 780 472 780 q 325 755 370 780 q 248 684 280 730 q 198 574 216 638 q 180 430 180 509 q 196 288 180 352 q 243 179 212 225 q 318 107 273 133 q 422 81 363 81 q 484 87 462 81 q 518 98 506 93 l 518 423 "},"`":{"x_min":226.40625,"x_max":458.375,"ha":695,"o":"m 300 962 l 458 770 l 400 719 l 226 888 l 300 962 "},"╔":{"x_min":180.5625,"x_max":694.5,"ha":695,"o":"m 694 291 l 513 291 l 513 -236 l 402 -236 l 402 402 l 694 402 l 694 291 m 694 513 l 291 513 l 291 -236 l 180 -236 l 180 625 l 694 625 l 694 513 "},"ŏ":{"x_min":55.5625,"x_max":638.9375,"ha":695,"o":"m 638 322 q 617 184 638 245 q 556 77 595 122 q 463 9 518 33 q 345 -15 409 -15 q 229 9 283 -15 q 137 77 176 33 q 77 184 98 122 q 55 322 55 245 q 77 461 55 398 q 137 567 98 523 q 229 635 176 611 q 345 659 283 659 q 463 635 409 659 q 556 567 518 611 q 617 461 595 523 q 638 322 638 398 m 520 322 q 473 495 520 431 q 345 558 426 558 q 220 495 266 558 q 173 322 173 431 q 220 150 173 213 q 345 87 266 87 q 473 150 426 87 q 520 322 520 213 m 347 757 q 281 768 312 757 q 228 802 251 780 q 193 855 205 823 q 181 929 180 887 l 256 929 q 262 899 258 915 q 277 870 266 883 q 304 848 287 857 q 347 840 320 840 q 391 848 373 840 q 418 870 408 857 q 431 899 427 883 q 437 929 436 915 l 512 929 q 501 855 513 887 q 466 802 488 823 q 412 768 443 780 q 347 757 381 757 "},"ý":{"x_min":50,"x_max":640.328125,"ha":695,"o":"m 70 -120 q 106 -131 83 -127 q 148 -136 129 -136 q 254 -106 216 -136 q 325 -8 293 -76 q 179 307 247 138 q 66 644 111 476 l 191 644 q 224 524 205 588 q 266 391 243 459 q 317 254 290 323 q 375 123 344 186 q 416 250 397 187 q 452 375 436 312 q 486 504 469 438 q 520 644 502 570 l 640 644 q 541 294 595 463 q 423 -19 486 125 q 372 -115 400 -75 q 313 -181 345 -155 q 241 -220 281 -208 q 150 -233 201 -233 q 92 -226 123 -233 q 50 -213 61 -219 l 70 -120 m 490 888 l 315 719 l 257 770 l 415 962 l 490 888 "},"º":{"x_min":123.625,"x_max":570.875,"ha":695,"o":"m 570 643 q 554 545 570 588 q 507 471 537 502 q 436 423 477 440 q 347 406 395 406 q 257 423 298 406 q 186 471 216 440 q 140 545 156 502 q 123 643 123 588 q 140 740 123 697 q 186 813 156 783 q 257 861 216 844 q 347 877 298 877 q 436 861 395 877 q 507 813 477 844 q 554 740 537 783 q 570 643 570 697 m 479 643 q 445 754 479 713 q 347 794 411 794 q 250 754 284 794 q 215 643 215 713 q 249 531 215 573 q 347 490 283 490 q 445 531 411 490 q 479 643 479 573 "},"╝":{"x_min":0,"x_max":513.9375,"ha":695,"o":"m 0 625 l 180 625 l 180 1152 l 291 1152 l 291 513 l 0 513 l 0 625 m 0 402 l 402 402 l 402 1152 l 513 1152 l 513 291 l 0 291 l 0 402 "},"ȑ":{"x_min":114.90625,"x_max":608.375,"ha":695,"o":"m 148 0 l 148 609 q 434 658 290 658 q 519 654 479 658 q 608 640 559 651 l 587 538 q 509 554 543 551 q 434 558 475 558 q 262 534 350 558 l 262 0 l 148 0 m 388 962 l 531 763 l 471 719 l 319 893 l 388 962 m 184 962 l 327 763 l 267 719 l 114 893 l 184 962 "},"Ί":{"x_min":-170.875,"x_max":570.875,"ha":695,"o":"m 404 762 l 404 97 l 570 97 l 570 0 l 123 0 l 123 97 l 290 97 l 290 762 l 123 762 l 123 859 l 570 859 l 570 762 l 404 762 m 62 801 l -112 632 l -170 683 l -12 875 l 62 801 "},"ӛ":{"x_min":62.5,"x_max":638.9375,"ha":695,"o":"m 334 -15 q 133 65 204 -15 q 62 312 62 147 q 62 331 62 319 q 63 354 62 344 l 518 354 q 455 506 511 454 q 291 558 400 558 q 187 547 230 558 q 122 527 144 537 l 106 623 q 181 647 127 634 q 304 659 236 659 q 450 634 387 659 q 555 563 513 608 q 618 457 597 519 q 638 323 638 395 q 612 174 638 237 q 543 68 586 111 q 445 5 500 26 q 334 -15 390 -15 m 181 261 q 222 131 180 181 q 336 81 265 81 q 407 97 376 81 q 461 137 438 112 q 497 195 484 162 q 515 261 511 227 l 181 261 m 218 763 q 168 784 190 763 q 145 837 145 805 q 168 889 145 869 q 218 909 190 909 q 268 889 247 909 q 290 837 290 869 q 268 784 290 805 q 218 763 247 763 m 454 763 q 403 784 425 763 q 382 837 382 805 q 403 889 382 869 q 454 909 425 909 q 505 889 483 909 q 526 837 526 869 q 505 784 526 805 q 454 763 483 763 "},"ń":{"x_min":98.625,"x_max":600.046875,"ha":695,"o":"m 98 626 q 222 650 161 641 q 338 658 284 658 q 534 591 468 658 q 600 377 600 525 l 600 0 l 486 0 l 486 356 q 475 458 486 419 q 443 518 463 497 q 395 548 423 540 q 333 556 366 556 q 274 553 305 556 q 213 544 243 550 l 213 0 l 98 0 l 98 626 m 482 888 l 307 719 l 249 770 l 407 962 l 482 888 "},"ἒ":{"x_min":95.84375,"x_max":647.28125,"ha":695,"o":"m 401 661 q 465 658 433 661 q 524 650 497 655 q 572 640 551 645 q 602 630 593 634 l 584 531 q 559 540 577 534 q 514 550 540 545 q 459 559 488 555 q 404 563 430 563 q 283 543 330 563 q 236 473 236 522 q 248 426 236 444 q 281 398 261 408 q 326 385 301 388 q 376 381 351 381 l 500 381 l 500 290 l 375 290 q 313 285 343 290 q 262 268 284 280 q 226 235 240 255 q 212 186 212 215 q 394 84 212 84 q 468 89 431 84 q 533 101 504 94 q 584 115 562 108 q 616 129 605 123 l 647 31 q 552 2 623 19 q 380 -15 481 -15 q 284 -7 334 -15 q 191 21 233 0 q 122 81 150 43 q 95 180 95 119 q 126 273 95 230 q 208 338 156 316 q 179 355 194 344 q 150 384 163 366 q 128 424 137 401 q 119 476 119 447 q 195 615 119 569 q 401 661 272 661 m 183 755 q 227 795 209 776 q 259 838 245 815 q 226 863 237 847 q 215 901 215 880 q 234 949 215 930 q 284 968 252 968 q 335 948 313 968 q 356 891 356 929 q 345 847 356 870 q 317 800 334 823 q 277 753 300 776 q 229 712 254 730 l 183 755 m 475 970 l 611 759 l 545 712 l 390 909 l 475 970 "},"ἑ":{"x_min":95.84375,"x_max":647.28125,"ha":695,"o":"m 401 661 q 465 658 433 661 q 524 650 497 655 q 572 640 551 645 q 602 630 593 634 l 584 531 q 559 540 577 534 q 514 550 540 545 q 459 559 488 555 q 404 563 430 563 q 283 543 330 563 q 236 473 236 522 q 248 426 236 444 q 281 398 261 408 q 326 385 301 388 q 376 381 351 381 l 500 381 l 500 290 l 375 290 q 313 285 343 290 q 262 268 284 280 q 226 235 240 255 q 212 186 212 215 q 394 84 212 84 q 468 89 431 84 q 533 101 504 94 q 584 115 562 108 q 616 129 605 123 l 647 31 q 552 2 623 19 q 380 -15 481 -15 q 284 -7 334 -15 q 191 21 233 0 q 122 81 150 43 q 95 180 95 119 q 126 273 95 230 q 208 338 156 316 q 179 355 194 344 q 150 384 163 366 q 128 424 137 401 q 119 476 119 447 q 195 615 119 569 q 401 661 272 661 m 404 712 q 352 752 376 730 q 310 799 328 775 q 281 847 292 823 q 269 891 269 870 q 292 948 269 929 q 346 968 314 968 q 398 949 378 968 q 418 901 418 930 q 371 838 418 857 q 404 795 385 815 q 449 755 424 776 l 404 712 "},"Ь":{"x_min":62.5,"x_max":638.9375,"ha":695,"o":"m 638 269 q 547 61 638 130 q 279 -8 456 -8 q 170 -4 227 -8 q 62 12 113 0 l 62 859 l 176 859 l 176 547 q 223 550 200 550 q 272 550 247 550 q 550 480 461 550 q 638 269 638 411 m 522 269 q 503 357 522 322 q 451 414 484 393 q 370 445 418 436 q 268 454 323 454 q 222 454 244 454 q 176 451 200 454 l 176 91 q 223 88 197 88 q 288 87 250 87 q 377 96 334 87 q 451 127 419 105 q 502 183 483 148 q 522 269 522 218 "},"ƽ":{"x_min":80.5625,"x_max":605.609375,"ha":695,"o":"m 605 194 q 533 43 605 101 q 322 -15 461 -15 q 252 -11 287 -15 q 186 0 216 -6 q 133 11 155 5 q 102 20 111 16 l 123 118 q 150 108 130 113 q 196 96 169 102 q 255 86 223 90 q 319 81 287 81 q 444 108 398 81 q 490 194 490 134 q 427 286 490 259 q 220 312 363 312 l 158 312 q 172 438 166 383 q 181 552 179 493 l 80 552 l 80 644 l 579 644 l 579 552 l 281 552 l 268 401 l 294 401 q 418 390 361 401 q 516 354 475 379 q 581 289 558 329 q 605 194 605 250 "},"ᾯ":{"x_min":-297.046875,"x_max":694.5,"ha":695,"o":"m 213 0 l 25 0 l 25 97 l 118 97 q 84 172 100 127 q 57 270 69 218 q 39 379 45 323 q 33 490 33 436 q 45 640 33 569 q 81 763 56 711 q 144 847 105 816 q 237 879 183 879 q 329 847 291 879 q 392 763 368 816 q 428 641 416 711 q 440 491 440 570 q 433 380 440 437 q 415 270 426 323 q 388 172 404 218 q 355 97 373 127 l 445 97 l 445 0 l 259 0 l 259 83 q 290 156 276 112 q 316 253 305 201 q 332 361 326 305 q 338 469 338 416 q 334 591 338 534 q 318 690 329 648 q 287 756 306 732 q 237 780 268 780 q 187 756 206 780 q 156 690 168 732 q 139 591 144 648 q 134 469 134 534 q 140 361 134 416 q 157 253 147 305 q 182 156 168 201 q 213 83 197 112 l 213 0 m 679 -12 q 599 5 630 -8 q 550 42 568 19 q 527 97 533 65 q 520 170 520 129 l 520 644 l 622 644 l 622 190 q 625 146 622 163 q 636 116 627 129 q 658 97 644 104 q 694 84 672 90 l 679 -12 m -67 580 q -113 609 -90 593 q -156 643 -137 625 q -188 684 -176 662 q -201 729 -201 705 q -181 783 -201 765 q -134 801 -162 801 q -83 782 -99 801 q -67 741 -67 763 q -77 711 -67 725 q -102 686 -87 697 q -33 623 -83 659 l -67 580 m -131 961 q -69 951 -99 961 q -17 922 -40 941 q 19 874 5 902 q 33 808 33 845 l 33 805 l -33 805 q -59 859 -35 834 q -131 884 -83 884 q -203 859 -180 884 q -230 805 -227 834 l -297 805 l -297 808 q -283 874 -297 845 q -246 922 -269 902 q -193 951 -223 941 q -131 961 -163 961 "},"¤":{"x_min":52.78125,"x_max":643.109375,"ha":695,"o":"m 108 430 q 143 562 108 506 l 52 654 l 123 725 l 215 632 q 347 668 275 668 q 477 632 418 668 l 570 725 l 643 654 l 550 562 q 586 430 586 506 q 577 358 586 390 q 550 298 568 326 l 643 206 l 570 134 l 477 226 q 347 191 418 191 q 215 226 272 191 l 123 134 l 52 206 l 143 297 q 108 430 108 352 m 493 430 q 450 543 493 501 q 347 584 406 584 q 244 543 287 584 q 201 430 201 501 q 244 318 201 359 q 347 276 287 276 q 450 318 406 276 q 493 430 493 359 "},"Ǣ":{"x_min":37.5,"x_max":669.5,"ha":695,"o":"m 365 0 l 365 225 l 201 225 l 150 0 l 37 0 q 163 453 100 241 q 304 859 227 665 l 651 859 l 651 762 l 473 762 l 473 498 l 619 498 l 619 401 l 473 401 l 473 97 l 669 97 l 669 0 l 365 0 m 365 786 q 291 543 326 663 q 226 319 255 422 l 365 319 l 365 786 m 294 1075 l 647 1075 l 647 986 l 294 986 l 294 1075 "},"Ɨ":{"x_min":123.625,"x_max":570.875,"ha":695,"o":"m 404 762 l 404 493 l 530 493 l 530 402 l 404 402 l 404 97 l 570 97 l 570 0 l 123 0 l 123 97 l 290 97 l 290 402 l 162 402 l 162 493 l 290 493 l 290 762 l 123 762 l 123 859 l 570 859 l 570 762 l 404 762 "},"p":{"x_min":98.625,"x_max":638.9375,"ha":695,"o":"m 520 320 q 468 495 520 433 q 330 556 415 556 q 256 552 283 556 q 213 543 229 548 l 213 136 q 270 102 233 118 q 348 87 308 87 q 427 105 394 87 q 480 154 459 123 q 511 228 501 186 q 520 320 520 270 m 638 320 q 620 185 638 247 q 566 79 601 123 q 479 9 530 34 q 362 -15 427 -15 q 272 -2 311 -15 q 213 25 233 9 l 213 -229 l 98 -229 l 98 625 q 195 647 136 636 q 330 658 254 658 q 456 634 400 658 q 554 567 513 611 q 616 461 594 523 q 638 320 638 398 "},"Ἤ":{"x_min":-383.765625,"x_max":632,"ha":695,"o":"m 518 859 l 632 859 l 632 0 l 518 0 l 518 400 l 176 400 l 176 0 l 62 0 l 62 859 l 176 859 l 176 497 l 518 497 l 518 859 m -383 668 q -340 708 -358 689 q -307 751 -322 728 q -340 776 -329 760 q -351 814 -351 793 q -333 862 -351 843 q -282 881 -314 881 q -232 861 -253 881 q -211 804 -211 842 q -221 760 -211 783 q -250 713 -232 736 q -291 666 -268 689 q -339 625 -314 643 l -383 668 m 16 822 l -140 625 l -204 672 l -69 883 l 16 822 "},"ο":{"x_min":55.5625,"x_max":638.9375,"ha":695,"o":"m 638 322 q 617 184 638 245 q 556 77 595 122 q 463 9 518 33 q 345 -15 409 -15 q 229 9 283 -15 q 137 77 176 33 q 77 184 98 122 q 55 322 55 245 q 77 461 55 398 q 137 567 98 523 q 229 635 176 611 q 345 659 283 659 q 463 635 409 659 q 556 567 518 611 q 617 461 595 523 q 638 322 638 398 m 520 322 q 473 495 520 431 q 345 558 426 558 q 220 495 266 558 q 173 322 173 431 q 220 150 173 213 q 345 87 266 87 q 473 150 426 87 q 520 322 520 213 "},"ɉ":{"x_min":98.625,"x_max":640.328125,"ha":695,"o":"m 427 744 q 365 769 391 744 q 338 837 338 794 q 365 905 338 880 q 427 930 391 930 q 491 905 465 930 q 516 837 516 880 q 491 769 516 794 q 427 744 465 744 m 158 548 l 158 644 l 533 644 l 533 384 l 640 384 l 640 297 l 533 297 l 533 6 q 514 -106 533 -59 q 464 -181 495 -152 q 392 -223 433 -211 q 305 -236 351 -236 q 199 -225 252 -236 q 98 -190 145 -213 l 133 -93 q 210 -121 168 -109 q 291 -133 252 -133 q 383 -104 347 -133 q 419 5 419 -76 l 419 297 l 158 297 l 158 384 l 419 384 l 419 548 l 158 548 "},"Ӭ":{"x_min":63.890625,"x_max":651.4375,"ha":695,"o":"m 294 879 q 441 850 375 879 q 553 765 506 822 q 625 624 600 708 q 651 430 651 540 q 624 235 651 319 q 549 95 597 151 q 434 10 501 38 q 288 -18 368 -18 q 206 -11 243 -18 q 140 4 169 -5 q 93 22 112 13 q 63 38 73 31 l 93 130 q 124 113 104 122 q 169 97 144 105 q 222 85 194 90 q 276 80 250 80 q 461 160 394 80 q 538 390 529 240 l 219 390 l 219 487 l 537 487 q 513 606 531 552 q 464 699 495 661 q 388 759 433 737 q 283 780 343 780 q 166 763 215 780 q 94 734 118 747 l 65 823 q 149 859 90 838 q 294 879 208 879 m 205 956 q 155 977 177 956 q 132 1030 132 998 q 155 1082 132 1062 q 205 1102 177 1102 q 255 1082 234 1102 q 277 1030 277 1062 q 255 977 277 998 q 205 956 234 956 m 441 956 q 390 977 412 956 q 369 1030 369 998 q 390 1082 369 1062 q 441 1102 412 1102 q 492 1082 470 1102 q 513 1030 513 1062 q 492 977 513 998 q 441 956 470 956 "},"῭":{"x_min":101.390625,"x_max":593.109375,"ha":695,"o":"m 333 968 l 444 755 l 379 716 l 250 913 l 333 968 m 168 770 q 120 788 140 770 q 101 838 101 807 q 120 888 101 869 q 168 907 140 907 q 216 888 197 907 q 236 838 236 869 q 216 788 236 807 q 168 770 197 770 m 526 770 q 477 788 497 770 q 458 838 458 807 q 477 888 458 869 q 526 907 497 907 q 573 888 554 907 q 593 838 593 869 q 573 788 593 807 q 526 770 554 770 "},"ђ":{"x_min":27.78125,"x_max":600.046875,"ha":695,"o":"m 27 847 l 119 847 l 119 943 l 233 962 l 233 847 l 458 847 l 458 761 l 233 761 l 233 634 q 293 652 259 645 q 358 658 327 658 q 472 636 426 658 q 547 576 519 615 q 587 483 575 537 q 600 363 600 429 l 600 0 q 592 -100 600 -56 q 563 -173 584 -144 q 506 -217 543 -202 q 415 -231 470 -231 q 375 -228 397 -231 q 338 -222 352 -225 l 350 -131 q 376 -136 361 -134 q 402 -137 391 -137 q 467 -107 448 -137 q 486 -20 486 -77 l 486 338 q 454 507 486 458 q 347 556 423 556 q 281 549 315 556 q 233 534 247 541 l 233 0 l 119 0 l 119 761 l 27 761 l 27 847 "},"y":{"x_min":50,"x_max":640.328125,"ha":695,"o":"m 70 -120 q 106 -131 83 -127 q 148 -136 129 -136 q 254 -106 216 -136 q 325 -8 293 -76 q 179 307 247 138 q 66 644 111 476 l 191 644 q 224 524 205 588 q 266 391 243 459 q 317 254 290 323 q 375 123 344 186 q 416 250 397 187 q 452 375 436 312 q 486 504 469 438 q 520 644 502 570 l 640 644 q 541 294 595 463 q 423 -19 486 125 q 372 -115 400 -75 q 313 -181 345 -155 q 241 -220 281 -208 q 150 -233 201 -233 q 92 -226 123 -233 q 50 -213 61 -219 l 70 -120 "},"ƅ":{"x_min":12.5,"x_max":626.4375,"ha":695,"o":"m 512 269 q 495 361 512 325 q 448 418 477 397 q 379 449 419 440 q 295 458 340 458 q 254 458 277 458 q 213 455 231 458 l 213 94 q 267 89 240 90 q 316 88 294 88 q 387 97 352 88 q 450 127 422 106 q 495 183 477 148 q 512 269 512 218 m 213 547 q 254 550 229 550 q 298 550 279 550 q 626 269 626 550 q 542 61 626 130 q 306 -6 458 -6 q 202 -2 259 -6 q 98 13 144 1 l 98 688 l 12 782 q 106 830 56 808 q 213 868 155 852 l 213 547 "},"ë":{"x_min":55.5625,"x_max":632,"ha":695,"o":"m 359 659 q 561 578 490 659 q 632 331 632 497 l 632 291 l 170 291 q 236 139 177 191 q 402 87 295 87 q 506 97 463 87 q 572 118 550 106 l 587 20 q 512 -2 566 9 q 390 -15 458 -15 q 243 10 306 -15 q 138 80 180 36 q 76 186 97 125 q 55 320 55 248 q 81 470 55 406 q 151 576 108 534 q 248 638 194 618 q 359 659 302 659 m 515 384 q 472 514 515 466 q 358 562 429 562 q 285 547 318 562 q 229 506 252 531 q 191 450 205 481 q 173 384 177 418 l 515 384 m 247 763 q 197 784 219 763 q 174 837 174 805 q 197 889 174 869 q 247 909 219 909 q 297 889 276 909 q 319 837 319 869 q 297 784 319 805 q 247 763 276 763 m 483 763 q 432 784 454 763 q 411 837 411 805 q 432 889 411 869 q 483 909 454 909 q 534 889 512 909 q 555 837 555 869 q 534 784 555 805 q 483 763 512 763 "},"б":{"x_min":62.5,"x_max":638.9375,"ha":695,"o":"m 186 570 q 269 618 222 601 q 362 634 316 634 q 569 550 500 634 q 638 313 638 465 q 621 188 638 248 q 568 83 604 129 q 477 10 533 37 q 347 -16 422 -16 q 206 15 261 -16 q 119 104 151 48 q 75 234 87 159 q 62 391 62 308 q 77 592 62 500 q 131 755 91 684 q 242 872 172 826 q 423 936 312 919 q 482 945 458 941 q 526 951 506 948 q 561 956 545 954 q 593 962 576 958 l 605 862 q 587 857 597 859 q 561 853 577 855 q 517 847 544 851 q 447 840 490 844 q 263 763 327 825 q 186 570 200 701 m 179 373 q 186 262 179 315 q 211 168 193 209 q 263 104 230 127 q 347 80 295 80 q 426 99 393 80 q 480 150 459 118 q 511 224 501 181 q 522 313 522 266 q 513 396 522 355 q 484 468 505 437 q 429 519 463 500 q 341 538 394 538 q 247 514 291 538 q 179 458 204 490 l 179 373 "},"ȟ":{"x_min":61.109375,"x_max":600.046875,"ha":695,"o":"m 98 0 l 98 901 l 213 920 l 213 634 q 276 652 241 645 q 344 658 311 658 q 467 636 418 658 q 545 576 516 615 q 587 483 575 537 q 600 363 600 429 l 600 0 l 486 0 l 486 338 q 452 507 486 458 q 333 556 419 556 q 263 549 297 556 q 213 534 229 541 l 213 0 l 98 0 m 61 1097 l 97 1152 l 213 1077 l 330 1152 l 366 1097 l 213 979 l 61 1097 "},"ӌ":{"x_min":75,"x_max":595.875,"ha":695,"o":"m 188 644 l 188 455 q 228 352 188 381 q 337 323 268 323 q 420 328 387 323 q 480 340 454 333 l 480 644 l 595 644 l 595 0 l 536 0 l 536 -179 l 426 -179 l 426 97 l 480 97 l 480 248 q 453 242 470 245 q 414 235 436 238 q 369 229 393 231 q 323 226 345 226 q 222 238 268 226 q 143 276 176 250 q 93 346 111 302 q 75 454 75 390 l 75 644 l 188 644 "},"Ȥ":{"x_min":75,"x_max":632,"ha":695,"o":"m 620 770 q 521 625 576 709 q 409 450 466 541 q 299 265 352 358 q 205 97 245 173 l 632 97 l 632 0 q 624 -100 632 -56 q 597 -173 616 -144 q 541 -217 577 -202 q 450 -231 505 -231 q 409 -228 431 -231 q 373 -222 387 -225 l 384 -131 q 411 -136 395 -134 q 437 -137 426 -137 q 502 -107 483 -137 q 520 -20 520 -77 l 520 0 l 75 0 l 75 75 q 170 254 118 162 q 276 436 222 347 q 384 608 330 525 q 488 762 438 691 l 95 762 l 95 859 l 620 859 l 620 770 "},"┤":{"x_min":0,"x_max":402.8125,"ha":695,"o":"m 402 -236 l 291 -236 l 291 402 l 0 402 l 0 513 l 291 513 l 291 1152 l 402 1152 l 402 -236 "},"┼":{"x_min":0,"x_max":694.5,"ha":695,"o":"m 291 402 l 0 402 l 0 513 l 291 513 l 291 1152 l 402 1152 l 402 513 l 694 513 l 694 402 l 402 402 l 402 -236 l 291 -236 l 291 402 "},"ц":{"x_min":98.625,"x_max":644.5,"ha":695,"o":"m 590 97 l 644 97 l 644 -179 l 536 -179 l 536 0 l 98 0 l 98 644 l 213 644 l 213 97 l 476 97 l 476 644 l 590 644 l 590 97 "},"w":{"x_min":26.390625,"x_max":668.109375,"ha":695,"o":"m 476 0 q 440 86 455 47 q 410 163 425 125 q 381 245 395 202 q 347 341 366 287 q 312 245 327 287 q 282 163 297 202 q 252 86 268 125 q 215 0 236 47 l 129 0 q 64 338 90 170 q 26 644 38 505 l 134 644 q 143 538 138 590 q 155 429 148 486 q 171 305 162 372 q 191 155 180 238 q 229 252 213 211 q 256 331 244 294 q 281 408 269 369 q 306 495 293 447 l 393 495 q 418 408 406 447 q 441 331 429 369 q 468 252 454 294 q 502 156 481 211 q 525 298 515 233 q 541 421 534 363 q 554 533 548 479 q 563 644 559 587 l 668 644 q 651 495 661 575 q 627 333 641 416 q 597 164 613 250 q 562 0 580 79 l 476 0 "},"о":{"x_min":55.5625,"x_max":638.9375,"ha":695,"o":"m 638 322 q 617 184 638 245 q 556 77 595 122 q 463 9 518 33 q 345 -15 409 -15 q 229 9 283 -15 q 137 77 176 33 q 77 184 98 122 q 55 322 55 245 q 77 461 55 398 q 137 567 98 523 q 229 635 176 611 q 345 659 283 659 q 463 635 409 659 q 556 567 518 611 q 617 461 595 523 q 638 322 638 398 m 520 322 q 473 495 520 431 q 345 558 426 558 q 220 495 266 558 q 173 322 173 431 q 220 150 173 213 q 345 87 266 87 q 473 150 426 87 q 520 322 520 213 "},"Д":{"x_min":25,"x_max":657,"ha":695,"o":"m 133 0 l 133 -229 l 25 -229 l 25 97 l 75 97 q 148 239 123 163 q 185 399 173 315 q 200 575 197 483 q 208 766 204 666 l 212 859 l 602 859 l 602 97 l 657 97 l 657 -229 l 548 -229 l 548 0 l 133 0 m 320 762 l 318 669 q 311 525 315 600 q 296 375 306 450 q 265 230 286 301 q 206 97 244 159 l 488 97 l 488 762 l 320 762 "},"":{"x_min":175.125,"x_max":529.328125,"ha":695,"o":"m 247 539 q 269 648 252 592 q 309 758 286 704 q 362 858 333 811 q 420 937 391 904 l 175 937 l 175 1018 l 529 1018 l 529 950 q 473 881 504 925 q 414 781 441 836 q 365 663 386 725 q 339 539 344 601 l 247 539 "},"ӣ":{"x_min":87.5,"x_max":608.375,"ha":695,"o":"m 608 644 l 608 0 l 495 0 l 495 491 q 417 380 458 444 q 335 249 376 316 q 256 116 294 181 q 190 0 219 51 l 87 0 l 87 644 l 198 644 l 198 180 q 268 297 230 234 q 345 424 305 361 q 426 545 386 487 q 505 644 466 602 l 608 644 m 170 882 l 523 882 l 523 793 l 170 793 l 170 882 "},"Ӂ":{"x_min":5.5625,"x_max":690.328125,"ha":695,"o":"m 295 0 l 295 418 q 243 336 268 384 q 197 231 219 287 q 155 115 175 175 q 119 0 136 55 l 5 0 q 45 125 22 59 q 97 251 69 190 q 154 366 125 312 q 213 458 184 420 q 165 551 188 505 q 117 645 141 597 q 68 745 93 693 q 19 859 44 798 l 133 859 q 213 660 173 752 q 295 488 252 568 l 295 859 l 398 859 l 398 491 q 480 662 440 570 q 561 859 520 754 l 675 859 q 625 745 650 798 q 576 645 600 693 q 529 551 552 597 q 480 458 505 505 q 539 366 509 420 q 597 251 569 312 q 650 125 626 190 q 690 0 673 59 l 575 0 q 538 114 558 55 q 497 229 519 173 q 450 334 475 286 q 398 416 425 383 l 398 0 l 295 0 m 347 941 q 220 981 269 941 q 161 1091 172 1020 l 248 1115 q 283 1050 259 1075 q 347 1026 306 1026 q 411 1050 387 1026 q 445 1115 434 1075 l 531 1091 q 472 981 520 1020 q 347 941 425 941 "},"Ὁ":{"x_min":-169.03125,"x_max":655.609375,"ha":695,"o":"m 40 430 q 62 630 40 545 q 125 770 84 715 q 221 852 165 825 q 347 879 277 879 q 472 852 415 879 q 569 770 529 825 q 632 630 609 715 q 655 430 655 545 q 632 230 655 315 q 569 90 609 145 q 472 8 529 34 q 347 -18 415 -18 q 221 8 277 -18 q 125 90 165 34 q 62 230 84 145 q 40 430 40 315 m 156 430 q 202 170 156 261 q 344 80 248 80 q 490 170 441 80 q 538 430 538 261 q 490 690 538 600 q 344 780 441 780 q 202 690 248 780 q 156 430 156 600 m -34 625 q -86 665 -62 643 q -128 712 -110 688 q -157 760 -146 736 q -169 804 -169 783 q -146 861 -169 842 q -92 881 -124 881 q -40 862 -60 881 q -20 814 -20 843 q -67 751 -20 770 q -34 708 -53 728 q 10 668 -14 689 l -34 625 "},"Ĵ":{"x_min":75,"x_max":584.3125,"ha":695,"o":"m 176 762 l 176 859 l 583 859 l 583 276 q 570 161 583 215 q 524 67 556 106 q 436 4 491 27 q 298 -18 381 -18 q 158 5 215 -18 q 75 51 101 29 l 120 144 q 190 102 147 125 q 293 80 234 80 q 425 127 381 80 q 469 287 469 175 l 469 762 l 176 762 m 416 1147 l 584 969 l 537 915 l 416 1023 l 295 915 l 248 969 l 416 1147 "},"Ҕ":{"x_min":62.5,"x_max":644.5,"ha":695,"o":"m 644 156 q 624 6 644 77 q 564 -115 604 -63 q 466 -198 525 -168 q 330 -229 406 -229 q 294 -229 312 -229 q 261 -226 276 -229 l 263 -133 q 281 -135 270 -134 q 309 -136 291 -136 q 396 -117 356 -136 q 465 -61 436 -98 q 511 29 494 -25 q 527 156 527 84 q 511 287 527 233 q 466 376 495 341 q 397 427 437 411 q 311 444 358 444 q 270 442 291 444 q 231 436 250 440 q 199 429 213 433 q 176 423 184 426 l 176 0 l 62 0 l 62 859 l 555 859 l 555 762 l 176 762 l 176 516 q 202 525 186 520 q 240 532 219 529 q 282 538 261 536 q 323 540 304 540 q 464 513 404 540 q 565 436 525 486 q 625 315 605 386 q 644 156 644 244 "},"ô":{"x_min":55.5625,"x_max":638.9375,"ha":695,"o":"m 638 322 q 617 184 638 245 q 556 77 595 122 q 463 9 518 33 q 345 -15 409 -15 q 229 9 283 -15 q 137 77 176 33 q 77 184 98 122 q 55 322 55 245 q 77 461 55 398 q 137 567 98 523 q 229 635 176 611 q 345 659 283 659 q 463 635 409 659 q 556 567 518 611 q 617 461 595 523 q 638 322 638 398 m 520 322 q 473 495 520 431 q 345 558 426 558 q 220 495 266 558 q 173 322 173 431 q 220 150 173 213 q 345 87 266 87 q 473 150 426 87 q 520 322 520 213 m 347 954 l 515 776 l 468 722 l 347 830 l 226 722 l 179 776 l 347 954 "},"ҝ":{"x_min":75,"x_max":663.9375,"ha":695,"o":"m 418 354 q 485 280 451 322 q 550 191 519 238 q 610 95 581 144 q 663 0 638 45 l 527 0 q 482 79 505 38 q 436 159 459 120 q 387 231 412 197 q 336 293 362 266 l 336 156 l 251 156 l 251 297 l 188 297 l 188 0 l 75 0 l 75 644 l 188 644 l 188 376 l 251 376 l 251 519 l 336 519 l 336 408 q 388 475 365 445 q 430 532 411 505 q 467 586 450 559 q 504 644 484 613 l 638 644 q 587 571 611 605 q 538 504 563 537 q 483 434 512 470 q 418 354 454 398 "},"г":{"x_min":148.625,"x_max":611.15625,"ha":695,"o":"m 148 0 l 148 644 l 611 644 l 611 548 l 262 548 l 262 0 l 148 0 "},"Ŀ":{"x_min":126.40625,"x_max":638.9375,"ha":695,"o":"m 638 97 l 638 0 l 126 0 l 126 859 l 240 859 l 240 97 l 638 97 m 504 366 q 445 389 469 366 q 420 451 420 412 q 445 511 420 489 q 504 534 469 534 q 563 511 538 534 q 587 451 587 489 q 563 389 587 412 q 504 366 538 366 "},"╚":{"x_min":180.5625,"x_max":694.5,"ha":695,"o":"m 694 513 l 402 513 l 402 1152 l 513 1152 l 513 625 l 694 625 l 694 513 m 694 291 l 180 291 l 180 1152 l 291 1152 l 291 402 l 694 402 l 694 291 "},"ᾄ":{"x_min":68.0625,"x_max":654.21875,"ha":695,"o":"m 373 658 q 500 645 440 658 q 593 620 561 632 l 593 204 q 595 153 593 173 q 603 120 597 133 q 622 98 609 106 q 654 84 634 90 l 636 -12 q 570 8 595 -4 q 522 51 545 20 q 449 6 494 27 q 341 -13 404 -13 q 223 11 275 -13 q 138 80 172 36 q 86 186 104 125 q 68 320 68 247 q 89 461 68 398 q 150 567 111 523 q 247 634 190 611 q 373 658 304 658 m 351 86 q 431 102 395 86 q 486 133 468 118 q 480 170 481 151 q 479 209 479 188 l 479 544 q 440 554 469 548 q 377 559 411 559 q 238 496 290 559 q 186 320 186 433 q 195 228 186 270 q 224 154 204 186 q 275 104 244 122 q 351 86 306 86 m 197 755 q 240 795 222 776 q 273 838 258 815 q 240 863 251 847 q 229 901 229 880 q 247 949 229 930 q 298 968 266 968 q 348 948 327 968 q 369 891 369 929 q 359 847 369 870 q 330 800 348 823 q 289 753 312 776 q 241 712 266 730 l 197 755 m 597 909 l 440 712 l 376 759 l 511 970 l 597 909 m 387 -80 q 400 -140 387 -120 q 459 -161 413 -161 l 480 -161 l 480 -227 q 422 -236 448 -236 q 315 -202 358 -236 q 273 -90 273 -169 q 274 -77 273 -84 q 276 -62 275 -69 l 387 -62 l 387 -80 "},"ᾙ":{"x_min":-174.03125,"x_max":694.5,"ha":695,"o":"m -39 625 q -91 665 -67 643 q -133 712 -115 688 q -162 760 -151 736 q -174 804 -174 783 q -151 861 -174 842 q -97 881 -129 881 q -45 862 -65 881 q -25 814 -25 843 q -72 751 -25 770 q -39 708 -58 728 q 5 668 -19 689 l -39 625 m 679 -12 q 599 5 630 -8 q 550 42 568 19 q 527 97 533 65 q 520 170 520 129 l 520 644 l 622 644 l 622 190 q 625 146 622 163 q 636 116 627 129 q 658 97 644 104 q 694 84 672 90 l 679 -12 m 331 859 l 434 859 l 434 0 l 331 0 l 331 400 l 163 400 l 163 0 l 62 0 l 62 859 l 163 859 l 163 497 l 331 497 l 331 859 "},"Ἇ":{"x_min":-128.046875,"x_max":682,"ha":695,"o":"m 561 0 l 509 225 l 179 225 l 129 0 l 12 0 q 65 198 36 91 q 128 418 94 305 q 200 643 162 530 q 279 859 237 757 l 420 859 q 497 643 461 757 q 567 418 534 530 q 629 198 600 305 q 682 0 658 91 l 561 0 m 345 759 q 276 556 313 672 q 205 319 238 441 l 483 319 q 414 560 451 444 q 345 759 377 676 m 101 580 q 55 609 78 593 q 12 643 31 625 q -19 684 -7 662 q -32 729 -32 705 q -12 783 -32 765 q 34 801 6 801 q 85 782 69 801 q 101 741 101 763 q 91 711 101 725 q 66 686 81 697 q 135 623 85 659 l 101 580 m 37 961 q 99 951 69 961 q 151 922 128 941 q 188 874 174 902 q 202 808 202 845 l 202 805 l 135 805 q 109 859 133 834 q 37 884 85 884 q -34 859 -11 884 q -61 805 -58 834 l -128 805 l -128 808 q -114 874 -128 845 q -77 922 -100 902 q -24 951 -54 941 q 37 961 5 961 "},"Ἃ":{"x_min":-233.15625,"x_max":682,"ha":695,"o":"m 561 0 l 509 225 l 179 225 l 129 0 l 12 0 q 65 198 36 91 q 128 418 94 305 q 200 643 162 530 q 279 859 237 757 l 420 859 q 497 643 461 757 q 567 418 534 530 q 629 198 600 305 q 682 0 658 91 l 561 0 m 345 759 q 276 556 313 672 q 205 319 238 441 l 483 319 q 414 560 451 444 q 345 759 377 676 m -105 625 q -194 713 -155 664 q -233 804 -233 761 q -211 861 -233 842 q -160 881 -190 881 q -110 862 -128 881 q -91 814 -91 843 q -102 776 -91 793 q -135 751 -113 760 q -103 708 -122 728 q -59 668 -85 689 l -105 625 m 33 883 l 169 672 l 104 625 l -51 822 l 33 883 "},"Ǟ":{"x_min":12.5,"x_max":682,"ha":695,"o":"m 222 898 q 174 917 193 898 q 155 966 155 936 q 174 1016 155 998 q 222 1034 193 1034 q 270 1016 251 1034 q 288 966 288 998 q 270 917 288 936 q 222 898 251 898 m 472 898 q 425 917 444 898 q 405 966 405 936 q 425 1016 405 998 q 472 1034 444 1034 q 519 1016 500 1034 q 538 966 538 998 q 519 917 538 936 q 472 898 500 898 m 190 1151 l 504 1151 l 504 1072 l 190 1072 l 190 1151 m 561 0 l 502 225 l 184 225 l 129 0 l 12 0 q 65 194 36 91 q 128 404 94 297 q 200 620 162 511 q 279 832 237 729 l 420 832 q 497 620 461 729 q 567 404 534 511 q 629 194 600 297 q 682 0 658 91 l 561 0 m 345 732 q 279 543 313 644 q 211 319 244 441 l 476 319 q 411 546 444 444 q 345 732 377 648 "},"\t":{"x_min":0,"x_max":0,"ha":695},"ь":{"x_min":98.625,"x_max":638.9375,"ha":695,"o":"m 352 80 q 477 109 433 80 q 522 201 522 137 q 509 254 522 231 q 472 290 495 276 q 418 312 450 305 q 352 319 387 319 q 278 317 316 319 q 213 308 240 315 l 213 87 q 272 82 230 84 q 352 80 315 80 m 98 644 l 213 644 l 213 398 q 280 407 236 402 q 365 412 325 412 q 470 400 420 412 q 558 363 520 388 q 617 298 595 338 q 638 202 638 258 q 559 36 638 86 q 345 -13 479 -13 q 220 -7 280 -13 q 98 13 159 -1 l 98 644 "},"Җ":{"x_min":5.5625,"x_max":682,"ha":695,"o":"m 270 0 l 270 419 q 226 336 247 386 q 186 231 205 287 q 150 115 166 175 q 119 0 133 55 l 5 0 q 40 127 19 62 q 85 251 61 191 q 136 364 109 311 q 188 459 162 418 q 147 550 169 501 q 102 650 125 598 q 59 756 80 702 q 19 859 37 809 l 133 859 q 200 659 166 752 q 270 487 234 566 l 270 859 l 372 859 l 372 487 q 450 659 412 566 q 526 859 487 751 l 640 859 q 597 759 620 811 q 550 654 575 707 q 502 552 526 602 q 456 459 477 502 q 503 381 480 425 q 548 291 526 338 q 590 194 570 244 q 626 97 609 144 l 682 97 l 682 -229 l 573 -229 l 573 0 l 540 0 q 506 115 525 55 q 466 232 487 176 q 420 338 444 288 q 372 420 397 387 l 372 0 l 270 0 "},"ὑ":{"x_min":98.625,"x_max":593.109375,"ha":695,"o":"m 345 -13 q 222 11 270 -13 q 147 77 175 36 q 109 172 119 119 q 98 279 98 225 l 98 644 l 213 644 l 213 284 q 247 131 213 176 q 345 86 280 86 q 445 131 412 86 q 479 284 479 176 l 479 644 l 593 644 l 593 279 q 582 172 593 225 q 544 77 572 119 q 468 11 516 36 q 345 -13 420 -13 m 404 712 q 352 752 376 730 q 310 799 328 775 q 281 847 292 823 q 269 891 269 870 q 292 948 269 929 q 346 968 314 968 q 398 949 378 968 q 418 901 418 930 q 371 838 418 857 q 404 795 385 815 q 449 755 424 776 l 404 712 "},"€":{"x_min":50,"x_max":648.65625,"ha":695,"o":"m 147 584 q 252 803 172 732 q 463 875 331 875 q 554 868 519 875 q 623 848 590 861 l 601 751 q 536 769 572 762 q 463 776 501 776 q 325 724 369 776 q 266 584 280 672 l 543 584 l 526 495 l 254 495 q 252 464 252 480 q 252 430 252 448 q 252 400 252 415 q 254 370 252 384 l 502 370 l 486 281 l 263 281 q 332 127 281 170 q 466 84 383 84 q 556 93 519 84 q 623 118 594 102 l 648 19 q 575 -4 627 8 q 459 -16 523 -16 q 239 62 315 -16 q 144 281 163 141 l 50 281 l 50 370 l 134 370 q 133 400 133 384 q 133 430 133 415 q 133 464 133 448 q 134 495 133 480 l 50 495 l 50 584 l 147 584 "},"ƶ":{"x_min":101.390625,"x_max":593.109375,"ha":695,"o":"m 583 558 q 519 484 558 530 q 436 380 480 438 l 572 380 l 572 298 l 375 298 q 302 195 337 247 q 238 97 266 144 l 593 97 l 593 0 l 101 0 l 101 76 q 165 182 127 125 q 244 298 202 240 l 137 298 l 137 380 l 304 380 q 375 472 341 429 q 436 548 409 516 l 119 548 l 119 644 l 583 644 l 583 558 "},"Ὦ":{"x_min":-236.046875,"x_max":669.5,"ha":695,"o":"m 25 97 l 176 97 q 77 285 109 181 q 45 491 45 388 q 64 638 45 568 q 121 762 83 709 q 216 847 159 815 q 348 879 273 879 q 480 847 423 879 q 575 762 537 815 q 632 638 613 709 q 651 491 651 568 q 618 285 651 388 q 520 97 586 181 l 669 97 l 669 0 l 395 0 l 395 83 q 455 166 429 119 q 499 267 481 213 q 526 377 516 320 q 536 490 536 434 q 525 601 536 548 q 491 693 513 654 q 432 757 468 733 q 348 780 397 780 q 264 757 300 780 q 206 693 229 733 q 172 601 183 654 q 161 490 161 548 q 170 377 161 434 q 197 267 180 320 q 241 166 215 213 q 301 83 268 119 l 301 0 l 25 0 l 25 97 m -169 623 q -99 686 -119 659 q -124 711 -115 697 q -134 741 -134 725 q -118 782 -134 763 q -67 801 -102 801 q -20 783 -38 801 q -1 729 -1 765 q -13 684 -1 705 q -45 643 -26 662 q -88 609 -65 625 q -134 580 -112 593 l -169 623 m -70 961 q -8 951 -38 961 q 43 922 20 941 q 80 874 66 902 q 94 808 94 845 l 94 805 l 27 805 q 1 859 25 834 q -70 884 -22 884 q -142 859 -119 884 q -169 805 -166 834 l -236 805 l -236 808 q -222 874 -236 845 q -185 922 -208 902 q -132 951 -162 941 q -70 961 -102 961 "},"Ἀ":{"x_min":7.96875,"x_max":682,"ha":695,"o":"m 561 0 l 509 225 l 179 225 l 129 0 l 12 0 q 65 198 36 91 q 128 418 94 305 q 200 643 162 530 q 279 859 237 757 l 420 859 q 497 643 461 757 q 567 418 534 530 q 629 198 600 305 q 682 0 658 91 l 561 0 m 345 759 q 276 556 313 672 q 205 319 238 441 l 483 319 q 414 560 451 444 q 345 759 377 676 m 7 668 q 52 708 32 689 q 85 751 71 728 q 51 776 64 760 q 38 814 38 793 q 59 862 38 843 q 110 881 80 881 q 164 861 142 881 q 187 804 187 842 q 176 760 187 783 q 146 712 164 736 q 103 665 128 688 q 52 625 78 643 l 7 668 "},"С":{"x_min":63.890625,"x_max":638.9375,"ha":695,"o":"m 638 36 q 535 -4 590 8 q 418 -18 480 -18 q 277 9 341 -18 q 165 90 212 36 q 90 230 118 145 q 63 430 63 315 q 92 623 63 540 q 169 763 120 707 q 283 850 218 820 q 422 879 348 879 q 527 865 473 879 q 632 819 580 851 l 598 725 q 426 777 506 777 q 324 753 369 777 q 247 683 279 729 q 197 573 215 637 q 180 430 180 509 q 199 276 180 341 q 251 168 218 211 q 331 104 284 125 q 431 83 377 83 q 516 93 472 83 q 608 130 561 104 l 638 36 "},"ß":{"x_min":98.625,"x_max":661.15625,"ha":695,"o":"m 555 763 q 545 702 555 730 q 519 652 534 675 q 484 609 504 629 q 448 572 465 590 q 420 535 429 550 q 411 500 411 520 q 429 454 411 472 q 476 420 448 436 q 536 387 504 404 q 595 346 568 370 q 642 286 623 322 q 661 197 661 251 q 604 38 661 91 q 426 -15 547 -15 q 381 -11 404 -15 q 338 -1 358 -6 q 303 9 318 4 q 281 19 288 15 l 301 120 q 322 110 308 116 q 354 97 336 104 q 393 87 372 91 q 434 83 413 83 q 518 111 491 83 q 544 191 544 138 q 525 253 544 229 q 479 296 506 277 q 418 331 451 315 q 356 367 384 347 q 310 414 329 387 q 291 483 291 441 q 312 566 291 533 q 365 632 333 600 q 417 687 394 659 q 440 747 440 715 q 415 831 440 800 q 334 862 390 862 q 245 815 276 862 q 213 684 213 768 l 213 0 l 98 0 l 98 687 q 114 799 98 748 q 159 886 130 850 q 231 942 188 922 q 326 962 273 962 q 434 946 390 962 q 505 902 479 930 q 543 838 531 875 q 555 763 555 802 "},"└":{"x_min":291.6875,"x_max":694.5,"ha":695,"o":"m 291 1152 l 402 1152 l 402 513 l 694 513 l 694 402 l 291 402 l 291 1152 "},"ǩ":{"x_min":59.734375,"x_max":663.9375,"ha":695,"o":"m 330 354 q 415 284 368 326 q 509 193 462 241 q 597 93 555 144 q 663 0 638 43 l 527 0 q 462 88 501 43 q 379 175 423 133 q 292 251 336 216 q 213 309 248 286 l 213 0 l 98 0 l 98 901 l 213 920 l 213 375 q 366 507 290 441 q 504 644 443 573 l 638 644 q 495 498 579 573 q 330 354 411 423 m 59 1097 l 95 1152 l 212 1077 l 329 1152 l 365 1097 l 212 979 l 59 1097 "},"Ӓ":{"x_min":12.5,"x_max":682,"ha":695,"o":"m 561 0 l 509 225 l 179 225 l 129 0 l 12 0 q 65 198 36 91 q 128 418 94 305 q 200 643 162 530 q 279 859 237 757 l 420 859 q 497 643 461 757 q 567 418 534 530 q 629 198 600 305 q 682 0 658 91 l 561 0 m 345 759 q 276 556 313 672 q 205 319 238 441 l 483 319 q 414 560 451 444 q 345 759 377 676 m 229 956 q 179 977 201 956 q 156 1030 156 998 q 179 1082 156 1062 q 229 1102 201 1102 q 279 1082 258 1102 q 301 1030 301 1062 q 279 977 301 998 q 229 956 258 956 m 465 956 q 414 977 436 956 q 393 1030 393 998 q 414 1082 393 1062 q 465 1102 436 1102 q 516 1082 494 1102 q 537 1030 537 1062 q 516 977 537 998 q 465 956 494 956 "},"Ὕ":{"x_min":-438.65625,"x_max":677.828125,"ha":695,"o":"m 291 0 l 291 319 q 138 590 206 458 q 18 859 69 722 l 145 859 q 238 636 186 743 q 350 418 290 530 q 463 642 413 536 q 552 859 512 748 l 677 859 q 556 594 625 723 q 405 322 488 465 l 405 0 l 291 0 m -310 625 q -399 713 -360 664 q -438 804 -438 761 q -417 861 -438 842 q -366 881 -395 881 q -315 862 -334 881 q -296 814 -296 843 q -308 776 -296 793 q -341 751 -319 760 q -309 708 -327 728 q -265 668 -291 689 l -310 625 m -10 822 l -167 625 l -231 672 l -96 883 l -10 822 "},"Ű":{"x_min":66.671875,"x_max":627.828125,"ha":695,"o":"m 347 -18 q 217 4 270 -18 q 130 66 163 26 q 81 165 97 106 q 66 295 66 223 l 66 859 l 180 859 l 180 308 q 192 199 180 243 q 225 129 204 155 q 277 91 247 102 q 347 80 308 80 q 416 91 386 80 q 468 129 447 102 q 502 199 490 155 q 513 308 513 243 l 513 859 l 627 859 l 627 295 q 612 165 627 223 q 563 66 597 106 q 477 4 530 26 q 347 -18 423 -18 m 389 1083 l 236 909 l 176 953 l 319 1152 l 389 1083 m 593 1083 l 440 909 l 381 953 l 524 1152 l 593 1083 "},"¶":{"x_min":38.890625,"x_max":620.890625,"ha":695,"o":"m 523 768 q 402 770 459 776 l 402 -229 l 306 -229 l 306 325 q 108 402 177 338 q 38 594 38 466 q 64 713 38 662 q 138 798 90 763 q 256 850 187 833 q 411 868 325 868 q 515 863 459 868 q 620 845 570 859 l 620 -229 l 523 -229 l 523 768 "},"Ή":{"x_min":-166.859375,"x_max":632,"ha":695,"o":"m 518 859 l 632 859 l 632 0 l 518 0 l 518 400 l 176 400 l 176 0 l 62 0 l 62 859 l 176 859 l 176 497 l 518 497 l 518 859 m 2 851 l -82 609 l -166 630 l -109 879 l 2 851 "},"Ὅ":{"x_min":-349.65625,"x_max":655.609375,"ha":695,"o":"m 40 430 q 62 630 40 545 q 125 770 84 715 q 221 852 165 825 q 347 879 277 879 q 472 852 415 879 q 569 770 529 825 q 632 630 609 715 q 655 430 655 545 q 632 230 655 315 q 569 90 609 145 q 472 8 529 34 q 347 -18 415 -18 q 221 8 277 -18 q 125 90 165 34 q 62 230 84 145 q 40 430 40 315 m 156 430 q 202 170 156 261 q 344 80 248 80 q 490 170 441 80 q 538 430 538 261 q 490 690 538 600 q 344 780 441 780 q 202 690 248 780 q 156 430 156 600 m -221 625 q -310 713 -271 664 q -349 804 -349 761 q -328 861 -349 842 q -277 881 -306 881 q -226 862 -245 881 q -207 814 -207 843 q -219 776 -207 793 q -252 751 -230 760 q -220 708 -238 728 q -176 668 -202 689 l -221 625 m 78 822 l -78 625 l -142 672 l -7 883 l 78 822 "},"­":{"x_min":194.453125,"x_max":500.046875,"ha":695,"o":"m 194 406 l 500 406 l 500 298 l 194 298 l 194 406 "},"Ὴ":{"x_min":-237.59375,"x_max":632,"ha":695,"o":"m 518 859 l 632 859 l 632 0 l 518 0 l 518 400 l 176 400 l 176 0 l 62 0 l 62 859 l 176 859 l 176 497 l 518 497 l 518 859 m -163 875 l -5 683 l -63 632 l -237 801 l -163 875 "},":":{"x_min":245.859375,"x_max":450.03125,"ha":695,"o":"m 450 88 q 422 15 450 47 q 348 -16 394 -16 q 273 15 301 -16 q 245 88 245 47 q 273 163 245 131 q 348 195 301 195 q 422 163 394 195 q 450 88 450 131 m 450 537 q 422 464 450 496 q 348 432 394 432 q 273 464 301 432 q 245 537 245 496 q 273 612 245 580 q 348 644 301 644 q 422 612 394 644 q 450 537 450 580 "},"Ѝ":{"x_min":76.390625,"x_max":618.109375,"ha":695,"o":"m 76 0 l 76 859 l 180 859 l 180 198 q 255 377 222 300 q 324 527 288 454 q 402 677 359 600 q 501 859 444 755 l 618 859 l 618 0 l 513 0 l 513 686 q 438 539 475 612 q 362 384 401 466 q 281 209 323 302 q 193 0 240 115 l 76 0 m 306 1152 l 464 960 l 406 909 l 232 1078 l 306 1152 "},"ǲ":{"x_min":37.5,"x_max":669.5,"ha":695,"o":"m 669 558 q 638 472 657 525 q 598 356 619 419 q 558 227 577 294 q 525 97 538 159 l 669 97 l 669 0 l 430 0 l 430 76 q 463 197 444 131 q 503 328 483 263 q 543 451 523 393 q 579 548 563 509 l 443 548 l 443 644 l 669 644 l 669 558 m 145 868 q 252 837 208 868 q 323 750 295 807 q 363 611 351 693 q 376 429 376 530 q 368 281 376 358 q 336 140 361 205 q 265 34 311 76 q 143 -6 219 -6 q 90 -4 119 -6 q 37 5 62 -1 l 37 854 q 95 865 69 862 q 145 868 120 868 m 136 93 q 148 91 143 91 q 161 91 154 91 q 276 429 276 91 q 247 686 276 602 q 158 769 218 769 q 147 769 152 769 q 136 768 143 769 l 136 93 "},"Ƨ":{"x_min":76.390625,"x_max":619.5,"ha":695,"o":"m 370 80 q 502 100 448 80 q 584 136 556 120 l 619 41 q 583 23 607 33 q 528 4 559 13 q 456 -11 497 -5 q 370 -18 416 -18 q 152 42 229 -18 q 76 215 76 102 q 93 316 76 275 q 143 388 111 358 q 218 441 175 419 q 315 486 262 463 q 381 516 351 501 q 435 550 412 531 q 471 594 458 569 q 484 655 484 619 q 438 749 484 718 q 330 780 393 780 q 222 763 270 780 q 145 730 173 747 l 109 826 q 146 845 123 836 q 198 862 169 855 q 261 874 227 869 q 330 879 294 879 q 527 816 456 879 q 598 640 598 752 q 581 551 598 588 q 534 486 563 513 q 466 437 504 458 q 386 400 427 416 q 315 370 350 386 q 252 332 280 354 q 208 282 225 311 q 191 213 191 254 q 237 113 191 147 q 370 80 283 80 "},"У":{"x_min":12.5,"x_max":686.171875,"ha":695,"o":"m 156 87 q 215 96 190 87 q 260 120 240 105 q 296 158 280 136 q 327 206 312 180 l 338 226 q 238 395 287 306 q 147 568 190 483 q 70 728 105 652 q 12 859 36 804 l 137 859 q 186 743 158 807 q 247 610 215 679 q 316 472 280 541 q 384 340 351 404 q 480 592 436 463 q 562 859 525 720 l 686 859 q 631 697 658 772 q 577 553 604 622 q 522 420 550 484 q 468 288 495 355 q 416 176 443 230 q 354 80 390 122 q 270 13 319 38 q 152 -11 220 -11 q 93 -4 125 -11 q 51 8 62 1 l 72 105 q 109 93 87 98 q 156 87 131 87 "},"ᾢ":{"x_min":50,"x_max":647.28125,"ha":695,"o":"m 475 -12 q 404 11 437 -12 q 348 86 370 34 q 292 11 326 34 q 222 -12 258 -12 q 140 9 173 -12 q 88 67 108 30 q 59 153 68 104 q 50 256 50 202 q 59 368 50 311 q 84 479 68 426 q 122 579 100 533 q 172 658 144 625 l 275 622 q 227 537 247 584 q 192 439 206 490 q 170 337 177 388 q 163 241 163 286 q 177 131 163 175 q 225 87 190 87 q 277 132 256 87 q 297 265 297 177 l 297 386 l 400 386 l 400 265 q 420 132 400 177 q 472 87 440 87 q 520 131 506 87 q 533 241 533 175 q 526 337 533 286 q 504 439 519 388 q 469 537 490 490 q 422 622 448 584 l 525 658 q 574 579 551 625 q 613 479 597 533 q 638 368 629 426 q 647 256 647 311 q 638 153 647 202 q 609 67 629 104 q 555 9 588 30 q 475 -12 522 -12 m 133 755 q 177 795 159 776 q 209 838 195 815 q 176 863 187 847 q 165 901 165 880 q 184 949 165 930 q 234 968 202 968 q 285 948 263 968 q 306 891 306 929 q 295 847 306 870 q 267 800 284 823 q 227 753 250 776 q 179 712 204 730 l 133 755 m 425 970 l 561 759 l 495 712 l 340 909 l 425 970 m 400 -80 q 413 -140 400 -120 q 472 -161 426 -161 l 493 -161 l 493 -227 q 435 -236 461 -236 q 328 -202 371 -236 q 286 -90 286 -169 q 287 -77 286 -84 q 289 -62 288 -69 l 400 -62 l 400 -80 "},"ү":{"x_min":41.671875,"x_max":652.828125,"ha":695,"o":"m 652 644 q 534 306 601 466 q 402 15 466 145 l 402 -229 l 288 -229 l 288 18 q 159 308 225 148 q 41 644 93 468 l 166 644 q 204 514 183 583 q 250 378 226 445 q 300 247 275 311 q 350 134 326 184 q 397 247 372 184 q 448 378 423 311 q 495 514 473 445 q 533 644 516 583 l 652 644 "},"Ί":{"x_min":-102.859375,"x_max":570.875,"ha":695,"o":"m 404 762 l 404 97 l 570 97 l 570 0 l 123 0 l 123 97 l 290 97 l 290 762 l 123 762 l 123 859 l 570 859 l 570 762 l 404 762 m 66 851 l -18 609 l -102 630 l -45 879 l 66 851 "},"⁶":{"x_min":173.625,"x_max":536.15625,"ha":695,"o":"m 173 584 q 259 796 173 723 q 494 872 345 869 l 502 795 q 423 786 461 794 q 355 763 386 779 q 302 727 325 748 q 272 676 280 705 q 320 690 297 687 q 362 693 343 693 q 443 680 409 693 q 497 647 476 668 q 527 598 518 626 q 536 540 536 570 q 525 484 536 512 q 493 433 515 456 q 439 395 472 409 q 362 380 406 380 q 220 434 268 380 q 173 584 173 488 m 354 620 q 259 605 305 620 q 279 495 256 537 q 361 454 301 454 q 400 462 384 454 q 427 483 416 470 q 441 511 437 495 q 445 538 445 526 q 424 600 445 579 q 354 620 402 620 "},"⅓":{"x_min":16.671875,"x_max":666.71875,"ha":695,"o":"m 113 0 l 16 0 l 543 859 l 640 859 l 113 0 m 419 76 q 457 65 434 70 q 508 59 480 59 q 562 68 540 59 q 584 100 584 77 q 558 138 584 130 q 479 147 531 147 l 462 147 l 462 216 l 493 216 q 548 224 529 216 q 568 256 568 231 q 550 283 568 276 q 513 290 533 290 q 469 283 494 290 q 427 269 444 276 l 401 329 q 456 350 422 341 q 526 359 490 359 q 572 354 550 359 q 611 339 594 350 q 639 311 629 329 q 650 269 650 294 q 639 227 650 248 q 608 191 629 206 q 666 101 666 163 q 658 61 666 81 q 631 25 650 41 q 585 0 613 9 q 515 -9 556 -9 q 398 9 450 -9 l 419 76 m 22 779 q 103 818 70 798 q 169 869 136 837 l 226 869 l 226 522 l 144 522 l 144 755 q 93 730 116 740 q 45 712 70 720 l 22 779 "},"Ģ":{"x_min":63.890625,"x_max":632,"ha":695,"o":"m 518 423 l 632 423 l 632 20 q 547 -3 605 11 q 409 -18 488 -18 q 268 11 331 -18 q 159 98 204 41 q 88 239 113 155 q 63 430 63 323 q 91 622 63 538 q 167 762 119 705 q 279 849 215 819 q 416 879 343 879 q 500 872 463 879 q 561 855 536 865 q 604 835 587 845 q 629 819 620 825 l 591 723 q 516 764 559 748 q 423 780 472 780 q 325 755 370 780 q 248 684 280 730 q 198 574 216 638 q 180 430 180 509 q 196 288 180 352 q 243 179 212 225 q 318 107 273 133 q 422 81 363 81 q 484 87 462 81 q 518 98 506 93 l 518 423 m 355 -62 l 466 -62 q 468 -77 468 -69 q 469 -90 469 -84 q 427 -202 469 -169 q 320 -236 384 -236 q 262 -227 293 -236 l 262 -161 l 283 -161 q 342 -140 329 -161 q 355 -80 355 -120 l 355 -62 "},"ᾇ":{"x_min":68.0625,"x_max":654.21875,"ha":695,"o":"m 373 658 q 500 645 440 658 q 593 620 561 632 l 593 204 q 595 153 593 173 q 603 120 597 133 q 622 98 609 106 q 654 84 634 90 l 636 -12 q 570 8 595 -4 q 522 51 545 20 q 449 6 494 27 q 341 -13 404 -13 q 223 11 275 -13 q 138 80 172 36 q 86 186 104 125 q 68 320 68 247 q 89 461 68 398 q 150 567 111 523 q 247 634 190 611 q 373 658 304 658 m 351 86 q 431 102 395 86 q 486 133 468 118 q 480 170 481 151 q 479 209 479 188 l 479 544 q 440 554 469 548 q 377 559 411 559 q 238 496 290 559 q 186 320 186 433 q 195 228 186 270 q 224 154 204 186 q 275 104 244 122 q 351 86 306 86 m 411 712 q 365 741 388 725 q 322 775 341 757 q 290 816 302 794 q 277 861 277 837 q 297 915 277 897 q 344 933 316 933 q 395 914 379 933 q 411 873 411 895 q 401 843 411 857 q 376 818 391 829 q 445 755 395 791 l 411 712 m 347 1093 q 409 1083 379 1093 q 461 1054 438 1073 q 498 1006 484 1034 q 512 940 512 977 l 512 937 l 445 937 q 419 991 443 966 q 347 1016 395 1016 q 275 991 298 1016 q 248 937 251 966 l 181 937 l 181 940 q 195 1006 181 977 q 232 1054 209 1034 q 285 1083 255 1073 q 347 1093 315 1093 m 387 -80 q 400 -140 387 -120 q 459 -161 413 -161 l 480 -161 l 480 -227 q 422 -236 448 -236 q 315 -202 358 -236 q 273 -90 273 -169 q 274 -77 273 -84 q 276 -62 275 -69 l 387 -62 l 387 -80 "},"m":{"x_min":56.953125,"x_max":644.5,"ha":695,"o":"m 56 626 q 213 658 140 658 q 289 646 254 658 q 350 609 325 634 q 477 658 409 658 q 541 645 511 658 q 593 608 570 633 q 630 545 616 583 q 644 458 644 508 l 644 0 l 540 0 l 540 461 q 518 537 540 511 q 462 563 495 563 q 427 555 445 563 q 394 529 409 547 q 402 458 402 497 l 402 248 l 298 248 l 298 459 q 283 536 298 508 q 223 563 268 563 q 161 551 195 563 l 161 0 l 56 0 l 56 626 "},"ǌ":{"x_min":50,"x_max":655.609375,"ha":695,"o":"m 50 626 q 138 650 94 641 q 220 658 181 658 q 298 649 265 658 q 354 614 331 640 q 389 541 377 588 q 401 415 401 493 l 401 0 l 297 0 l 297 397 q 290 482 297 451 q 272 530 283 513 q 246 552 261 547 q 215 556 231 556 q 185 553 204 556 q 154 544 166 550 l 154 0 l 50 0 l 50 626 m 575 754 q 519 776 543 754 q 495 837 495 798 q 519 897 495 875 q 575 920 543 920 q 632 897 609 920 q 655 837 655 875 q 632 776 655 798 q 575 754 609 754 m 411 -231 q 372 -228 395 -231 q 333 -218 348 -225 l 348 -123 q 380 -130 361 -127 q 413 -133 400 -133 q 500 -96 473 -133 q 527 11 527 -59 l 527 644 l 632 644 l 632 12 q 575 -172 632 -112 q 411 -231 519 -231 "},"⁵":{"x_min":176.40625,"x_max":520.875,"ha":695,"o":"m 520 531 q 471 422 520 465 q 318 380 422 380 q 237 389 277 380 q 176 409 197 398 l 194 483 q 245 467 213 476 q 315 458 276 458 q 406 479 381 458 q 431 529 431 501 q 421 567 431 550 q 385 596 411 584 q 317 615 359 608 q 211 622 275 622 q 225 747 219 684 q 233 869 230 811 l 501 869 l 501 791 l 306 791 q 303 741 304 766 q 297 690 302 716 q 468 643 415 683 q 520 531 520 604 "},"ὀ":{"x_min":55.5625,"x_max":638.9375,"ha":695,"o":"m 638 322 q 617 184 638 245 q 556 77 595 122 q 463 9 518 33 q 345 -15 409 -15 q 229 9 283 -15 q 137 77 176 33 q 77 184 98 122 q 55 322 55 245 q 77 461 55 398 q 137 567 98 523 q 229 635 176 611 q 345 659 283 659 q 463 635 409 659 q 556 567 518 611 q 617 461 595 523 q 638 322 638 398 m 520 322 q 473 495 520 431 q 345 558 426 558 q 220 495 266 558 q 173 322 173 431 q 220 150 173 213 q 345 87 266 87 q 473 150 426 87 q 520 322 520 213 m 256 755 q 301 795 281 776 q 334 838 320 815 q 300 863 313 847 q 287 901 287 880 q 308 949 287 930 q 359 968 329 968 q 413 948 391 968 q 436 891 436 929 q 425 847 436 870 q 395 799 413 823 q 352 752 377 775 q 301 712 327 730 l 256 755 "},"╞":{"x_min":291.6875,"x_max":694.5,"ha":695,"o":"m 694 513 l 291 513 l 291 1152 l 402 1152 l 402 625 l 694 625 l 694 513 m 694 291 l 402 291 l 402 -236 l 291 -236 l 291 402 l 694 402 l 694 291 "},"á":{"x_min":80.5625,"x_max":600.046875,"ha":695,"o":"m 354 81 q 431 84 397 81 q 487 91 465 87 l 487 283 q 434 294 465 290 q 368 298 402 298 q 305 293 336 298 q 251 276 275 288 q 212 243 227 263 q 197 193 197 223 q 239 106 197 130 q 354 81 281 81 m 343 659 q 464 641 415 659 q 544 591 513 623 q 587 513 575 559 q 600 413 600 468 l 600 11 q 493 -5 559 4 q 358 -15 427 -15 q 255 -6 305 -15 q 166 25 205 2 q 104 88 127 48 q 80 191 80 129 q 104 285 80 247 q 167 347 129 323 q 254 381 205 370 q 354 391 304 391 q 487 376 422 391 l 487 408 q 481 464 487 437 q 457 513 475 491 q 410 549 440 536 q 333 562 380 562 q 229 554 273 562 q 161 537 184 545 l 147 632 q 225 651 170 643 q 343 659 280 659 m 494 888 l 319 719 l 261 770 l 419 962 l 494 888 "},"ɍ":{"x_min":45.84375,"x_max":597.265625,"ha":695,"o":"m 137 0 l 137 254 l 45 254 l 45 341 l 137 341 l 137 609 q 423 658 279 658 q 507 654 466 658 q 597 640 548 651 l 576 538 q 497 554 531 551 q 423 558 463 558 q 251 534 337 558 l 251 341 l 481 341 l 481 254 l 251 254 l 251 0 l 137 0 "},"Ӱ":{"x_min":12.5,"x_max":686.171875,"ha":695,"o":"m 156 87 q 215 96 190 87 q 260 120 240 105 q 296 158 280 136 q 327 206 312 180 l 338 226 q 238 395 287 306 q 147 568 190 483 q 70 728 105 652 q 12 859 36 804 l 137 859 q 186 743 158 807 q 247 610 215 679 q 316 472 280 541 q 384 340 351 404 q 480 592 436 463 q 562 859 525 720 l 686 859 q 631 697 658 772 q 577 553 604 622 q 522 420 550 484 q 468 288 495 355 q 416 176 443 230 q 354 80 390 122 q 270 13 319 38 q 152 -11 220 -11 q 93 -4 125 -11 q 51 8 62 1 l 72 105 q 109 93 87 98 q 156 87 131 87 m 242 956 q 192 977 214 956 q 169 1030 169 998 q 192 1082 169 1062 q 242 1102 214 1102 q 292 1082 271 1102 q 314 1030 314 1062 q 292 977 314 998 q 242 956 271 956 m 478 956 q 427 977 449 956 q 406 1030 406 998 q 427 1082 406 1062 q 478 1102 449 1102 q 529 1082 507 1102 q 550 1030 550 1062 q 529 977 550 998 q 478 956 507 956 "},"ӆ":{"x_min":18.0625,"x_max":668.296875,"ha":695,"o":"m 326 548 q 324 460 326 506 q 317 367 322 413 q 304 275 312 320 q 281 191 295 230 q 197 55 254 112 q 34 -12 140 -1 l 18 84 q 114 129 79 95 q 170 212 150 163 q 197 306 188 254 q 211 418 206 359 q 215 534 215 476 q 215 644 215 593 l 613 644 l 613 95 l 668 95 q 633 -72 670 8 q 538 -205 595 -152 l 458 -156 q 479 -131 466 -148 q 506 -93 493 -115 q 531 -47 519 -72 q 550 0 543 -23 l 500 0 l 500 548 l 326 548 "},"K":{"x_min":88.890625,"x_max":682,"ha":695,"o":"m 652 859 q 503 658 584 758 q 327 458 422 558 q 422 370 372 420 q 520 261 472 320 q 610 136 568 202 q 682 0 652 69 l 552 0 q 477 125 518 63 q 392 238 437 186 q 299 335 347 291 q 202 411 251 379 l 202 0 l 88 0 l 88 859 l 202 859 l 202 476 q 375 670 293 569 q 520 859 458 772 l 652 859 "},"7":{"x_min":87.5,"x_max":632,"ha":695,"o":"m 215 0 q 250 209 222 98 q 319 422 279 319 q 408 614 359 526 q 504 759 456 702 l 87 759 l 87 859 l 632 859 l 632 763 q 541 633 590 715 q 449 449 493 551 q 373 231 405 347 q 333 0 341 115 l 215 0 "},"¨":{"x_min":156.953125,"x_max":537.546875,"ha":695,"o":"m 229 763 q 179 784 201 763 q 156 837 156 805 q 179 889 156 869 q 229 909 201 909 q 279 889 258 909 q 301 837 301 869 q 279 784 301 805 q 229 763 258 763 m 465 763 q 414 784 436 763 q 393 837 393 805 q 414 889 393 869 q 465 909 436 909 q 516 889 494 909 q 537 837 537 869 q 516 784 537 805 q 465 763 494 763 "},"Y":{"x_min":18.0625,"x_max":677.828125,"ha":695,"o":"m 291 0 l 291 319 q 138 590 206 458 q 18 859 69 722 l 145 859 q 238 636 186 743 q 350 418 290 530 q 463 642 413 536 q 552 859 512 748 l 677 859 q 556 594 625 723 q 405 322 488 465 l 405 0 l 291 0 "},"E":{"x_min":126.40625,"x_max":638.9375,"ha":695,"o":"m 126 0 l 126 859 l 608 859 l 608 762 l 240 762 l 240 498 l 562 498 l 562 401 l 240 401 l 240 97 l 638 97 l 638 0 l 126 0 "},"Ô":{"x_min":40.28125,"x_max":655.609375,"ha":695,"o":"m 40 430 q 62 630 40 545 q 125 770 84 715 q 221 852 165 825 q 347 879 277 879 q 472 852 415 879 q 569 770 529 825 q 632 630 609 715 q 655 430 655 545 q 632 230 655 315 q 569 90 609 145 q 472 8 529 34 q 347 -18 415 -18 q 221 8 277 -18 q 125 90 165 34 q 62 230 84 145 q 40 430 40 315 m 156 430 q 202 170 156 261 q 344 80 248 80 q 490 170 441 80 q 538 430 538 261 q 490 690 538 600 q 344 780 441 780 q 202 690 248 780 q 156 430 156 600 m 347 1147 l 515 969 l 468 915 l 347 1023 l 226 915 l 179 969 l 347 1147 "},"έ":{"x_min":95.84375,"x_max":647.28125,"ha":695,"o":"m 401 661 q 465 658 433 661 q 524 650 497 655 q 572 640 551 645 q 602 630 593 634 l 584 531 q 559 540 577 534 q 514 550 540 545 q 459 559 488 555 q 404 563 430 563 q 283 543 330 563 q 236 473 236 522 q 248 426 236 444 q 281 398 261 408 q 326 385 301 388 q 376 381 351 381 l 500 381 l 500 290 l 375 290 q 313 285 343 290 q 262 268 284 280 q 226 235 240 255 q 212 186 212 215 q 394 84 212 84 q 468 89 431 84 q 533 101 504 94 q 584 115 562 108 q 616 129 605 123 l 647 31 q 552 2 623 19 q 380 -15 481 -15 q 284 -7 334 -15 q 191 21 233 0 q 122 81 150 43 q 95 180 95 119 q 126 273 95 230 q 208 338 156 316 q 179 355 194 344 q 150 384 163 366 q 128 424 137 401 q 119 476 119 447 q 195 615 119 569 q 401 661 272 661 m 523 876 l 303 719 l 253 783 l 458 962 l 523 876 "},"ὺ":{"x_min":98.625,"x_max":593.109375,"ha":695,"o":"m 345 -13 q 222 11 270 -13 q 147 77 175 36 q 109 172 119 119 q 98 279 98 225 l 98 644 l 213 644 l 213 284 q 247 131 213 176 q 345 86 280 86 q 445 131 412 86 q 479 284 479 176 l 479 644 l 593 644 l 593 279 q 582 172 593 225 q 544 77 572 119 q 468 11 516 36 q 345 -13 420 -13 m 282 962 l 487 783 l 439 719 l 217 876 l 282 962 "},"Ƥ":{"x_min":25,"x_max":651.4375,"ha":695,"o":"m 397 868 q 511 848 463 868 q 591 793 559 829 q 636 709 622 758 q 651 601 651 661 q 588 393 651 466 q 398 320 525 320 l 334 320 l 334 0 l 220 0 l 220 758 q 145 729 168 751 q 122 666 122 707 q 127 620 122 644 l 34 609 q 28 635 31 618 q 25 670 25 652 q 58 783 25 743 q 144 842 91 823 q 263 864 197 861 q 397 868 330 868 m 418 769 q 369 768 393 769 q 334 765 345 768 l 334 418 l 393 418 q 500 459 465 418 q 534 597 534 501 q 418 769 534 769 "},"Є":{"x_min":52.78125,"x_max":638.9375,"ha":695,"o":"m 409 879 q 553 859 494 879 q 637 823 612 838 l 608 734 q 536 763 584 747 q 419 780 487 780 q 314 759 359 780 q 238 699 269 737 q 189 606 206 661 q 166 487 172 552 l 483 487 l 483 390 l 165 390 q 241 163 175 247 q 426 80 308 80 q 480 85 452 80 q 533 97 508 90 q 578 113 558 105 q 609 130 598 122 l 638 38 q 610 22 629 31 q 563 4 591 13 q 497 -11 534 -5 q 413 -18 459 -18 q 268 11 334 -18 q 153 98 201 41 q 79 238 105 155 q 52 430 52 322 q 77 622 52 538 q 150 762 102 705 q 262 849 197 819 q 409 879 327 879 "},"Ï":{"x_min":123.625,"x_max":570.875,"ha":695,"o":"m 404 762 l 404 97 l 570 97 l 570 0 l 123 0 l 123 97 l 290 97 l 290 762 l 123 762 l 123 859 l 570 859 l 570 762 l 404 762 m 229 956 q 179 977 201 956 q 156 1030 156 998 q 179 1082 156 1062 q 229 1102 201 1102 q 279 1082 258 1102 q 301 1030 301 1062 q 279 977 301 998 q 229 956 258 956 m 465 956 q 414 977 436 956 q 393 1030 393 998 q 414 1082 393 1062 q 465 1102 436 1102 q 516 1082 494 1102 q 537 1030 537 1062 q 516 977 537 998 q 465 956 494 956 "},"Ȅ":{"x_min":126.40625,"x_max":638.9375,"ha":695,"o":"m 126 0 l 126 859 l 608 859 l 608 762 l 240 762 l 240 498 l 562 498 l 562 401 l 240 401 l 240 97 l 638 97 l 638 0 l 126 0 m 412 1152 l 555 953 l 495 909 l 343 1083 l 412 1152 m 208 1152 l 351 953 l 291 909 l 138 1083 l 208 1152 "},"ῶ":{"x_min":50,"x_max":647.28125,"ha":695,"o":"m 475 -12 q 404 11 437 -12 q 348 86 370 34 q 292 11 326 34 q 222 -12 258 -12 q 140 9 173 -12 q 88 67 108 30 q 59 153 68 104 q 50 256 50 202 q 59 368 50 311 q 84 479 68 426 q 122 579 100 533 q 172 658 144 625 l 275 622 q 227 537 247 584 q 192 439 206 490 q 170 337 177 388 q 163 241 163 286 q 177 131 163 175 q 225 87 190 87 q 277 132 256 87 q 297 265 297 177 l 297 386 l 400 386 l 400 265 q 420 132 400 177 q 472 87 440 87 q 520 131 506 87 q 533 241 533 175 q 526 337 533 286 q 504 439 519 388 q 469 537 490 490 q 422 622 448 584 l 525 658 q 574 579 551 625 q 613 479 597 533 q 638 368 629 426 q 647 256 647 311 q 638 153 647 202 q 609 67 629 104 q 555 9 588 30 q 475 -12 522 -12 m 347 929 q 412 917 381 929 q 466 883 443 905 q 501 829 488 861 q 512 757 513 797 l 437 757 q 431 786 436 770 q 418 816 427 802 q 391 837 408 829 q 347 845 373 845 q 304 837 320 845 q 277 816 287 829 q 262 786 266 802 q 256 757 258 770 l 181 757 q 193 829 180 797 q 228 883 205 861 q 281 917 251 905 q 347 929 312 929 "},"έ":{"x_min":95.84375,"x_max":647.28125,"ha":695,"o":"m 401 661 q 465 658 433 661 q 524 650 497 655 q 572 640 551 645 q 602 630 593 634 l 584 531 q 559 540 577 534 q 514 550 540 545 q 459 559 488 555 q 404 563 430 563 q 283 543 330 563 q 236 473 236 522 q 248 426 236 444 q 281 398 261 408 q 326 385 301 388 q 376 381 351 381 l 500 381 l 500 290 l 375 290 q 313 285 343 290 q 262 268 284 280 q 226 235 240 255 q 212 186 212 215 q 394 84 212 84 q 468 89 431 84 q 533 101 504 94 q 584 115 562 108 q 616 129 605 123 l 647 31 q 552 2 623 19 q 380 -15 481 -15 q 284 -7 334 -15 q 191 21 233 0 q 122 81 150 43 q 95 180 95 119 q 126 273 95 230 q 208 338 156 316 q 179 355 194 344 q 150 384 163 366 q 128 424 137 401 q 119 476 119 447 q 195 615 119 569 q 401 661 272 661 m 516 909 l 355 712 l 287 759 l 428 970 l 516 909 "},"ȴ":{"x_min":75,"x_max":604.21875,"ha":695,"o":"m 326 88 q 438 125 377 125 q 506 110 476 125 q 559 72 537 95 q 592 15 580 48 q 604 -51 604 -16 q 593 -113 604 -81 q 561 -171 583 -145 q 504 -213 538 -197 q 420 -229 469 -229 q 305 -200 350 -229 q 237 -120 261 -172 l 144 -233 l 84 -180 l 213 -25 q 212 -4 212 -13 q 212 15 212 4 l 212 858 l 75 858 l 75 955 l 326 955 l 326 88 m 422 38 q 368 25 390 38 q 326 -11 347 11 l 326 -41 q 351 -113 326 -86 q 420 -141 376 -141 q 487 -114 465 -141 q 509 -51 509 -87 q 488 12 509 -13 q 422 38 466 38 "},"Ɖ":{"x_min":25,"x_max":638.9375,"ha":695,"o":"m 638 430 q 610 227 638 311 q 532 92 581 144 q 415 16 483 40 q 268 -6 347 -6 q 98 13 183 -6 l 98 404 l 25 404 l 25 493 l 98 493 l 98 847 q 268 868 183 868 q 415 844 347 868 q 532 768 483 820 q 610 631 581 715 q 638 430 638 548 m 213 95 q 245 92 229 93 q 277 91 262 91 q 381 110 336 91 q 457 170 426 129 q 505 275 488 211 q 522 430 522 340 q 459 687 522 605 q 273 769 395 769 q 213 765 238 769 l 213 493 l 350 493 l 350 404 l 213 404 l 213 95 "},"ἰ":{"x_min":75,"x_max":625.046875,"ha":695,"o":"m 625 20 q 544 -6 586 1 q 463 -15 502 -15 q 369 -2 408 -15 q 306 40 330 11 q 272 118 283 70 q 261 233 261 165 l 261 548 l 75 548 l 75 644 l 375 644 l 375 251 q 380 169 375 201 q 398 119 386 137 q 431 94 411 101 q 484 87 452 87 q 540 94 504 87 q 608 118 576 101 l 625 20 m 207 755 q 252 795 232 776 q 285 838 271 815 q 251 863 264 847 q 238 901 238 880 q 259 949 238 930 q 310 968 280 968 q 364 948 342 968 q 387 891 387 929 q 376 847 387 870 q 346 799 364 823 q 303 752 328 775 q 252 712 278 730 l 207 755 "},"ϋ":{"x_min":98.625,"x_max":593.109375,"ha":695,"o":"m 345 -13 q 222 11 270 -13 q 147 77 175 36 q 109 172 119 119 q 98 279 98 225 l 98 644 l 213 644 l 213 284 q 247 131 213 176 q 345 86 280 86 q 445 131 412 86 q 479 284 479 176 l 479 644 l 593 644 l 593 279 q 582 172 593 225 q 544 77 572 119 q 468 11 516 36 q 345 -13 420 -13 m 229 763 q 179 784 201 763 q 156 837 156 805 q 179 889 156 869 q 229 909 201 909 q 279 889 258 909 q 301 837 301 869 q 279 784 301 805 q 229 763 258 763 m 465 763 q 414 784 436 763 q 393 837 393 805 q 414 889 393 869 q 465 909 436 909 q 516 889 494 909 q 537 837 537 869 q 516 784 537 805 q 465 763 494 763 "},"":{"x_min":18.0625,"x_max":661.15625,"ha":695,"o":"m 141 748 q 256 716 219 745 q 294 632 294 686 q 254 543 294 576 q 131 509 213 509 q 66 518 98 509 q 18 538 34 527 l 37 605 q 75 588 51 598 q 129 579 100 579 q 188 590 165 579 q 212 627 212 601 q 179 672 212 659 q 58 686 147 686 q 64 739 62 718 q 68 780 66 761 q 72 820 70 800 q 75 869 73 840 l 279 869 l 279 800 l 145 800 l 141 748 m 448 0 q 466 83 456 47 q 488 150 476 119 q 519 211 501 181 q 562 277 537 241 l 418 277 l 418 347 l 661 347 l 661 290 q 606 222 627 252 q 571 159 586 191 q 547 89 556 127 q 530 0 538 51 l 448 0 m 118 0 l 20 0 l 547 859 l 644 859 l 118 0 "},"ἶ":{"x_min":75,"x_max":625.046875,"ha":695,"o":"m 625 20 q 544 -6 586 1 q 463 -15 502 -15 q 369 -2 408 -15 q 306 40 330 11 q 272 118 283 70 q 261 233 261 165 l 261 548 l 75 548 l 75 644 l 375 644 l 375 251 q 380 169 375 201 q 398 119 386 137 q 431 94 411 101 q 484 87 452 87 q 540 94 504 87 q 608 118 576 101 l 625 20 m 212 755 q 282 818 262 791 q 257 843 266 829 q 247 873 247 857 q 263 914 247 895 q 314 933 279 933 q 361 915 343 933 q 380 861 380 897 q 368 816 380 837 q 336 775 355 794 q 293 741 316 757 q 247 712 269 725 l 212 755 m 311 1093 q 373 1083 343 1093 q 425 1054 402 1073 q 462 1006 448 1034 q 476 940 476 977 l 476 937 l 409 937 q 383 991 407 966 q 311 1016 359 1016 q 239 991 262 1016 q 212 937 215 966 l 145 937 l 145 940 q 159 1006 145 977 q 196 1054 173 1034 q 249 1083 219 1073 q 311 1093 279 1093 "},"ἳ":{"x_min":75,"x_max":625.046875,"ha":695,"o":"m 625 20 q 544 -6 586 1 q 463 -15 502 -15 q 369 -2 408 -15 q 306 40 330 11 q 272 118 283 70 q 261 233 261 165 l 261 548 l 75 548 l 75 644 l 375 644 l 375 251 q 380 169 375 201 q 398 119 386 137 q 431 94 411 101 q 484 87 452 87 q 540 94 504 87 q 608 118 576 101 l 625 20 m 237 712 q 148 800 187 751 q 109 891 109 848 q 131 948 109 929 q 182 968 152 968 q 232 949 214 968 q 251 901 251 930 q 240 863 251 880 q 207 838 229 847 q 239 795 220 815 q 283 755 257 776 l 237 712 m 376 970 l 512 759 l 447 712 l 291 909 l 376 970 "},"Ἐ":{"x_min":-110.03125,"x_max":638.9375,"ha":695,"o":"m 126 0 l 126 859 l 608 859 l 608 762 l 240 762 l 240 498 l 562 498 l 562 401 l 240 401 l 240 97 l 638 97 l 638 0 l 126 0 m -110 668 q -65 708 -85 689 q -32 751 -46 728 q -66 776 -53 760 q -79 814 -79 793 q -58 862 -79 843 q -7 881 -37 881 q 46 861 24 881 q 69 804 69 842 q 58 760 69 783 q 28 712 46 736 q -14 665 10 688 q -65 625 -39 643 l -110 668 "},"b":{"x_min":98.625,"x_max":638.9375,"ha":695,"o":"m 213 620 q 274 646 234 633 q 362 659 313 659 q 479 634 427 659 q 566 565 530 609 q 620 459 601 520 q 638 322 638 397 q 616 181 638 244 q 554 75 594 119 q 456 8 513 31 q 330 -15 400 -15 q 194 -4 254 -15 q 98 18 134 6 l 98 943 l 213 962 l 213 620 m 213 100 q 266 89 240 93 q 316 86 293 86 q 466 145 412 86 q 520 322 520 204 q 511 416 520 372 q 480 491 501 459 q 427 540 459 522 q 348 558 394 558 q 270 542 308 558 q 213 508 233 526 l 213 100 "},"ύ":{"x_min":98.625,"x_max":593.109375,"ha":695,"o":"m 345 -13 q 222 11 270 -13 q 147 77 175 36 q 109 172 119 119 q 98 279 98 225 l 98 644 l 213 644 l 213 284 q 247 131 213 176 q 345 86 280 86 q 445 131 412 86 q 479 284 479 176 l 479 644 l 593 644 l 593 279 q 582 172 593 225 q 544 77 572 119 q 468 11 516 36 q 345 -13 420 -13 m 487 909 l 326 712 l 258 759 l 399 970 l 487 909 "},"ﬂ":{"x_min":38.890625,"x_max":682,"ha":695,"o":"m 666 -12 q 533 33 572 -9 q 494 168 494 76 l 494 943 l 609 962 l 609 187 q 613 140 609 158 q 625 111 616 122 q 647 94 633 100 q 682 84 661 88 l 666 -12 m 112 644 l 112 702 q 172 895 112 827 q 356 962 231 962 q 455 954 422 962 l 438 854 q 409 861 425 859 q 366 863 393 863 q 258 820 288 863 q 227 701 227 776 l 227 644 l 398 644 l 398 548 l 227 548 l 227 0 l 112 0 l 112 548 l 38 548 l 38 644 l 112 644 "},"ῦ":{"x_min":98.625,"x_max":593.109375,"ha":695,"o":"m 345 -13 q 222 11 270 -13 q 147 77 175 36 q 109 172 119 119 q 98 279 98 225 l 98 644 l 213 644 l 213 284 q 247 131 213 176 q 345 86 280 86 q 445 131 412 86 q 479 284 479 176 l 479 644 l 593 644 l 593 279 q 582 172 593 225 q 544 77 572 119 q 468 11 516 36 q 345 -13 420 -13 m 347 929 q 412 917 381 929 q 466 883 443 905 q 501 829 488 861 q 512 757 513 797 l 437 757 q 431 786 436 770 q 418 816 427 802 q 391 837 408 829 q 347 845 373 845 q 304 837 320 845 q 277 816 287 829 q 262 786 266 802 q 256 757 258 770 l 181 757 q 193 829 180 797 q 228 883 205 861 q 281 917 251 905 q 347 929 312 929 "},"ᾱ":{"x_min":68.0625,"x_max":654.21875,"ha":695,"o":"m 373 658 q 500 645 440 658 q 593 620 561 632 l 593 204 q 595 153 593 173 q 603 120 597 133 q 622 98 609 106 q 654 84 634 90 l 636 -12 q 570 8 595 -4 q 522 51 545 20 q 449 6 494 27 q 341 -13 404 -13 q 223 11 275 -13 q 138 80 172 36 q 86 186 104 125 q 68 320 68 247 q 89 461 68 398 q 150 567 111 523 q 247 634 190 611 q 373 658 304 658 m 351 86 q 431 102 395 86 q 486 133 468 118 q 480 170 481 151 q 479 209 479 188 l 479 544 q 440 554 469 548 q 377 559 411 559 q 238 496 290 559 q 186 320 186 433 q 195 228 186 270 q 224 154 204 186 q 275 104 244 122 q 351 86 306 86 m 170 882 l 523 882 l 523 793 l 170 793 l 170 882 "},"ƞ":{"x_min":98.625,"x_max":600.046875,"ha":695,"o":"m 98 626 q 222 650 161 641 q 338 658 284 658 q 534 591 468 658 q 600 377 600 525 l 600 -229 l 486 -229 l 486 362 q 475 463 486 425 q 443 524 463 502 q 395 554 423 545 q 333 562 366 562 q 274 559 305 562 q 213 550 243 555 l 213 0 l 98 0 l 98 626 "},"Ǌ":{"x_min":50,"x_max":657,"ha":695,"o":"m 440 95 q 506 106 483 95 q 542 137 530 116 q 556 190 554 158 q 558 265 558 222 l 558 859 l 657 859 l 657 213 q 608 54 657 109 q 440 0 559 0 l 440 95 m 136 348 l 136 0 l 50 0 l 50 859 l 141 859 l 306 254 l 294 508 l 294 859 l 380 859 l 380 0 l 288 0 l 123 605 l 136 348 "},"ῼ":{"x_min":25,"x_max":694.5,"ha":695,"o":"m 213 0 l 25 0 l 25 97 l 118 97 q 84 172 100 127 q 57 270 69 218 q 39 379 45 323 q 33 490 33 436 q 45 640 33 569 q 81 763 56 711 q 144 847 105 816 q 237 879 183 879 q 329 847 291 879 q 392 763 368 816 q 428 641 416 711 q 440 491 440 570 q 433 380 440 437 q 415 270 426 323 q 388 172 404 218 q 355 97 373 127 l 445 97 l 445 0 l 259 0 l 259 83 q 290 156 276 112 q 316 253 305 201 q 332 361 326 305 q 338 469 338 416 q 334 591 338 534 q 318 690 329 648 q 287 756 306 732 q 237 780 268 780 q 187 756 206 780 q 156 690 168 732 q 139 591 144 648 q 134 469 134 534 q 140 361 134 416 q 157 253 147 305 q 182 156 168 201 q 213 83 197 112 l 213 0 m 679 -12 q 599 5 630 -8 q 550 42 568 19 q 527 97 533 65 q 520 170 520 129 l 520 644 l 622 644 l 622 190 q 625 146 622 163 q 636 116 627 129 q 658 97 644 104 q 694 84 672 90 l 679 -12 "},"Ʈ":{"x_min":54.171875,"x_max":640.328125,"ha":695,"o":"m 404 -20 q 420 -107 404 -77 q 480 -137 436 -137 q 503 -136 491 -137 q 527 -133 515 -136 l 538 -225 q 469 -231 508 -231 q 380 -215 415 -231 q 325 -170 345 -200 q 297 -97 305 -140 q 290 0 290 -54 l 290 762 l 54 762 l 54 859 l 640 859 l 640 762 l 404 762 l 404 -20 "},"Ὢ":{"x_min":-415.65625,"x_max":669.5,"ha":695,"o":"m 25 97 l 176 97 q 77 285 109 181 q 45 491 45 388 q 64 638 45 568 q 121 762 83 709 q 216 847 159 815 q 348 879 273 879 q 480 847 423 879 q 575 762 537 815 q 632 638 613 709 q 651 491 651 568 q 618 285 651 388 q 520 97 586 181 l 669 97 l 669 0 l 395 0 l 395 83 q 455 166 429 119 q 499 267 481 213 q 526 377 516 320 q 536 490 536 434 q 525 601 536 548 q 491 693 513 654 q 432 757 468 733 q 348 780 397 780 q 264 757 300 780 q 206 693 229 733 q 172 601 183 654 q 161 490 161 548 q 170 377 161 434 q 197 267 180 320 q 241 166 215 213 q 301 83 268 119 l 301 0 l 25 0 l 25 97 m -415 668 q -371 708 -389 689 q -339 751 -353 728 q -372 776 -361 760 q -383 814 -383 793 q -364 862 -383 843 q -314 881 -346 881 q -263 861 -285 881 q -242 804 -242 842 q -253 760 -242 783 q -281 713 -264 736 q -321 666 -298 689 q -369 625 -344 643 l -415 668 m -123 883 l 12 672 l -53 625 l -208 822 l -123 883 "},"ҋ":{"x_min":87.5,"x_max":668.296875,"ha":695,"o":"m 613 644 l 613 95 l 668 95 q 633 -72 670 8 q 538 -205 595 -152 l 458 -156 q 479 -131 466 -148 q 506 -93 493 -115 q 531 -47 519 -72 q 550 0 543 -23 l 502 0 l 502 491 q 422 380 465 444 q 338 249 380 316 q 258 116 297 181 q 190 0 219 51 l 87 0 l 87 644 l 198 644 l 198 180 q 269 297 230 234 q 349 424 308 361 q 431 545 390 487 q 512 644 473 602 l 613 644 m 365 748 q 238 788 287 748 q 179 898 190 827 l 266 922 q 301 857 277 882 q 365 833 325 833 q 429 857 405 833 q 463 922 452 882 l 550 898 q 491 788 538 827 q 365 748 443 748 "},"ф":{"x_min":36.109375,"x_max":658.390625,"ha":695,"o":"m 150 322 q 192 154 150 213 q 295 93 234 95 l 295 551 q 192 489 234 548 q 150 322 150 430 m 397 93 q 501 154 458 95 q 544 322 544 213 q 501 489 544 430 q 397 551 458 548 l 397 93 m 397 -229 l 295 -229 l 295 -4 q 196 19 243 -2 q 113 83 150 41 q 56 185 77 125 q 36 322 36 245 q 56 459 36 398 q 113 561 77 519 q 196 625 150 602 q 295 648 243 647 l 295 943 l 397 962 l 397 648 q 497 625 450 647 q 580 561 544 602 q 637 459 616 519 q 658 322 658 398 q 637 185 658 245 q 580 83 616 125 q 497 19 544 41 q 397 -4 450 -2 l 397 -229 "},"ȭ":{"x_min":55.5625,"x_max":638.9375,"ha":695,"o":"m 638 322 q 617 184 638 245 q 556 77 595 122 q 463 9 518 33 q 345 -15 409 -15 q 229 9 283 -15 q 137 77 176 33 q 77 184 98 122 q 55 322 55 245 q 77 461 55 398 q 137 567 98 523 q 229 635 176 611 q 345 659 283 659 q 463 635 409 659 q 556 567 518 611 q 617 461 595 523 q 638 322 638 398 m 520 322 q 473 495 520 431 q 345 558 426 558 q 220 495 266 558 q 173 322 173 431 q 220 150 173 213 q 345 87 266 87 q 473 150 426 87 q 520 322 520 213 m 538 838 q 523 805 534 823 q 497 772 512 787 q 461 745 481 757 q 416 734 440 734 q 373 741 394 734 q 334 759 352 748 q 301 774 313 769 q 273 779 288 779 q 236 761 252 779 q 212 726 220 744 l 156 751 q 171 784 161 766 q 197 818 181 802 q 231 845 212 834 q 276 857 251 857 q 320 850 300 857 q 358 832 340 843 q 392 816 380 820 q 419 812 404 812 q 456 829 440 812 q 481 863 473 845 l 538 838 m 188 994 l 504 994 l 504 915 l 188 915 l 188 994 "},"Ŋ":{"x_min":76.390625,"x_max":618.109375,"ha":695,"o":"m 513 29 q 447 170 486 90 q 365 337 409 250 q 272 514 320 425 q 180 686 225 604 l 180 0 l 76 0 l 76 859 l 193 859 q 276 709 231 791 q 364 543 320 627 q 447 379 408 459 q 513 234 486 300 l 513 859 l 618 859 l 618 0 q 612 -94 618 -51 q 589 -168 607 -137 q 538 -215 572 -198 q 448 -231 504 -231 q 408 -228 430 -231 q 372 -222 386 -225 l 383 -131 q 410 -136 394 -134 q 436 -137 426 -137 q 497 -107 481 -137 q 513 -20 513 -77 l 513 29 "},"╩":{"x_min":0,"x_max":694.5,"ha":695,"o":"m 694 402 l 694 291 l 0 291 l 0 402 l 694 402 m 0 625 l 180 625 l 180 1152 l 291 1152 l 291 513 l 0 513 l 0 625 m 694 513 l 402 513 l 402 1152 l 513 1152 l 513 625 l 694 625 l 694 513 "},"Ũ":{"x_min":66.671875,"x_max":627.828125,"ha":695,"o":"m 347 -18 q 217 4 270 -18 q 130 66 163 26 q 81 165 97 106 q 66 295 66 223 l 66 859 l 180 859 l 180 308 q 192 199 180 243 q 225 129 204 155 q 277 91 247 102 q 347 80 308 80 q 416 91 386 80 q 468 129 447 102 q 502 199 490 155 q 513 308 513 243 l 513 859 l 627 859 l 627 295 q 612 165 627 223 q 563 66 597 106 q 477 4 530 26 q 347 -18 423 -18 m 538 1075 q 524 1040 534 1059 q 498 1004 513 1020 q 462 975 483 987 q 415 963 441 963 q 372 973 397 963 q 333 990 348 983 q 275 1009 297 1009 q 240 991 256 1009 q 215 954 223 973 l 155 986 q 170 1020 159 1001 q 195 1056 180 1040 q 231 1085 211 1073 q 277 1097 252 1097 q 320 1086 295 1097 q 359 1069 344 1076 q 418 1050 395 1050 q 453 1068 436 1050 q 479 1105 470 1086 l 538 1075 "},"L":{"x_min":126.40625,"x_max":638.9375,"ha":695,"o":"m 638 97 l 638 0 l 126 0 l 126 859 l 240 859 l 240 97 l 638 97 "},"ď":{"x_min":27.78125,"x_max":694.5,"ha":695,"o":"m 390 508 q 344 542 375 526 q 279 558 313 558 q 218 540 243 558 q 177 491 193 522 q 153 416 161 459 q 145 322 145 372 q 187 148 145 209 q 295 87 229 87 q 354 91 330 87 q 390 100 379 95 l 390 508 m 390 943 l 504 962 l 504 18 q 418 -4 470 6 q 295 -15 366 -15 q 185 8 234 -15 q 101 75 136 31 q 47 181 66 119 q 27 322 27 244 q 43 459 27 397 q 90 565 59 520 q 165 634 120 609 q 265 659 209 659 q 341 647 309 659 q 390 620 373 634 l 390 943 m 694 962 l 661 686 l 584 686 l 584 962 l 694 962 "},"Ο":{"x_min":40.28125,"x_max":655.609375,"ha":695,"o":"m 40 430 q 62 630 40 545 q 125 770 84 715 q 221 852 165 825 q 347 879 277 879 q 472 852 415 879 q 569 770 529 825 q 632 630 609 715 q 655 430 655 545 q 632 230 655 315 q 569 90 609 145 q 472 8 529 34 q 347 -18 415 -18 q 221 8 277 -18 q 125 90 165 34 q 62 230 84 145 q 40 430 40 315 m 156 430 q 202 170 156 261 q 344 80 248 80 q 490 170 441 80 q 538 430 538 261 q 490 690 538 600 q 344 780 441 780 q 202 690 248 780 q 156 430 156 600 "},"ŧ":{"x_min":87.5,"x_max":625.046875,"ha":695,"o":"m 337 644 l 609 644 l 609 548 l 337 548 l 337 379 l 609 379 l 609 293 l 337 293 l 337 248 q 344 169 337 200 q 367 120 351 138 q 408 94 383 101 q 469 87 433 87 q 550 95 519 87 q 608 118 580 104 l 625 20 q 563 -1 605 12 q 458 -15 520 -15 q 340 1 386 -15 q 268 51 294 18 q 233 134 243 84 q 223 248 223 183 l 223 293 l 87 293 l 87 379 l 223 379 l 223 548 l 87 548 l 87 644 l 223 644 l 223 825 l 337 844 l 337 644 "},"À":{"x_min":12.5,"x_max":682,"ha":695,"o":"m 561 0 l 509 225 l 179 225 l 129 0 l 12 0 q 65 198 36 91 q 128 418 94 305 q 200 643 162 530 q 279 859 237 757 l 420 859 q 497 643 461 757 q 567 418 534 530 q 629 198 600 305 q 682 0 658 91 l 561 0 m 345 759 q 276 556 313 672 q 205 319 238 441 l 483 319 q 414 560 451 444 q 345 759 377 676 m 306 1152 l 464 960 l 406 909 l 232 1078 l 306 1152 "},"Ώ":{"x_min":-141.875,"x_max":669.5,"ha":695,"o":"m 25 97 l 176 97 q 77 285 109 181 q 45 491 45 388 q 64 638 45 568 q 121 762 83 709 q 216 847 159 815 q 348 879 273 879 q 480 847 423 879 q 575 762 537 815 q 632 638 613 709 q 651 491 651 568 q 618 285 651 388 q 520 97 586 181 l 669 97 l 669 0 l 395 0 l 395 83 q 455 166 429 119 q 499 267 481 213 q 526 377 516 320 q 536 490 536 434 q 525 601 536 548 q 491 693 513 654 q 432 757 468 733 q 348 780 397 780 q 264 757 300 780 q 206 693 229 733 q 172 601 183 654 q 161 490 161 548 q 170 377 161 434 q 197 267 180 320 q 241 166 215 213 q 301 83 268 119 l 301 0 l 25 0 l 25 97 m 91 801 l -83 632 l -141 683 l 16 875 l 91 801 "},"½":{"x_min":23.609375,"x_max":669.5,"ha":695,"o":"m 669 69 l 669 0 l 395 0 q 394 15 394 4 q 394 31 394 27 q 422 100 394 76 q 486 147 450 125 l 516 168 q 562 204 550 187 q 575 241 575 222 q 559 276 575 265 q 520 287 543 287 q 477 278 500 287 q 438 251 455 269 l 394 306 q 454 346 418 333 q 526 359 490 359 q 624 325 591 359 q 657 245 657 290 q 638 184 657 209 q 594 138 620 158 q 540 102 568 119 q 494 69 512 86 l 669 69 m 33 779 q 114 818 81 798 q 180 869 147 837 l 237 869 l 237 522 l 155 522 l 155 755 q 104 730 127 740 q 56 712 81 720 l 33 779 m 120 0 l 23 0 l 550 859 l 647 859 l 120 0 "},"'":{"x_min":286.140625,"x_max":406.984375,"ha":695,"o":"m 406 943 l 406 880 q 404 810 406 850 q 399 728 402 770 q 391 645 395 686 q 381 572 387 604 l 311 572 q 301 645 305 604 q 293 728 297 686 q 288 811 290 770 q 286 882 286 851 l 286 943 l 406 943 "},"Ҽ":{"x_min":25,"x_max":659.78125,"ha":695,"o":"m 329 401 q 370 159 334 241 q 498 77 405 77 q 578 94 545 77 q 620 122 611 111 l 651 31 q 595 0 641 18 q 484 -18 548 -18 q 360 13 411 -18 q 277 100 309 44 q 231 234 245 156 q 215 402 216 311 q 141 418 176 406 q 81 452 106 430 q 40 507 55 473 q 25 590 25 541 q 28 625 25 608 q 34 651 31 643 l 127 640 q 122 594 122 616 q 147 525 122 550 q 216 498 172 500 q 287 784 227 688 q 443 879 347 879 q 604 768 548 879 q 659 448 659 658 q 658 422 659 437 q 655 401 657 408 l 329 401 m 551 498 q 522 709 551 637 q 444 782 494 782 q 394 756 415 782 q 360 690 373 730 q 340 599 347 650 q 331 498 333 548 l 551 498 "},"˛":{"x_min":237.515625,"x_max":456.984375,"ha":695,"o":"m 375 -231 q 270 -206 304 -231 q 237 -137 237 -181 q 253 -82 237 -108 q 291 -33 269 -56 q 340 9 320 -1 l 455 9 q 422 -15 440 -1 q 387 -48 405 -29 q 358 -82 369 -68 q 347 -115 347 -97 q 397 -151 347 -151 q 419 -149 405 -151 q 447 -143 433 -147 l 456 -218 q 375 -231 425 -231 "},"":{"x_min":188.015625,"x_max":544.984375,"ha":695,"o":"m 333 -133 l 333 152 q 271 120 306 134 q 211 99 236 106 l 188 167 q 281 208 235 183 q 360 266 326 234 l 421 266 l 421 -133 l 544 -133 l 544 -212 l 197 -212 l 197 -133 l 333 -133 "},"ᾲ":{"x_min":68.0625,"x_max":654.21875,"ha":695,"o":"m 373 658 q 500 645 440 658 q 593 620 561 632 l 593 204 q 595 153 593 173 q 603 120 597 133 q 622 98 609 106 q 654 84 634 90 l 636 -12 q 570 8 595 -4 q 522 51 545 20 q 449 6 494 27 q 341 -13 404 -13 q 223 11 275 -13 q 138 80 172 36 q 86 186 104 125 q 68 320 68 247 q 89 461 68 398 q 150 567 111 523 q 247 634 190 611 q 373 658 304 658 m 351 86 q 431 102 395 86 q 486 133 468 118 q 480 170 481 151 q 479 209 479 188 l 479 544 q 440 554 469 548 q 377 559 411 559 q 238 496 290 559 q 186 320 186 433 q 195 228 186 270 q 224 154 204 186 q 275 104 244 122 q 351 86 306 86 m 282 962 l 487 783 l 439 719 l 217 876 l 282 962 m 387 -80 q 400 -140 387 -120 q 459 -161 413 -161 l 480 -161 l 480 -227 q 422 -236 448 -236 q 315 -202 358 -236 q 273 -90 273 -169 q 274 -77 273 -84 q 276 -62 275 -69 l 387 -62 l 387 -80 "},"Ɠ":{"x_min":63.890625,"x_max":682,"ha":695,"o":"m 538 736 q 469 768 502 758 q 405 777 436 777 q 306 749 348 777 q 236 672 265 720 q 194 561 208 625 q 180 430 180 498 q 194 288 180 352 q 237 179 208 225 q 312 107 266 133 q 422 81 358 81 q 484 87 462 81 q 518 98 506 93 l 518 423 l 632 423 l 632 20 q 547 -3 605 11 q 409 -18 488 -18 q 153 98 243 -18 q 63 430 63 215 q 92 627 63 543 q 167 767 120 711 q 273 851 213 823 q 394 879 333 879 q 438 875 416 879 q 479 863 459 872 q 529 953 497 932 q 619 975 561 975 q 652 970 633 975 q 682 959 670 966 l 663 875 q 644 882 657 879 q 625 884 632 884 q 591 871 604 884 q 568 836 577 858 q 551 788 558 815 q 538 736 544 762 "},"Ć":{"x_min":63.890625,"x_max":638.9375,"ha":695,"o":"m 638 36 q 535 -4 590 8 q 418 -18 480 -18 q 277 9 341 -18 q 165 90 212 36 q 90 230 118 145 q 63 430 63 315 q 92 623 63 540 q 169 763 120 707 q 283 850 218 820 q 422 879 348 879 q 527 865 473 879 q 632 819 580 851 l 598 725 q 426 777 506 777 q 324 753 369 777 q 247 683 279 729 q 197 573 215 637 q 180 430 180 509 q 199 276 180 341 q 251 168 218 211 q 331 104 284 125 q 431 83 377 83 q 516 93 472 83 q 608 130 561 104 l 638 36 m 544 1078 l 369 909 l 311 960 l 469 1152 l 544 1078 "},"£":{"x_min":62.5,"x_max":632,"ha":695,"o":"m 291 462 l 527 462 l 527 369 l 291 369 l 291 359 q 286 229 291 297 q 272 98 281 161 l 632 98 l 632 0 l 143 0 q 167 175 156 88 q 177 351 177 262 l 177 369 l 62 369 l 62 462 l 177 462 l 177 565 q 197 717 177 657 q 251 812 216 777 q 335 861 286 847 q 445 875 384 875 q 536 866 500 875 q 608 841 573 857 l 580 743 q 440 773 518 773 q 379 763 406 773 q 332 730 352 754 q 302 667 312 707 q 291 568 291 627 l 291 462 "},"ů":{"x_min":94.453125,"x_max":595.875,"ha":695,"o":"m 595 18 q 496 -2 558 8 q 351 -13 434 -13 q 229 7 277 -13 q 150 68 180 29 q 106 162 119 108 q 94 281 94 216 l 94 644 l 208 644 l 208 306 q 243 137 208 187 q 362 87 279 87 q 399 88 380 87 q 434 92 418 90 q 463 96 451 94 q 480 100 476 98 l 480 644 l 595 644 l 595 18 m 475 840 q 436 746 475 780 q 347 712 398 712 q 257 746 295 712 q 219 840 219 780 q 257 932 219 898 q 347 966 295 966 q 436 932 398 966 q 475 840 475 898 m 412 840 q 393 890 412 872 q 347 908 375 908 q 300 890 319 908 q 281 840 281 872 q 300 788 281 807 q 347 770 319 770 q 393 788 375 770 q 412 840 412 807 "},"⅕":{"x_min":15.28125,"x_max":654.21875,"ha":695,"o":"m 22 779 q 103 818 70 798 q 169 869 136 837 l 226 869 l 226 522 l 144 522 l 144 755 q 93 730 116 740 q 45 712 70 720 l 22 779 m 501 226 q 616 193 579 223 q 654 109 654 163 q 613 20 654 54 q 491 -12 573 -12 q 426 -3 458 -12 q 377 16 394 5 l 397 83 q 435 66 411 76 q 488 56 459 56 q 548 68 525 56 q 572 105 572 79 q 539 150 572 137 q 418 163 506 163 q 424 217 422 195 q 428 258 426 238 q 431 297 430 277 q 434 347 433 318 l 638 347 l 638 277 l 505 277 l 501 226 m 111 0 l 15 0 l 540 859 l 638 859 l 111 0 "},"Ǵ":{"x_min":63.890625,"x_max":632,"ha":695,"o":"m 518 423 l 632 423 l 632 20 q 547 -3 605 11 q 409 -18 488 -18 q 268 11 331 -18 q 159 98 204 41 q 88 239 113 155 q 63 430 63 323 q 91 622 63 538 q 167 762 119 705 q 279 849 215 819 q 416 879 343 879 q 500 872 463 879 q 561 855 536 865 q 604 835 587 845 q 629 819 620 825 l 591 723 q 516 764 559 748 q 423 780 472 780 q 325 755 370 780 q 248 684 280 730 q 198 574 216 638 q 180 430 180 509 q 196 288 180 352 q 243 179 212 225 q 318 107 273 133 q 422 81 363 81 q 484 87 462 81 q 518 98 506 93 l 518 423 m 547 1078 l 372 909 l 314 960 l 472 1152 l 547 1078 "},"Ğ":{"x_min":63.890625,"x_max":632,"ha":695,"o":"m 518 423 l 632 423 l 632 20 q 547 -3 605 11 q 409 -18 488 -18 q 268 11 331 -18 q 159 98 204 41 q 88 239 113 155 q 63 430 63 323 q 91 622 63 538 q 167 762 119 705 q 279 849 215 819 q 416 879 343 879 q 500 872 463 879 q 561 855 536 865 q 604 835 587 845 q 629 819 620 825 l 591 723 q 516 764 559 748 q 423 780 472 780 q 325 755 370 780 q 248 684 280 730 q 198 574 216 638 q 180 430 180 509 q 196 288 180 352 q 243 179 212 225 q 318 107 273 133 q 422 81 363 81 q 484 87 462 81 q 518 98 506 93 l 518 423 m 422 950 q 356 961 387 950 q 303 995 326 973 q 268 1048 280 1016 q 256 1122 255 1080 l 331 1122 q 337 1092 333 1108 q 352 1063 341 1076 q 379 1041 362 1050 q 422 1033 395 1033 q 466 1041 448 1033 q 493 1063 483 1050 q 506 1092 502 1076 q 512 1122 511 1108 l 587 1122 q 576 1048 588 1080 q 541 995 563 1016 q 487 961 518 973 q 422 950 456 950 "},"ә":{"x_min":62.5,"x_max":638.9375,"ha":695,"o":"m 334 -15 q 133 65 204 -15 q 62 312 62 147 q 62 331 62 319 q 63 354 62 344 l 518 354 q 455 506 511 454 q 291 558 400 558 q 187 547 230 558 q 122 527 144 537 l 106 623 q 181 647 127 634 q 304 659 236 659 q 450 634 387 659 q 555 563 513 608 q 618 457 597 519 q 638 323 638 395 q 612 174 638 237 q 543 68 586 111 q 445 5 500 26 q 334 -15 390 -15 m 181 261 q 222 131 180 181 q 336 81 265 81 q 407 97 376 81 q 461 137 438 112 q 497 195 484 162 q 515 261 511 227 l 181 261 "},"Ї":{"x_min":125.015625,"x_max":570.875,"ha":695,"o":"m 404 762 l 404 97 l 570 97 l 570 0 l 125 0 l 125 97 l 290 97 l 290 762 l 125 762 l 125 859 l 570 859 l 570 762 l 404 762 m 229 956 q 179 977 201 956 q 156 1030 156 998 q 179 1082 156 1062 q 229 1102 201 1102 q 279 1082 258 1102 q 301 1030 301 1062 q 279 977 301 998 q 229 956 258 956 m 465 956 q 414 977 436 956 q 393 1030 393 998 q 414 1082 393 1062 q 465 1102 436 1102 q 516 1082 494 1102 q 537 1030 537 1062 q 516 977 537 998 q 465 956 494 956 "},"û":{"x_min":94.453125,"x_max":595.875,"ha":695,"o":"m 595 18 q 496 -2 558 8 q 351 -13 434 -13 q 229 7 277 -13 q 150 68 180 29 q 106 162 119 108 q 94 281 94 216 l 94 644 l 208 644 l 208 306 q 243 137 208 187 q 362 87 279 87 q 399 88 380 87 q 434 92 418 90 q 463 96 451 94 q 480 100 476 98 l 480 644 l 595 644 l 595 18 m 347 954 l 515 776 l 468 722 l 347 830 l 226 722 l 179 776 l 347 954 "},"Ź":{"x_min":75,"x_max":632,"ha":695,"o":"m 620 770 q 521 625 576 709 q 409 450 466 541 q 299 265 352 358 q 205 97 245 173 l 632 97 l 632 0 l 75 0 l 75 75 q 170 254 118 162 q 276 436 222 347 q 384 608 330 525 q 488 762 438 691 l 95 762 l 95 859 l 620 859 l 620 770 m 482 1078 l 307 909 l 249 960 l 407 1152 l 482 1078 "},"╒":{"x_min":291.6875,"x_max":694.5,"ha":695,"o":"m 694 291 l 402 291 l 402 -236 l 291 -236 l 291 402 l 694 402 l 694 291 m 291 625 l 694 625 l 694 513 l 291 513 l 291 625 "},"┐":{"x_min":0,"x_max":402.8125,"ha":695,"o":"m 0 513 l 402 513 l 402 -236 l 291 -236 l 291 402 l 0 402 l 0 513 "},"Ῑ":{"x_min":123.625,"x_max":570.875,"ha":695,"o":"m 404 762 l 404 97 l 570 97 l 570 0 l 123 0 l 123 97 l 290 97 l 290 762 l 123 762 l 123 859 l 570 859 l 570 762 l 404 762 m 170 1075 l 523 1075 l 523 986 l 170 986 l 170 1075 "},"":{"x_min":26.390625,"x_max":668.109375,"ha":695,"o":"m 26 615 q 38 657 26 632 q 86 698 50 683 q 52 730 65 711 q 38 782 38 750 q 50 825 38 807 q 81 855 62 843 q 126 873 101 868 q 177 879 151 879 q 227 872 202 879 q 271 854 252 866 q 302 823 290 841 q 313 782 313 805 q 304 741 313 761 q 262 704 294 722 q 306 671 288 691 q 325 616 325 651 q 311 570 325 590 q 277 536 298 550 q 229 516 256 523 q 175 509 202 509 q 119 515 145 509 q 72 533 93 520 q 38 566 51 545 q 26 615 26 586 m 397 56 q 501 75 461 59 q 559 127 541 91 q 504 112 529 112 q 407 148 438 112 q 376 233 376 184 q 384 279 376 256 q 409 320 393 302 q 450 348 426 337 q 506 359 475 359 q 617 317 583 359 q 651 208 651 275 q 636 125 651 165 q 591 54 622 84 q 514 5 561 23 q 404 -12 468 -12 l 397 56 m 512 181 q 573 200 540 181 q 509 290 572 290 q 467 272 481 290 q 452 236 452 255 q 467 197 452 213 q 512 181 481 181 m 243 615 q 235 636 243 627 q 214 650 227 644 q 184 661 201 657 q 150 672 168 666 q 108 615 108 652 q 129 587 108 595 q 175 579 151 579 q 222 588 202 579 q 243 615 243 597 m 120 777 q 142 747 120 758 q 193 729 163 737 q 231 777 231 752 q 217 800 231 791 q 172 809 202 809 q 136 800 152 809 q 120 777 120 791 m 141 0 l 44 0 l 570 859 l 668 859 l 141 0 "},"Ń":{"x_min":76.390625,"x_max":618.109375,"ha":695,"o":"m 501 0 q 412 209 454 115 q 332 384 370 302 q 256 539 294 466 q 180 686 219 612 l 180 0 l 76 0 l 76 859 l 193 859 q 292 677 250 755 q 370 527 334 600 q 438 377 405 454 q 513 198 472 300 l 513 859 l 618 859 l 618 0 l 501 0 m 482 1078 l 307 909 l 249 960 l 407 1152 l 482 1078 "},"ῖ":{"x_min":75,"x_max":625.046875,"ha":695,"o":"m 625 20 q 544 -6 586 1 q 463 -15 502 -15 q 369 -2 408 -15 q 306 40 330 11 q 272 118 283 70 q 261 233 261 165 l 261 548 l 75 548 l 75 644 l 375 644 l 375 251 q 380 169 375 201 q 398 119 386 137 q 431 94 411 101 q 484 87 452 87 q 540 94 504 87 q 608 118 576 101 l 625 20 m 298 929 q 363 917 332 929 q 417 883 394 905 q 452 829 439 861 q 463 757 464 797 l 388 757 q 382 786 387 770 q 369 816 378 802 q 342 837 359 829 q 298 845 324 845 q 255 837 271 845 q 228 816 238 829 q 213 786 217 802 q 207 757 209 770 l 132 757 q 144 829 131 797 q 179 883 156 861 q 232 917 202 905 q 298 929 263 929 "},"ɀ":{"x_min":102.78125,"x_max":640.328125,"ha":695,"o":"m 583 558 q 514 478 556 529 q 422 363 472 427 q 323 228 373 300 q 231 88 273 156 q 284 71 261 83 q 328 45 308 59 q 363 18 348 31 q 390 -6 379 4 q 431 -50 411 -27 q 475 -90 452 -72 q 522 -119 497 -108 q 576 -130 547 -130 q 597 -129 581 -130 q 627 -126 612 -129 l 640 -220 q 601 -227 625 -225 q 562 -229 577 -229 q 491 -218 520 -229 q 436 -191 461 -208 q 388 -152 411 -175 q 341 -105 366 -130 q 307 -73 327 -91 q 261 -38 287 -55 q 201 -11 234 -22 q 127 0 168 0 l 102 0 l 102 76 q 175 197 131 131 q 266 328 219 263 q 357 450 312 393 q 436 548 402 508 l 118 548 l 118 644 l 583 644 l 583 558 "},"ᾛ":{"x_min":-386.15625,"x_max":694.5,"ha":695,"o":"m 679 -12 q 599 5 630 -8 q 550 42 568 19 q 527 97 533 65 q 520 170 520 129 l 520 644 l 622 644 l 622 190 q 625 146 622 163 q 636 116 627 129 q 658 97 644 104 q 694 84 672 90 l 679 -12 m 331 859 l 434 859 l 434 0 l 331 0 l 331 400 l 163 400 l 163 0 l 62 0 l 62 859 l 163 859 l 163 497 l 331 497 l 331 859 m -258 625 q -347 713 -308 664 q -386 804 -386 761 q -364 861 -386 842 q -313 881 -343 881 q -263 862 -281 881 q -244 814 -244 843 q -255 776 -244 793 q -288 751 -266 760 q -256 708 -275 728 q -212 668 -238 689 l -258 625 m -119 883 l 16 672 l -48 625 l -204 822 l -119 883 "},".":{"x_min":245.859375,"x_max":450.03125,"ha":695,"o":"m 450 88 q 422 15 450 47 q 348 -16 394 -16 q 273 15 301 -16 q 245 88 245 47 q 273 163 245 131 q 348 195 301 195 q 422 163 394 195 q 450 88 450 131 "},"ǀ":{"x_min":294.46875,"x_max":401.421875,"ha":695,"o":"m 294 970 l 401 970 l 401 -229 l 294 -229 l 294 970 "},"π":{"x_min":98.625,"x_max":595.875,"ha":695,"o":"m 595 0 l 480 0 l 480 548 l 213 548 l 213 0 l 98 0 l 98 644 l 595 644 l 595 0 "},"║":{"x_min":180.5625,"x_max":513.9375,"ha":695,"o":"m 291 -236 l 180 -236 l 180 1152 l 291 1152 l 291 -236 m 402 1152 l 513 1152 l 513 -236 l 402 -236 l 402 1152 "},"":{"x_min":38.890625,"x_max":638.9375,"ha":695,"o":"m 622 0 l 506 0 l 506 644 l 622 644 l 622 0 m 563 761 q 511 782 533 761 q 490 837 490 802 q 511 892 490 872 q 563 912 533 912 q 617 892 595 912 q 638 837 638 872 q 617 782 638 802 q 563 761 595 761 m 112 644 l 112 702 q 172 895 112 827 q 356 962 231 962 q 455 954 422 962 l 438 854 q 409 861 425 859 q 366 863 393 863 q 258 820 288 863 q 227 701 227 776 l 227 644 l 398 644 l 398 548 l 227 548 l 227 0 l 112 0 l 112 548 l 38 548 l 38 644 l 112 644 "},"Ъ":{"x_min":25,"x_max":638.9375,"ha":695,"o":"m 638 269 q 615 138 638 191 q 551 52 591 84 q 456 4 511 19 q 337 -9 401 -9 q 248 -4 294 -9 q 155 12 202 1 l 155 762 l 25 762 l 25 859 l 269 859 l 269 545 q 338 550 304 550 q 460 534 405 550 q 554 484 515 518 q 616 397 594 451 q 638 269 638 344 m 522 269 q 508 357 522 322 q 468 413 494 393 q 405 443 441 434 q 323 452 369 452 q 297 452 311 452 q 269 450 283 451 l 269 91 q 304 88 287 88 q 337 87 320 87 q 410 96 376 87 q 469 126 444 105 q 508 181 494 147 q 522 269 522 216 "},"ή":{"x_min":98.625,"x_max":600.046875,"ha":695,"o":"m 98 626 q 222 650 161 641 q 338 658 284 658 q 534 591 468 658 q 600 377 600 525 l 600 -229 l 486 -229 l 486 356 q 475 458 486 419 q 443 518 463 497 q 395 548 423 540 q 333 556 366 556 q 274 553 305 556 q 213 544 243 550 l 213 0 l 98 0 l 98 626 m 523 876 l 303 719 l 253 783 l 458 962 l 523 876 "},"ȵ":{"x_min":51.390625,"x_max":694.5,"ha":695,"o":"m 333 359 q 328 457 333 419 q 311 518 323 495 q 281 548 300 540 q 236 556 262 556 q 194 551 215 556 q 166 543 173 545 l 166 0 l 51 0 l 51 626 q 131 647 81 637 q 248 658 181 658 q 345 641 306 658 q 406 591 383 625 q 438 509 429 558 q 447 394 447 459 l 447 88 q 494 115 470 106 q 547 125 518 125 q 607 110 580 125 q 654 72 634 95 q 684 15 673 48 q 694 -51 694 -16 q 684 -113 694 -81 q 654 -171 675 -145 q 602 -213 634 -197 q 527 -229 570 -229 q 421 -200 462 -229 q 358 -120 380 -172 l 265 -233 l 205 -180 l 336 -25 q 335 -8 336 -19 q 334 15 334 2 q 333 40 333 29 q 333 56 333 51 l 333 359 m 529 38 q 484 25 502 38 q 447 -11 466 11 l 447 -41 q 469 -113 447 -86 q 527 -141 491 -141 q 581 -114 563 -141 q 600 -51 600 -87 q 582 12 600 -13 q 529 38 565 38 "},"Ś":{"x_min":76.390625,"x_max":618.109375,"ha":695,"o":"m 325 80 q 458 113 412 80 q 504 213 504 147 q 487 282 504 254 q 443 332 470 311 q 380 370 415 354 q 309 400 345 386 q 229 437 268 416 q 161 486 191 458 q 114 551 131 513 q 97 640 97 588 q 168 816 97 752 q 365 879 238 879 q 434 874 400 879 q 497 862 468 869 q 549 845 526 855 q 586 826 572 836 l 550 730 q 473 763 522 747 q 365 780 425 780 q 256 749 302 780 q 211 655 211 718 q 224 594 211 619 q 260 550 237 569 q 313 516 283 531 q 380 486 344 501 q 477 441 433 463 q 552 388 520 419 q 600 316 583 358 q 618 215 618 275 q 542 42 618 102 q 325 -18 466 -18 q 238 -11 279 -18 q 167 4 198 -5 q 112 23 136 13 q 76 41 88 33 l 111 136 q 193 100 138 120 q 325 80 247 80 m 494 1078 l 319 909 l 261 960 l 419 1152 l 494 1078 "},"à":{"x_min":80.5625,"x_max":600.046875,"ha":695,"o":"m 354 81 q 431 84 397 81 q 487 91 465 87 l 487 283 q 434 294 465 290 q 368 298 402 298 q 305 293 336 298 q 251 276 275 288 q 212 243 227 263 q 197 193 197 223 q 239 106 197 130 q 354 81 281 81 m 343 659 q 464 641 415 659 q 544 591 513 623 q 587 513 575 559 q 600 413 600 468 l 600 11 q 493 -5 559 4 q 358 -15 427 -15 q 255 -6 305 -15 q 166 25 205 2 q 104 88 127 48 q 80 191 80 129 q 104 285 80 247 q 167 347 129 323 q 254 381 205 370 q 354 391 304 391 q 487 376 422 391 l 487 408 q 481 464 487 437 q 457 513 475 491 q 410 549 440 536 q 333 562 380 562 q 229 554 273 562 q 161 537 184 545 l 147 632 q 225 651 170 643 q 343 659 280 659 m 300 962 l 458 770 l 400 719 l 226 888 l 300 962 "},"₀":{"x_min":161.125,"x_max":533.375,"ha":695,"o":"m 161 241 q 210 426 161 362 q 347 490 259 490 q 484 426 434 490 q 533 241 533 362 q 484 55 533 119 q 347 -8 434 -8 q 210 55 259 -8 q 161 241 161 119 m 441 241 q 437 308 441 276 q 422 363 433 340 q 393 399 411 386 q 347 413 375 413 q 301 399 319 413 q 272 363 283 386 q 256 308 261 340 q 251 241 251 276 q 256 174 251 205 q 272 120 261 142 q 301 83 283 97 q 347 69 319 69 q 393 83 375 69 q 422 120 411 97 q 437 174 433 142 q 441 241 441 205 m 400 244 q 385 207 400 223 q 347 191 370 191 q 309 207 323 191 q 295 244 295 223 q 309 282 295 266 q 347 298 323 298 q 385 282 370 298 q 400 244 400 266 "},"₴":{"x_min":43.0625,"x_max":650.046875,"ha":695,"o":"m 43 497 l 43 580 l 466 580 q 483 650 483 611 q 470 706 483 682 q 436 746 456 730 q 388 770 415 762 q 334 779 362 779 q 228 767 270 779 q 156 744 186 755 l 133 844 q 234 868 186 859 q 334 877 283 877 q 457 857 406 877 q 538 804 508 837 q 583 731 569 772 q 597 648 597 690 q 584 580 597 609 l 650 580 l 650 497 l 537 497 q 468 445 508 470 q 380 391 429 420 l 326 361 l 650 361 l 650 277 l 230 277 q 211 205 211 248 q 250 113 211 147 q 377 80 288 80 q 496 93 450 80 q 584 126 543 106 l 618 34 q 497 -6 559 4 q 376 -18 436 -18 q 240 0 294 -18 q 155 47 187 18 q 110 116 123 77 q 97 197 97 155 q 100 240 97 220 q 109 277 102 261 l 43 277 l 43 361 l 158 361 q 231 413 187 388 q 331 470 276 438 l 377 497 l 43 497 "},"¦":{"x_min":294.46875,"x_max":401.421875,"ha":695,"o":"m 294 245 l 401 245 l 401 -229 l 294 -229 l 294 245 m 294 970 l 401 970 l 401 495 l 294 495 l 294 970 "},"Ѣ":{"x_min":25,"x_max":651.4375,"ha":695,"o":"m 262 716 l 262 531 l 334 531 q 472 518 412 531 q 571 472 531 504 q 631 390 611 441 q 651 265 651 338 q 340 -6 651 -6 q 243 -2 293 -6 q 148 13 193 1 l 148 716 l 25 716 l 25 813 l 148 813 l 148 915 l 262 915 l 262 813 l 494 813 l 494 716 l 262 716 m 344 88 q 422 97 387 88 q 484 127 458 106 q 523 180 509 147 q 537 263 537 213 q 523 349 537 315 q 483 402 509 383 q 418 430 456 422 q 330 438 380 438 l 262 438 l 262 94 q 289 90 279 91 q 308 89 300 90 q 325 88 316 88 q 344 88 333 88 "},"ᾼ":{"x_min":12.5,"x_max":694.5,"ha":695,"o":"m 330 225 l 147 225 l 116 0 l 12 0 q 45 198 27 91 q 81 418 62 305 q 124 643 101 530 q 172 859 147 757 l 313 859 q 361 643 338 757 q 402 418 383 530 q 438 198 422 305 q 470 0 455 91 l 362 0 l 330 225 m 679 -12 q 599 5 630 -8 q 550 42 568 19 q 527 97 533 65 q 520 170 520 129 l 520 644 l 622 644 l 622 190 q 625 146 622 163 q 636 116 627 129 q 658 97 644 104 q 694 84 672 90 l 679 -12 m 238 759 q 224 689 231 727 q 207 599 216 651 q 186 479 198 547 q 161 319 175 411 l 316 319 q 290 481 302 412 q 270 601 279 550 q 252 691 261 652 q 238 759 244 729 "},"Ҧ":{"x_min":75,"x_max":644.5,"ha":695,"o":"m 391 859 l 391 547 q 417 549 405 548 q 448 550 429 550 q 597 459 551 550 q 644 183 644 369 q 629 -7 644 70 q 588 -135 615 -86 q 520 -206 561 -184 q 429 -229 480 -229 q 404 -226 415 -229 l 404 -130 q 413 -132 408 -131 q 429 -133 419 -133 q 484 -111 462 -133 q 518 -48 505 -90 q 535 52 530 -6 q 540 190 540 112 q 438 450 540 450 q 415 449 426 450 q 391 447 404 448 l 391 0 l 290 0 l 290 762 l 176 762 l 176 0 l 75 0 l 75 859 l 391 859 "},"e":{"x_min":55.5625,"x_max":632,"ha":695,"o":"m 359 659 q 561 578 490 659 q 632 331 632 497 l 632 291 l 170 291 q 236 139 177 191 q 402 87 295 87 q 506 97 463 87 q 572 118 550 106 l 587 20 q 512 -2 566 9 q 390 -15 458 -15 q 243 10 306 -15 q 138 80 180 36 q 76 186 97 125 q 55 320 55 248 q 81 470 55 406 q 151 576 108 534 q 248 638 194 618 q 359 659 302 659 m 515 384 q 472 514 515 466 q 358 562 429 562 q 285 547 318 562 q 229 506 252 531 q 191 450 205 481 q 173 384 177 418 l 515 384 "},"Ἱ":{"x_min":-106.03125,"x_max":570.875,"ha":695,"o":"m 404 762 l 404 97 l 570 97 l 570 0 l 123 0 l 123 97 l 290 97 l 290 762 l 123 762 l 123 859 l 570 859 l 570 762 l 404 762 m 28 625 q -23 665 0 643 q -65 712 -47 688 q -94 760 -83 736 q -106 804 -106 783 q -83 861 -106 842 q -29 881 -61 881 q 22 862 2 881 q 42 814 42 843 q -4 751 42 770 q 28 708 9 728 q 73 668 48 689 l 28 625 "},"ὗ":{"x_min":98.625,"x_max":593.109375,"ha":695,"o":"m 345 -13 q 222 11 270 -13 q 147 77 175 36 q 109 172 119 119 q 98 279 98 225 l 98 644 l 213 644 l 213 284 q 247 131 213 176 q 345 86 280 86 q 445 131 412 86 q 479 284 479 176 l 479 644 l 593 644 l 593 279 q 582 172 593 225 q 544 77 572 119 q 468 11 516 36 q 345 -13 420 -13 m 411 712 q 365 741 388 725 q 322 775 341 757 q 290 816 302 794 q 277 861 277 837 q 297 915 277 897 q 344 933 316 933 q 395 914 379 933 q 411 873 411 895 q 401 843 411 857 q 376 818 391 829 q 445 755 395 791 l 411 712 m 347 1093 q 409 1083 379 1093 q 461 1054 438 1073 q 498 1006 484 1034 q 512 940 512 977 l 512 937 l 445 937 q 419 991 443 966 q 347 1016 395 1016 q 275 991 298 1016 q 248 937 251 966 l 181 937 l 181 940 q 195 1006 181 977 q 232 1054 209 1034 q 285 1083 255 1073 q 347 1093 315 1093 "},"ļ":{"x_min":75,"x_max":625.046875,"ha":695,"o":"m 469 -15 q 368 1 408 -15 q 304 51 327 18 q 270 134 280 84 q 261 248 261 183 l 261 858 l 75 858 l 75 955 l 375 955 l 375 248 q 381 169 375 200 q 400 120 387 138 q 433 94 413 101 q 479 87 452 87 q 554 97 519 87 q 608 118 588 106 l 625 20 q 601 10 616 16 q 565 -1 586 4 q 520 -11 544 -6 q 469 -15 495 -15 m 405 -62 l 516 -62 q 518 -77 518 -69 q 519 -90 519 -84 q 477 -202 519 -169 q 370 -236 434 -236 q 312 -227 343 -236 l 312 -161 l 333 -161 q 392 -140 379 -161 q 405 -80 405 -120 l 405 -62 "},"Ѓ":{"x_min":75,"x_max":638.9375,"ha":695,"o":"m 198 97 l 198 859 l 638 859 l 638 762 l 312 762 l 312 97 l 498 97 l 498 0 l 75 0 l 75 97 l 198 97 m 568 1078 l 393 909 l 335 960 l 493 1152 l 568 1078 "},"ò":{"x_min":55.5625,"x_max":638.9375,"ha":695,"o":"m 638 322 q 617 184 638 245 q 556 77 595 122 q 463 9 518 33 q 345 -15 409 -15 q 229 9 283 -15 q 137 77 176 33 q 77 184 98 122 q 55 322 55 245 q 77 461 55 398 q 137 567 98 523 q 229 635 176 611 q 345 659 283 659 q 463 635 409 659 q 556 567 518 611 q 617 461 595 523 q 638 322 638 398 m 520 322 q 473 495 520 431 q 345 558 426 558 q 220 495 266 558 q 173 322 173 431 q 220 150 173 213 q 345 87 266 87 q 473 150 426 87 q 520 322 520 213 m 313 962 l 471 770 l 413 719 l 239 888 l 313 962 "},"^":{"x_min":55.5625,"x_max":638.9375,"ha":695,"o":"m 398 859 l 638 437 l 547 390 l 347 740 l 147 390 l 55 437 l 295 859 l 398 859 "},"":{"x_min":145.84375,"x_max":533.375,"ha":695,"o":"m 470 1018 l 470 729 l 533 729 l 533 655 l 470 655 l 470 539 l 387 539 l 387 655 l 145 655 l 145 712 q 189 783 162 743 q 250 865 216 824 q 319 947 283 907 q 391 1018 355 987 l 470 1018 m 387 915 q 308 826 348 875 q 238 729 268 776 l 387 729 l 387 915 "},"Ӑ":{"x_min":12.5,"x_max":682,"ha":695,"o":"m 561 0 l 509 225 l 179 225 l 129 0 l 12 0 q 65 198 36 91 q 128 418 94 305 q 200 643 162 530 q 279 859 237 757 l 420 859 q 497 643 461 757 q 567 418 534 530 q 629 198 600 305 q 682 0 658 91 l 561 0 m 345 759 q 276 556 313 672 q 205 319 238 441 l 483 319 q 414 560 451 444 q 345 759 377 676 m 347 941 q 220 981 269 941 q 161 1091 172 1020 l 248 1115 q 283 1050 259 1075 q 347 1026 306 1026 q 411 1050 387 1026 q 445 1115 434 1075 l 531 1091 q 472 981 520 1020 q 347 941 425 941 "},"к":{"x_min":98.625,"x_max":663.9375,"ha":695,"o":"m 330 354 q 415 284 368 326 q 509 193 462 241 q 597 93 555 144 q 663 0 638 43 l 527 0 q 462 88 501 43 q 379 175 423 133 q 292 251 336 216 q 213 309 248 286 l 213 0 l 98 0 l 98 644 l 213 644 l 213 375 q 366 507 290 441 q 504 644 443 573 l 638 644 q 495 498 579 573 q 330 354 411 423 "},"Ȣ":{"x_min":50,"x_max":644.5,"ha":695,"o":"m 587 668 q 581 608 587 637 q 562 552 575 579 q 530 506 550 526 q 484 473 511 486 q 545 442 516 461 q 596 397 575 423 q 631 335 618 370 q 644 255 644 300 q 627 151 644 198 q 575 68 611 104 q 483 13 538 33 q 348 -5 427 -5 q 212 13 269 -5 q 119 68 155 33 q 66 150 83 102 q 50 255 50 198 q 62 335 50 300 q 96 397 75 370 q 147 442 118 423 q 208 473 176 461 q 131 553 155 498 q 106 668 106 608 q 111 769 106 727 q 127 859 116 811 l 241 859 q 228 772 234 815 q 222 686 222 730 q 252 559 222 602 q 347 515 281 515 q 442 559 412 515 q 472 686 472 602 q 466 772 472 730 q 452 859 459 815 l 566 859 q 582 769 577 811 q 587 668 587 727 m 347 415 q 276 406 309 415 q 218 377 243 397 q 178 328 193 358 q 163 255 163 298 q 215 130 163 168 q 347 93 268 93 q 418 102 384 93 q 476 130 451 111 q 516 180 501 150 q 530 255 530 211 q 516 328 530 298 q 476 377 501 358 q 418 406 451 397 q 347 415 384 415 "},"᾿":{"x_min":256.96875,"x_max":436.140625,"ha":695,"o":"m 256 755 q 301 795 281 776 q 334 838 320 815 q 300 863 313 847 q 287 901 287 880 q 308 949 287 930 q 359 968 329 968 q 413 948 391 968 q 436 891 436 929 q 425 847 436 870 q 395 799 413 823 q 352 752 377 775 q 301 712 327 730 l 256 755 "},"ǘ":{"x_min":94.453125,"x_max":595.875,"ha":695,"o":"m 595 18 q 496 -2 558 8 q 351 -13 434 -13 q 229 7 277 -13 q 150 68 180 29 q 106 162 119 108 q 94 281 94 216 l 94 644 l 208 644 l 208 306 q 243 137 208 187 q 362 87 279 87 q 399 88 380 87 q 434 92 418 90 q 463 96 451 94 q 480 100 476 98 l 480 644 l 595 644 l 595 18 m 215 727 q 168 746 187 727 q 148 795 148 765 q 168 845 148 827 q 215 863 187 863 q 263 845 244 863 q 283 795 283 827 q 263 746 283 765 q 215 727 244 727 m 479 727 q 430 746 450 727 q 411 795 411 765 q 430 845 411 827 q 479 863 450 863 q 526 845 506 863 q 545 795 545 827 q 526 746 545 765 q 479 727 506 727 m 412 1059 l 487 994 l 350 837 l 294 884 l 412 1059 "},"ˆ":{"x_min":179.1875,"x_max":515.3125,"ha":695,"o":"m 347 954 l 515 776 l 468 722 l 347 830 l 226 722 l 179 776 l 347 954 "},"ū":{"x_min":94.453125,"x_max":595.875,"ha":695,"o":"m 595 18 q 496 -2 558 8 q 351 -13 434 -13 q 229 7 277 -13 q 150 68 180 29 q 106 162 119 108 q 94 281 94 216 l 94 644 l 208 644 l 208 306 q 243 137 208 187 q 362 87 279 87 q 399 88 380 87 q 434 92 418 90 q 463 96 451 94 q 480 100 476 98 l 480 644 l 595 644 l 595 18 m 170 882 l 523 882 l 523 793 l 170 793 l 170 882 "},"č":{"x_min":68.0625,"x_max":626.4375,"ha":695,"o":"m 68 320 q 95 472 68 408 q 172 577 123 536 q 285 639 220 619 q 423 659 350 659 q 517 653 470 659 q 616 630 563 647 l 590 531 q 506 553 544 548 q 429 558 468 558 q 334 545 379 558 q 257 503 290 531 q 205 429 225 475 q 186 320 186 384 q 204 215 186 259 q 254 143 222 172 q 333 101 287 115 q 434 87 379 87 q 520 92 479 87 q 609 113 561 97 l 626 18 q 527 -7 577 0 q 419 -15 477 -15 q 277 6 341 -15 q 165 69 212 27 q 93 174 119 111 q 68 320 68 237 m 248 904 l 295 958 l 416 850 l 537 958 l 584 904 l 416 726 l 248 904 "},"’":{"x_min":205.578125,"x_max":486.15625,"ha":695,"o":"m 205 679 q 254 690 230 684 q 300 706 279 695 q 337 732 320 716 q 363 776 354 748 q 299 810 319 780 q 279 869 279 840 q 311 953 279 925 q 381 982 343 982 q 459 945 433 982 q 486 855 486 908 q 470 771 486 815 q 421 689 454 727 q 340 624 388 651 q 226 588 291 597 l 205 679 "},"Ν":{"x_min":76.390625,"x_max":619.5,"ha":695,"o":"m 504 0 q 446 134 480 58 q 370 297 412 209 q 280 484 329 386 q 180 686 231 583 l 180 0 l 76 0 l 76 859 l 191 859 q 283 693 234 784 q 376 511 331 602 q 457 335 420 419 q 515 191 494 251 l 515 859 l 619 859 l 619 0 l 504 0 "},"Q":{"x_min":40.28125,"x_max":655.609375,"ha":695,"o":"m 40 429 q 62 629 40 544 q 125 768 84 713 q 221 850 165 823 q 347 877 277 877 q 472 850 415 877 q 569 768 529 823 q 632 629 609 713 q 655 429 655 544 q 637 247 655 326 q 586 113 619 169 q 505 26 552 58 q 401 -15 458 -5 q 425 -63 405 -43 q 474 -97 444 -83 q 542 -122 504 -112 q 622 -137 580 -131 l 595 -229 q 486 -204 538 -219 q 393 -163 434 -188 q 322 -102 351 -138 q 283 -13 293 -66 q 105 117 170 9 q 40 429 40 225 m 156 429 q 202 169 156 259 q 344 79 248 79 q 490 169 441 79 q 538 429 538 259 q 490 688 538 598 q 344 779 441 779 q 202 688 248 779 q 156 429 156 598 "},"ȝ":{"x_min":79.171875,"x_max":601.4375,"ha":695,"o":"m 290 661 q 402 648 350 661 q 492 609 454 636 q 552 541 530 583 q 573 440 573 500 q 535 334 573 383 q 436 259 497 284 q 559 187 516 241 q 601 66 601 133 q 554 -76 601 -19 q 434 -167 508 -133 q 268 -215 359 -201 q 87 -229 176 -229 l 79 -133 q 157 -128 113 -131 q 246 -117 201 -125 q 334 -96 291 -109 q 411 -61 377 -83 q 464 -9 444 -40 q 484 62 484 20 q 455 136 484 108 q 384 178 426 163 q 295 197 341 193 q 213 201 248 201 l 198 201 l 198 297 q 295 304 248 297 q 377 327 341 311 q 435 371 413 344 q 456 438 456 398 q 413 531 456 498 q 290 563 369 563 q 227 559 258 563 q 171 550 197 555 q 127 538 145 544 q 100 527 108 531 l 79 627 q 112 637 90 632 q 163 647 134 643 q 225 656 193 652 q 290 661 258 661 "},"ᾅ":{"x_min":68.0625,"x_max":654.21875,"ha":695,"o":"m 373 658 q 500 645 440 658 q 593 620 561 632 l 593 204 q 595 153 593 173 q 603 120 597 133 q 622 98 609 106 q 654 84 634 90 l 636 -12 q 570 8 595 -4 q 522 51 545 20 q 449 6 494 27 q 341 -13 404 -13 q 223 11 275 -13 q 138 80 172 36 q 86 186 104 125 q 68 320 68 247 q 89 461 68 398 q 150 567 111 523 q 247 634 190 611 q 373 658 304 658 m 351 86 q 431 102 395 86 q 486 133 468 118 q 480 170 481 151 q 479 209 479 188 l 479 544 q 440 554 469 548 q 377 559 411 559 q 238 496 290 559 q 186 320 186 433 q 195 228 186 270 q 224 154 204 186 q 275 104 244 122 q 351 86 306 86 m 286 712 q 197 800 236 751 q 158 891 158 848 q 179 948 158 929 q 230 968 201 968 q 281 949 262 968 q 300 901 300 930 q 288 863 300 880 q 255 838 277 847 q 287 795 269 815 q 331 755 305 776 l 286 712 m 586 909 l 429 712 l 365 759 l 500 970 l 586 909 m 387 -80 q 400 -140 387 -120 q 459 -161 413 -161 l 480 -161 l 480 -227 q 422 -236 448 -236 q 315 -202 358 -236 q 273 -90 273 -169 q 274 -77 273 -84 q 276 -62 275 -69 l 387 -62 l 387 -80 "},"Ҋ":{"x_min":76.390625,"x_max":668.265625,"ha":695,"o":"m 76 0 l 76 859 l 186 859 l 186 195 q 242 338 206 255 q 319 513 277 422 q 406 694 361 604 q 494 859 452 784 l 613 859 l 613 102 l 668 102 q 658 13 669 59 q 627 -76 647 -31 q 578 -161 607 -120 q 518 -234 550 -202 l 434 -181 q 463 -150 447 -169 q 493 -106 479 -130 q 520 -54 508 -81 q 540 0 533 -27 l 504 0 l 504 680 q 322 295 400 473 q 195 0 244 118 l 76 0 m 345 941 q 219 981 268 941 q 159 1091 170 1020 l 247 1115 q 281 1050 258 1075 q 345 1026 305 1026 q 409 1050 386 1026 q 444 1115 433 1075 l 530 1091 q 471 981 519 1020 q 345 941 423 941 "},"œ":{"x_min":43.0625,"x_max":663.9375,"ha":695,"o":"m 645 20 q 586 -6 618 1 q 523 -15 554 -15 q 433 11 475 -15 q 363 109 391 38 q 308 15 340 45 q 218 -15 276 -15 q 139 13 172 -15 q 85 90 106 43 q 53 200 63 138 q 43 325 43 261 q 53 447 43 387 q 84 555 63 508 q 138 631 105 602 q 218 659 172 659 q 306 630 269 659 q 363 534 344 601 q 422 629 388 600 q 495 659 455 659 q 663 331 663 659 q 663 313 663 323 q 662 291 663 304 l 418 291 q 425 215 418 252 q 447 150 433 179 q 485 104 462 122 q 538 87 508 87 q 577 93 556 87 q 630 118 598 98 l 645 20 m 234 86 q 269 105 255 86 q 292 157 283 125 q 304 231 301 190 q 308 318 308 273 q 304 406 308 362 q 290 484 300 450 q 264 539 280 518 q 226 561 248 561 q 190 541 205 561 q 165 488 175 520 q 152 414 156 456 q 148 329 148 372 q 153 240 148 283 q 168 162 158 197 q 195 106 179 127 q 234 86 211 86 m 559 384 q 541 514 559 466 q 495 562 523 562 q 441 513 461 562 q 420 384 420 463 l 559 384 "},"ӗ":{"x_min":55.5625,"x_max":632,"ha":695,"o":"m 359 659 q 561 578 490 659 q 632 331 632 497 l 632 291 l 170 291 q 236 139 177 191 q 402 87 295 87 q 506 97 463 87 q 572 118 550 106 l 587 20 q 512 -2 566 9 q 390 -15 458 -15 q 243 10 306 -15 q 138 80 180 36 q 76 186 97 125 q 55 320 55 248 q 81 470 55 406 q 151 576 108 534 q 248 638 194 618 q 359 659 302 659 m 515 384 q 472 514 515 466 q 358 562 429 562 q 285 547 318 562 q 229 506 252 531 q 191 450 205 481 q 173 384 177 418 l 515 384 m 347 748 q 220 788 269 748 q 161 898 172 827 l 248 922 q 283 857 259 882 q 347 833 306 833 q 411 857 387 833 q 445 922 434 882 l 531 898 q 472 788 520 827 q 347 748 425 748 "},"Ὲ":{"x_min":-172.59375,"x_max":638.9375,"ha":695,"o":"m 126 0 l 126 859 l 608 859 l 608 762 l 240 762 l 240 498 l 562 498 l 562 401 l 240 401 l 240 97 l 638 97 l 638 0 l 126 0 m -98 875 l 59 683 l 1 632 l -172 801 l -98 875 "},"Ɵ":{"x_min":40.28125,"x_max":655.609375,"ha":695,"o":"m 40 430 q 62 630 40 545 q 125 770 84 715 q 221 852 165 825 q 347 879 277 879 q 472 852 415 879 q 569 770 529 825 q 632 630 609 715 q 655 430 655 545 q 632 230 655 315 q 569 90 609 145 q 472 8 529 34 q 347 -18 415 -18 q 221 8 277 -18 q 125 90 165 34 q 62 230 84 145 q 40 430 40 315 m 344 80 q 483 159 436 80 q 537 388 530 238 l 156 388 q 209 159 163 238 q 344 80 254 80 m 344 780 q 209 702 255 780 q 156 477 163 625 l 537 477 q 482 702 530 625 q 344 780 434 780 "},"ș":{"x_min":91.671875,"x_max":602.828125,"ha":695,"o":"m 487 161 q 459 218 487 195 q 388 256 430 240 q 295 289 345 273 q 203 329 245 305 q 132 387 161 352 q 104 477 104 422 q 167 607 104 555 q 365 659 230 659 q 474 652 418 659 q 570 632 530 644 l 550 529 q 519 541 538 534 q 475 552 500 547 q 421 559 450 556 q 366 562 393 562 q 216 480 216 562 q 245 431 216 451 q 316 394 273 411 q 409 360 359 377 q 502 318 459 343 q 574 257 545 293 q 602 168 602 222 q 534 32 602 80 q 319 -15 466 -15 q 197 -4 252 -15 q 91 29 141 6 l 113 133 q 215 96 162 111 q 330 81 269 81 q 487 161 487 81 m 281 -62 l 392 -62 q 394 -77 394 -69 q 395 -90 395 -84 q 353 -202 395 -169 q 246 -236 310 -236 q 188 -227 219 -236 l 188 -161 l 209 -161 q 268 -140 255 -161 q 281 -80 281 -120 l 281 -62 "},"ἱ":{"x_min":75,"x_max":625.046875,"ha":695,"o":"m 625 20 q 544 -6 586 1 q 463 -15 502 -15 q 369 -2 408 -15 q 306 40 330 11 q 272 118 283 70 q 261 233 261 165 l 261 548 l 75 548 l 75 644 l 375 644 l 375 251 q 380 169 375 201 q 398 119 386 137 q 431 94 411 101 q 484 87 452 87 q 540 94 504 87 q 608 118 576 101 l 625 20 m 355 712 q 303 752 327 730 q 261 799 279 775 q 232 847 243 823 q 220 891 220 870 q 243 948 220 929 q 297 968 265 968 q 349 949 329 968 q 369 901 369 930 q 322 838 369 857 q 355 795 336 815 q 400 755 375 776 l 355 712 "},"Ѵ":{"x_min":18.0625,"x_max":707,"ha":695,"o":"m 604 872 q 662 859 637 872 q 707 829 687 845 l 655 750 q 611 772 634 772 q 595 768 601 772 q 583 752 588 763 q 572 720 577 740 q 558 666 566 700 l 391 0 l 255 0 q 195 200 223 104 q 138 397 166 295 q 81 611 111 498 q 18 859 52 723 l 141 859 q 225 477 181 668 q 319 112 269 287 l 452 695 q 472 770 462 737 q 498 825 481 802 q 540 860 515 848 q 604 872 565 872 "},"Ȫ":{"x_min":41.671875,"x_max":657,"ha":695,"o":"m 222 898 q 174 917 193 898 q 155 966 155 936 q 174 1016 155 998 q 222 1034 193 1034 q 270 1016 251 1034 q 288 966 288 998 q 270 917 288 936 q 222 898 251 898 m 472 898 q 425 917 444 898 q 405 966 405 936 q 425 1016 405 998 q 472 1034 444 1034 q 519 1016 500 1034 q 538 966 538 998 q 519 917 538 936 q 472 898 500 898 m 190 1151 l 504 1151 l 504 1072 l 190 1072 l 190 1151 m 41 416 q 63 613 41 531 q 126 748 86 695 q 222 826 166 801 q 348 851 279 851 q 473 826 416 851 q 570 748 530 801 q 634 613 611 695 q 657 416 657 531 q 634 218 657 301 q 570 83 611 136 q 473 6 530 30 q 348 -18 416 -18 q 222 6 279 -18 q 126 83 166 30 q 63 218 86 136 q 41 416 41 301 m 158 416 q 204 163 158 247 q 345 80 250 80 q 540 416 540 80 q 345 752 540 752 q 204 669 250 752 q 158 416 158 586 "},"ǎ":{"x_min":80.5625,"x_max":600.046875,"ha":695,"o":"m 354 81 q 431 84 397 81 q 487 91 465 87 l 487 283 q 434 294 465 290 q 368 298 402 298 q 305 293 336 298 q 251 276 275 288 q 212 243 227 263 q 197 193 197 223 q 239 106 197 130 q 354 81 281 81 m 343 659 q 464 641 415 659 q 544 591 513 623 q 587 513 575 559 q 600 413 600 468 l 600 11 q 493 -5 559 4 q 358 -15 427 -15 q 255 -6 305 -15 q 166 25 205 2 q 104 88 127 48 q 80 191 80 129 q 104 285 80 247 q 167 347 129 323 q 254 381 205 370 q 354 391 304 391 q 487 376 422 391 l 487 408 q 481 464 487 437 q 457 513 475 491 q 410 549 440 536 q 333 562 380 562 q 229 554 273 562 q 161 537 184 545 l 147 632 q 225 651 170 643 q 343 659 280 659 m 179 904 l 226 958 l 347 850 l 468 958 l 515 904 l 347 726 l 179 904 "},"₈":{"x_min":165.296875,"x_max":529.203125,"ha":695,"o":"m 529 131 q 482 30 529 69 q 345 -8 436 -8 q 258 4 293 -8 q 202 38 223 17 q 173 81 181 58 q 165 127 165 105 q 187 192 165 162 q 238 243 209 223 q 194 293 211 263 q 177 354 177 322 q 222 449 177 409 q 345 490 268 490 q 423 477 391 490 q 475 446 455 465 q 505 404 495 427 q 515 359 515 381 q 497 297 515 324 q 450 249 479 269 q 510 199 494 227 q 529 131 526 172 m 251 127 q 256 106 251 117 q 272 86 261 95 q 301 71 283 77 q 345 65 319 65 q 418 83 397 65 q 440 127 440 102 q 404 181 440 162 q 306 216 369 201 q 265 176 280 197 q 251 127 251 155 m 429 361 q 410 396 429 376 q 345 416 391 416 q 281 397 300 416 q 262 358 262 377 q 288 310 262 333 q 373 276 315 287 q 413 313 398 294 q 429 361 429 333 "},"Ǖ":{"x_min":66.671875,"x_max":627.828125,"ha":695,"o":"m 222 898 q 174 917 193 898 q 155 966 155 936 q 174 1016 155 998 q 222 1034 193 1034 q 270 1016 251 1034 q 288 966 288 998 q 270 917 288 936 q 222 898 251 898 m 472 898 q 425 917 444 898 q 405 966 405 936 q 425 1016 405 998 q 472 1034 444 1034 q 519 1016 500 1034 q 538 966 538 998 q 519 917 538 936 q 472 898 500 898 m 190 1151 l 504 1151 l 504 1072 l 190 1072 l 190 1151 m 347 -18 q 217 4 270 -18 q 130 66 163 26 q 81 165 97 106 q 66 295 66 223 l 66 832 l 180 832 l 180 308 q 192 199 180 243 q 225 129 204 155 q 277 91 247 102 q 347 80 308 80 q 416 91 386 80 q 468 129 447 102 q 502 199 490 155 q 513 308 513 243 l 513 832 l 627 832 l 627 295 q 612 165 627 223 q 563 66 597 106 q 477 4 530 26 q 347 -18 423 -18 "},"д":{"x_min":37.5,"x_max":644.5,"ha":695,"o":"m 37 97 l 87 97 q 152 219 129 156 q 188 349 176 281 q 204 489 200 416 q 209 644 208 562 l 590 644 l 590 97 l 644 97 l 644 -179 l 536 -179 l 536 0 l 145 0 l 145 -179 l 37 -179 l 37 97 m 476 97 l 476 548 l 319 548 q 313 431 319 493 q 295 309 308 369 q 259 195 281 250 q 205 97 237 140 l 476 97 "},"Ⱥ":{"x_min":12.5,"x_max":682,"ha":695,"o":"m 561 0 l 509 225 l 387 225 l 288 -125 l 201 -100 l 293 225 l 179 225 l 129 0 l 12 0 q 65 198 36 91 q 128 418 94 305 q 200 643 162 530 q 279 859 237 757 l 420 859 q 434 818 427 837 q 448 776 440 798 l 502 963 l 587 941 l 500 633 q 551 467 526 551 q 599 302 576 383 q 643 143 622 220 q 682 0 663 66 l 561 0 m 345 759 q 276 556 313 672 q 205 319 238 441 l 319 319 l 400 605 q 372 687 384 651 q 345 759 359 723 m 448 455 l 408 316 l 487 316 l 448 455 "},"ӥ":{"x_min":87.5,"x_max":608.375,"ha":695,"o":"m 608 644 l 608 0 l 495 0 l 495 491 q 417 380 458 444 q 335 249 376 316 q 256 116 294 181 q 190 0 219 51 l 87 0 l 87 644 l 198 644 l 198 180 q 268 297 230 234 q 345 424 305 361 q 426 545 386 487 q 505 644 466 602 l 608 644 m 229 763 q 179 784 201 763 q 156 837 156 805 q 179 889 156 869 q 229 909 201 909 q 279 889 258 909 q 301 837 301 869 q 279 784 301 805 q 229 763 258 763 m 465 763 q 414 784 436 763 q 393 837 393 805 q 414 889 393 869 q 465 909 436 909 q 516 889 494 909 q 537 837 537 869 q 516 784 537 805 q 465 763 494 763 "},"¯":{"x_min":170.84375,"x_max":523.65625,"ha":695,"o":"m 170 882 l 523 882 l 523 793 l 170 793 l 170 882 "},"ƕ":{"x_min":50,"x_max":641.71875,"ha":695,"o":"m 393 259 q 397 172 393 205 q 411 120 402 138 q 434 96 420 102 q 463 90 447 90 q 493 95 480 90 q 514 119 505 101 q 527 170 523 137 q 531 258 531 204 l 531 644 l 641 644 l 641 241 q 634 140 641 187 q 606 59 626 93 q 551 5 586 25 q 461 -13 516 -13 q 370 5 405 -13 q 316 59 336 25 q 290 141 297 94 q 283 243 283 188 l 283 434 q 277 497 283 473 q 261 535 270 522 q 240 552 252 548 q 218 556 229 556 q 186 550 202 556 q 158 536 169 543 l 158 0 l 50 0 l 50 943 l 158 962 l 158 632 q 196 651 173 644 q 240 658 219 658 q 295 648 268 658 q 344 615 322 638 q 379 552 366 591 q 393 452 393 512 l 393 259 "},"З":{"x_min":52.78125,"x_max":645.890625,"ha":695,"o":"m 195 502 l 241 502 q 327 509 283 502 q 409 531 372 515 q 469 577 445 548 q 493 650 493 605 q 446 742 493 707 q 325 777 400 777 q 203 763 258 777 q 120 733 148 748 l 83 823 q 181 859 115 844 q 326 875 248 875 q 439 861 387 875 q 529 821 491 848 q 587 752 566 794 q 608 652 608 709 q 570 540 608 593 q 456 463 531 487 q 528 436 494 454 q 588 390 562 418 q 630 325 615 362 q 645 237 645 287 q 622 120 645 168 q 554 41 598 72 q 450 -2 511 11 q 313 -16 388 -16 q 225 -9 266 -16 q 150 6 184 -2 q 91 27 116 16 q 52 44 66 37 l 87 136 q 175 100 116 120 q 312 80 233 80 q 472 117 412 80 q 531 240 531 154 q 509 322 531 290 q 450 373 487 355 q 361 398 412 391 q 254 405 311 405 l 195 405 l 195 502 "},"⅝":{"x_min":15.28125,"x_max":654.21875,"ha":695,"o":"m 354 95 q 366 137 354 112 q 413 179 377 162 q 380 209 394 190 q 366 261 366 229 q 378 304 366 286 q 409 336 390 323 q 454 354 429 348 q 505 359 479 359 q 555 353 530 359 q 600 334 580 347 q 631 303 619 322 q 643 261 643 284 q 633 221 643 241 q 591 184 623 201 q 636 152 618 172 q 654 97 654 131 q 641 50 654 70 q 606 17 627 30 q 559 -2 586 4 q 504 -9 531 -9 q 447 -4 475 -9 q 400 13 420 1 q 366 46 379 26 q 354 95 354 66 m 111 0 l 15 0 l 540 859 l 638 859 l 111 0 m 572 95 q 543 131 572 120 q 479 152 515 141 q 436 95 436 130 q 458 68 436 76 q 504 59 480 59 q 551 68 530 59 q 572 95 572 77 m 448 258 q 469 228 448 238 q 520 209 490 218 q 561 258 561 233 q 545 281 561 272 q 501 290 530 290 q 465 281 481 290 q 448 258 448 272 m 141 748 q 256 716 219 745 q 294 632 294 686 q 254 543 294 576 q 131 509 213 509 q 66 518 98 509 q 18 538 34 527 l 37 605 q 75 588 51 598 q 129 579 100 579 q 188 590 165 579 q 212 627 212 601 q 179 672 212 659 q 58 686 147 686 q 64 739 62 718 q 68 780 66 761 q 72 820 70 800 q 75 869 73 840 l 279 869 l 279 800 l 145 800 l 141 748 "},"é":{"x_min":55.5625,"x_max":632,"ha":695,"o":"m 359 659 q 561 578 490 659 q 632 331 632 497 l 632 291 l 170 291 q 236 139 177 191 q 402 87 295 87 q 506 97 463 87 q 572 118 550 106 l 587 20 q 512 -2 566 9 q 390 -15 458 -15 q 243 10 306 -15 q 138 80 180 36 q 76 186 97 125 q 55 320 55 248 q 81 470 55 406 q 151 576 108 534 q 248 638 194 618 q 359 659 302 659 m 515 384 q 472 514 515 466 q 358 562 429 562 q 285 547 318 562 q 229 506 252 531 q 191 450 205 481 q 173 384 177 418 l 515 384 m 494 888 l 319 719 l 261 770 l 419 962 l 494 888 "},"Ş":{"x_min":76.390625,"x_max":618.109375,"ha":695,"o":"m 365 -45 q 417 -83 401 -62 q 433 -144 433 -104 q 427 -174 433 -158 q 406 -203 420 -190 q 367 -225 391 -216 q 306 -234 343 -234 q 247 -229 275 -234 q 204 -218 219 -225 l 218 -147 q 250 -156 233 -152 q 287 -159 266 -159 q 331 -131 331 -159 q 280 -88 331 -104 l 270 -86 q 284 -53 276 -72 q 300 -18 291 -34 q 158 6 216 -13 q 76 41 100 26 l 111 136 q 193 100 138 120 q 325 80 247 80 q 458 113 412 80 q 504 213 504 147 q 487 282 504 254 q 443 332 470 311 q 380 370 415 354 q 309 400 345 386 q 229 437 268 416 q 161 486 191 458 q 114 551 131 513 q 97 640 97 588 q 168 816 97 752 q 365 879 238 879 q 434 874 400 879 q 497 862 468 869 q 549 845 526 855 q 586 826 572 836 l 550 730 q 473 763 522 747 q 365 780 425 780 q 256 749 302 780 q 211 655 211 718 q 224 594 211 619 q 260 550 237 569 q 313 516 283 531 q 380 486 344 501 q 477 441 433 463 q 552 388 520 419 q 600 316 583 358 q 618 215 618 275 q 556 55 618 115 q 380 -15 495 -4 l 365 -45 "},"ὂ":{"x_min":55.5625,"x_max":638.9375,"ha":695,"o":"m 638 322 q 617 184 638 245 q 556 77 595 122 q 463 9 518 33 q 345 -15 409 -15 q 229 9 283 -15 q 137 77 176 33 q 77 184 98 122 q 55 322 55 245 q 77 461 55 398 q 137 567 98 523 q 229 635 176 611 q 345 659 283 659 q 463 635 409 659 q 556 567 518 611 q 617 461 595 523 q 638 322 638 398 m 520 322 q 473 495 520 431 q 345 558 426 558 q 220 495 266 558 q 173 322 173 431 q 220 150 173 213 q 345 87 266 87 q 473 150 426 87 q 520 322 520 213 m 133 755 q 177 795 159 776 q 209 838 195 815 q 176 863 187 847 q 165 901 165 880 q 184 949 165 930 q 234 968 202 968 q 285 948 263 968 q 306 891 306 929 q 295 847 306 870 q 267 800 284 823 q 227 753 250 776 q 179 712 204 730 l 133 755 m 425 970 l 561 759 l 495 712 l 340 909 l 425 970 "},"H":{"x_min":62.5,"x_max":632,"ha":695,"o":"m 518 859 l 632 859 l 632 0 l 518 0 l 518 400 l 176 400 l 176 0 l 62 0 l 62 859 l 176 859 l 176 497 l 518 497 l 518 859 "},"î":{"x_min":75,"x_max":625.046875,"ha":695,"o":"m 261 548 l 75 548 l 75 644 l 375 644 l 375 248 q 401 120 375 152 q 480 87 427 87 q 554 97 520 87 q 608 118 588 106 l 625 20 q 601 10 616 16 q 566 -1 586 4 q 521 -11 545 -6 q 470 -15 497 -15 q 369 1 409 -15 q 304 51 329 18 q 270 134 280 84 q 261 248 261 183 l 261 548 m 298 954 l 466 776 l 419 722 l 298 830 l 177 722 l 130 776 l 298 954 "},"ύ":{"x_min":98.625,"x_max":593.109375,"ha":695,"o":"m 345 -13 q 222 11 270 -13 q 147 77 175 36 q 109 172 119 119 q 98 279 98 225 l 98 644 l 213 644 l 213 284 q 247 131 213 176 q 345 86 280 86 q 445 131 412 86 q 479 284 479 176 l 479 644 l 593 644 l 593 279 q 582 172 593 225 q 544 77 572 119 q 468 11 516 36 q 345 -13 420 -13 m 523 876 l 303 719 l 253 783 l 458 962 l 523 876 "},"ӎ":{"x_min":37.5,"x_max":668.296875,"ha":695,"o":"m 165 475 q 153 228 154 348 q 148 0 152 108 l 37 0 q 43 158 38 76 q 54 323 48 240 q 68 488 61 406 q 84 644 76 570 l 191 644 q 252 466 219 569 q 326 238 286 362 q 402 466 370 362 q 463 644 434 569 l 570 644 q 596 375 586 518 q 613 95 607 231 l 668 95 q 633 -72 670 8 q 538 -205 595 -152 l 458 -156 q 479 -131 466 -148 q 506 -93 493 -115 q 531 -47 519 -72 q 550 0 543 -23 l 505 0 q 500 232 502 108 q 488 475 498 356 q 465 386 476 423 q 443 311 454 348 q 417 234 431 275 q 383 134 402 193 l 269 134 q 236 234 250 193 q 212 311 223 275 q 190 386 201 348 q 165 475 179 423 "},"ǰ":{"x_min":98.625,"x_max":565.3125,"ha":695,"o":"m 158 548 l 158 644 l 533 644 l 533 6 q 514 -106 533 -59 q 464 -181 495 -152 q 392 -223 433 -211 q 305 -236 351 -236 q 199 -225 252 -236 q 98 -190 145 -213 l 133 -93 q 210 -121 168 -109 q 291 -133 252 -133 q 383 -104 347 -133 q 419 5 419 -76 l 419 548 l 158 548 m 229 904 l 276 958 l 397 850 l 518 958 l 565 904 l 397 726 l 229 904 "},"Ἕ":{"x_min":-345.65625,"x_max":638.9375,"ha":695,"o":"m 126 0 l 126 859 l 608 859 l 608 762 l 240 762 l 240 498 l 562 498 l 562 401 l 240 401 l 240 97 l 638 97 l 638 0 l 126 0 m -217 625 q -306 713 -267 664 q -345 804 -345 761 q -324 861 -345 842 q -273 881 -302 881 q -222 862 -241 881 q -203 814 -203 843 q -215 776 -203 793 q -248 751 -226 760 q -216 708 -234 728 q -172 668 -198 689 l -217 625 m 82 822 l -74 625 l -138 672 l -3 883 l 82 822 "},"ǫ":{"x_min":55.5625,"x_max":638.9375,"ha":695,"o":"m 386 -231 q 281 -206 315 -231 q 248 -137 248 -181 q 264 -82 248 -108 q 302 -33 280 -56 q 325 -13 313 -22 q 217 16 266 -9 q 131 86 168 43 q 75 190 95 130 q 55 322 55 250 q 77 461 55 398 q 137 567 98 523 q 229 635 176 611 q 345 659 283 659 q 463 635 409 659 q 556 567 518 611 q 617 461 595 523 q 638 322 638 398 q 602 147 638 222 q 504 30 566 73 q 446 -5 472 11 q 395 -48 420 -22 q 368 -82 377 -68 q 358 -115 358 -97 q 408 -151 358 -151 q 430 -149 416 -151 q 458 -143 444 -147 l 468 -218 q 386 -231 436 -231 m 520 322 q 473 495 520 431 q 345 558 426 558 q 220 495 266 558 q 173 322 173 431 q 220 150 173 213 q 345 87 266 87 q 473 150 426 87 q 520 322 520 213 "},"†":{"x_min":100.015625,"x_max":594.484375,"ha":695,"o":"m 397 494 l 397 179 q 392 -9 397 75 q 376 -179 387 -94 l 319 -179 q 302 -9 308 -94 q 297 179 297 75 l 297 494 l 100 494 l 100 590 l 297 590 l 297 859 l 397 859 l 397 590 l 594 590 l 594 494 l 397 494 "},"°":{"x_min":173.625,"x_max":520.875,"ha":695,"o":"m 520 790 q 506 718 520 750 q 468 663 493 686 q 413 629 444 641 q 347 618 381 618 q 281 629 312 618 q 225 663 250 641 q 187 718 201 686 q 173 790 173 750 q 187 862 173 830 q 225 916 201 894 q 281 950 250 938 q 347 962 312 962 q 413 950 381 962 q 468 916 444 938 q 506 862 493 894 q 520 790 520 830 m 437 790 q 411 859 437 834 q 347 884 384 884 q 283 859 309 884 q 256 790 256 834 q 283 720 256 745 q 347 695 309 695 q 411 720 384 695 q 437 790 437 745 "},"Ξ":{"x_min":51.390625,"x_max":643.109375,"ha":695,"o":"m 632 761 l 63 761 l 63 859 l 632 859 l 632 761 m 51 98 l 643 98 l 643 0 l 51 0 l 51 98 m 118 501 l 576 501 l 576 400 l 118 400 l 118 501 "},"΄":{"x_min":227.796875,"x_max":456.984375,"ha":695,"o":"m 456 909 l 295 712 l 227 759 l 368 970 l 456 909 "},"ŵ":{"x_min":26.390625,"x_max":668.109375,"ha":695,"o":"m 476 0 q 440 86 455 47 q 410 163 425 125 q 381 245 395 202 q 347 341 366 287 q 312 245 327 287 q 282 163 297 202 q 252 86 268 125 q 215 0 236 47 l 129 0 q 64 338 90 170 q 26 644 38 505 l 134 644 q 143 538 138 590 q 155 429 148 486 q 171 305 162 372 q 191 155 180 238 q 229 252 213 211 q 256 331 244 294 q 281 408 269 369 q 306 495 293 447 l 393 495 q 418 408 406 447 q 441 331 429 369 q 468 252 454 294 q 502 156 481 211 q 525 298 515 233 q 541 421 534 363 q 554 533 548 479 q 563 644 559 587 l 668 644 q 651 495 661 575 q 627 333 641 416 q 597 164 613 250 q 562 0 580 79 l 476 0 m 344 954 l 512 776 l 465 722 l 344 830 l 223 722 l 176 776 l 344 954 "},"ǁ":{"x_min":168.46875,"x_max":527.421875,"ha":695,"o":"m 168 970 l 275 970 l 275 -229 l 168 -229 l 168 970 m 420 970 l 527 970 l 527 -229 l 420 -229 l 420 970 "},"ᾚ":{"x_min":-409.65625,"x_max":694.5,"ha":695,"o":"m 679 -12 q 599 5 630 -8 q 550 42 568 19 q 527 97 533 65 q 520 170 520 129 l 520 644 l 622 644 l 622 190 q 625 146 622 163 q 636 116 627 129 q 658 97 644 104 q 694 84 672 90 l 679 -12 m 331 859 l 434 859 l 434 0 l 331 0 l 331 400 l 163 400 l 163 0 l 62 0 l 62 859 l 163 859 l 163 497 l 331 497 l 331 859 m -409 668 q -365 708 -383 689 q -333 751 -347 728 q -366 776 -355 760 q -377 814 -377 793 q -358 862 -377 843 q -308 881 -340 881 q -257 861 -279 881 q -236 804 -236 842 q -247 760 -236 783 q -275 713 -258 736 q -315 666 -292 689 q -363 625 -338 643 l -409 668 m -117 883 l 18 672 l -47 625 l -202 822 l -117 883 "},"╠":{"x_min":180.5625,"x_max":694.5,"ha":695,"o":"m 291 -236 l 180 -236 l 180 1152 l 291 1152 l 291 -236 m 694 513 l 402 513 l 402 1152 l 513 1152 l 513 625 l 694 625 l 694 513 m 694 291 l 513 291 l 513 -236 l 402 -236 l 402 402 l 694 402 l 694 291 "},"№":{"x_min":50,"x_max":669.5,"ha":695,"o":"m 669 643 q 643 470 669 534 q 558 406 618 406 q 472 470 498 406 q 445 643 445 534 q 472 814 445 751 q 558 877 498 877 q 643 814 618 877 q 669 643 669 751 m 520 641 q 531 525 520 563 q 558 486 541 486 q 584 525 573 486 q 595 641 595 563 q 584 757 595 719 q 558 795 573 795 q 531 757 541 795 q 520 641 520 719 m 445 281 l 669 281 l 669 186 l 445 186 l 445 281 m 136 348 l 136 0 l 50 0 l 50 859 l 141 859 l 306 254 l 294 508 l 294 859 l 380 859 l 380 0 l 288 0 l 123 605 l 136 348 "},"ƫ":{"x_min":87.5,"x_max":632,"ha":695,"o":"m 447 -8 q 335 7 379 -8 q 266 55 291 23 q 232 135 241 87 q 223 248 223 183 l 223 548 l 87 548 l 87 644 l 223 644 l 223 825 l 337 844 l 337 644 l 597 644 l 597 548 l 337 548 l 337 248 q 344 169 337 200 q 367 120 351 138 q 408 94 383 101 q 469 87 433 87 q 520 89 495 87 q 566 93 545 91 q 602 98 587 95 q 623 102 618 101 q 626 81 625 94 q 629 53 627 68 q 631 24 630 38 q 632 0 632 9 q 625 -96 632 -54 q 601 -169 619 -138 q 549 -215 583 -200 q 461 -231 515 -231 q 421 -228 443 -231 q 386 -222 400 -225 l 395 -137 q 420 -142 402 -140 q 447 -144 437 -144 q 511 -113 495 -144 q 527 -26 527 -81 q 527 -16 527 -20 q 526 -4 527 -12 q 447 -8 493 -8 "},"ί":{"x_min":75,"x_max":625.046875,"ha":695,"o":"m 625 20 q 544 -6 586 1 q 463 -15 502 -15 q 369 -2 408 -15 q 306 40 330 11 q 272 118 283 70 q 261 233 261 165 l 261 548 l 75 548 l 75 644 l 375 644 l 375 251 q 380 169 375 201 q 398 119 386 137 q 431 94 411 101 q 484 87 452 87 q 540 94 504 87 q 608 118 576 101 l 625 20 m 469 909 l 308 712 l 240 759 l 381 970 l 469 909 "},"ť":{"x_min":87.5,"x_max":625.046875,"ha":695,"o":"m 337 644 l 609 644 l 609 548 l 337 548 l 337 248 q 344 169 337 200 q 367 120 351 138 q 408 94 383 101 q 469 87 433 87 q 550 95 519 87 q 608 118 580 104 l 625 20 q 563 -1 605 12 q 458 -15 520 -15 q 340 1 386 -15 q 268 51 294 18 q 233 134 243 84 q 223 248 223 183 l 223 548 l 87 548 l 87 644 l 223 644 l 223 825 l 337 844 l 337 644 m 545 962 l 512 722 l 435 722 l 435 962 l 545 962 "},"5":{"x_min":91.671875,"x_max":613.9375,"ha":695,"o":"m 258 527 q 529 445 444 520 q 613 244 613 370 q 595 138 613 187 q 539 55 577 90 q 442 1 501 20 q 302 -18 383 -18 q 236 -13 269 -18 q 175 -1 204 -8 q 123 13 145 5 q 91 26 101 20 l 113 125 q 182 98 136 113 q 300 83 229 83 q 393 95 355 83 q 453 129 430 108 q 486 179 476 151 q 497 237 497 206 q 481 321 497 284 q 425 383 465 358 q 317 421 386 408 q 144 434 248 434 q 157 549 152 495 q 165 653 162 602 q 171 754 169 704 q 176 859 173 804 l 590 859 l 590 762 l 276 762 q 272 711 275 743 q 268 645 270 680 q 262 579 265 611 q 258 527 259 547 "},"ῃ":{"x_min":98.625,"x_max":600.046875,"ha":695,"o":"m 98 626 q 222 650 161 641 q 338 658 284 658 q 534 591 468 658 q 600 377 600 525 l 600 -229 l 486 -229 l 486 356 q 475 458 486 419 q 443 518 463 497 q 395 548 423 540 q 333 556 366 556 q 274 553 305 556 q 213 544 243 550 l 213 0 l 98 0 l 98 626 m 213 -80 q 226 -140 213 -120 q 285 -161 239 -161 l 306 -161 l 306 -227 q 248 -236 274 -236 q 141 -202 184 -236 q 99 -90 99 -169 q 100 -77 99 -84 q 102 -62 101 -69 l 213 -62 l 213 -80 "},"Ӊ":{"x_min":62.5,"x_max":668.265625,"ha":695,"o":"m 500 859 l 613 859 l 613 102 l 668 102 q 658 13 669 59 q 627 -76 647 -31 q 578 -161 607 -120 q 518 -234 550 -202 l 434 -181 q 463 -150 447 -169 q 493 -106 479 -130 q 520 -54 508 -81 q 540 0 533 -27 l 500 0 l 500 400 l 176 400 l 176 0 l 62 0 l 62 859 l 176 859 l 176 497 l 500 497 l 500 859 "}}}
